<svg width="22" height="22" viewBox="0 0 22 22" fill="none" xmlns="http://www.w3.org/2000/svg">
<path d="M11 3C15.3446 3 18.8804 6.4633 18.997 10.7797L19 10.9999H16.6725C16.6725 7.86712 14.1328 5.32747 11 5.32747C7.92981 5.32747 5.42931 7.76655 5.33052 10.8127L5.32749 10.9999H3C3 6.5817 6.58172 3 11 3Z" fill="#77B1F4"/>
<path d="M11 19C15.3446 19 18.8804 15.5367 18.997 11.2203L19 11.0001H16.6725C16.6725 14.1329 14.1328 16.6725 11 16.6725C7.92981 16.6725 5.42931 14.2334 5.33052 11.1873L5.32749 11.0001H3C3 15.4183 6.58172 19 11 19Z" fill="#877CFF"/>
<path d="M12.9085 7.67383L14.669 8.76248L10.9344 14.8015L7.40228 11.4723L8.82201 9.96604L10.5078 11.5546L12.9085 7.67383Z" fill="#4E43C1"/>
<path d="M3.17482 9.33643L5.45145 9.82033L5.43038 9.91867C5.42641 9.93923 5.42255 9.95983 5.41881 9.98048L5.41548 10.0041C5.41412 10.0117 5.41277 10.0194 5.41144 10.027C5.4006 10.0847 5.39151 10.1426 5.3833 10.2009C5.37892 10.2349 5.37444 10.2684 5.37026 10.3018C5.36631 10.3318 5.36279 10.3625 5.35952 10.3933C5.35371 10.4471 5.34867 10.5005 5.34439 10.5539C5.34349 10.5702 5.34229 10.5864 5.34117 10.6026C5.33679 10.6573 5.33369 10.712 5.33138 10.7665L5.33052 10.8125L5.32837 10.8536C5.32775 10.8764 5.32728 10.8992 5.32694 10.9219L5.32749 10.9997H3C3 10.6705 3.01988 10.346 3.05852 10.0272C3.08722 9.79761 3.12578 9.56712 3.17482 9.33643Z" fill="#4E43C1"/>
<path d="M18.8252 12.6631L16.5486 12.1792L16.5696 12.0808C16.5736 12.0603 16.5774 12.0397 16.5812 12.019L16.5845 11.9954C16.5859 11.9878 16.5872 11.9802 16.5886 11.9725C16.5994 11.9149 16.6085 11.8569 16.6167 11.7986C16.6211 11.7646 16.6256 11.7312 16.6297 11.6977C16.6337 11.6677 16.6372 11.637 16.6405 11.6062C16.6463 11.5524 16.6513 11.499 16.6556 11.4456C16.6565 11.4294 16.6577 11.4131 16.6588 11.3969C16.6632 11.3422 16.6663 11.2875 16.6686 11.233L16.6695 11.187L16.6716 11.1459C16.6722 11.1231 16.6727 11.1004 16.6731 11.0776L16.6725 10.9998H19C19 11.329 18.9801 11.6536 18.9415 11.9723C18.9128 12.2019 18.8742 12.4324 18.8252 12.6631Z" fill="#4E43C1"/>
</svg>
