<svg width="380" height="410" viewBox="0 0 380 410" fill="none" xmlns="http://www.w3.org/2000/svg">
<rect width="380" height="410" rx="8" fill="white"/>
<path fill-rule="evenodd" clip-rule="evenodd" d="M184.275 129.342C178.283 130.736 172.949 134.134 169.491 138.761L168.147 140.559L165.907 140.763C153.468 141.897 144.225 150.373 142.295 162.413C141.53 167.18 142.564 173.517 144.796 177.751L145.747 179.554L144.654 181.754C141.741 187.618 141.25 194.811 143.34 200.99C146.704 210.933 155.267 217.555 165.816 218.371C167.18 218.477 168.296 218.652 168.296 218.761C168.296 219.261 171.792 223.145 173.601 224.655C182.524 232.102 196.479 232.102 205.402 224.655C207.211 223.145 210.707 219.261 210.707 218.761C210.707 218.652 211.823 218.477 213.187 218.371C223.736 217.555 232.299 210.933 235.663 200.99C237.753 194.811 237.259 187.581 234.349 181.773L233.256 179.592L234.355 177.352C236.257 173.474 236.822 170.865 236.81 166.03C236.801 162.335 236.701 161.5 235.995 159.175C232.789 148.63 224.312 141.78 213.22 140.769L210.856 140.554L209.26 138.474C206.316 134.637 202.407 131.881 197.477 130.169C194.648 129.186 194.13 129.104 190.248 129.017C187.435 128.955 185.48 129.061 184.275 129.342ZM193.977 135.092C196.771 135.754 199.799 137.321 202.172 139.332C203.31 140.296 204.288 141.231 204.346 141.41C204.404 141.589 203.504 142.109 202.347 142.566C197.982 144.289 193.058 148.337 190.696 152.144C190.121 153.071 189.584 153.829 189.501 153.829C189.419 153.829 188.882 153.071 188.307 152.144C185.932 148.317 180.966 144.244 176.648 142.584C175.466 142.129 174.588 141.622 174.651 141.429C174.712 141.24 175.693 140.296 176.831 139.332C179.144 137.371 182.232 135.752 184.892 135.105C187.253 134.53 191.583 134.524 193.977 135.092ZM172.041 147.1C175.801 148.062 179.706 150.541 182.167 153.527L183.256 154.849L180.724 155.807C179.332 156.334 177.424 157.227 176.485 157.791C174.107 159.22 170.055 163.142 168.455 165.565L167.113 167.595L164.942 167.761C160.369 168.11 155.185 170.18 151.644 173.07C150.617 173.909 149.727 174.595 149.669 174.595C149.438 174.595 148.553 171.892 148.137 169.915C147.26 165.748 147.824 161.56 149.815 157.465C150.819 155.399 151.55 154.42 153.629 152.354C156.4 149.599 158.708 148.2 162.088 147.228C164.501 146.534 169.572 146.469 172.041 147.1ZM216.543 147.1C223.222 148.809 228.79 154.345 230.593 161.071C231.234 163.461 231.317 168.364 230.757 170.688C230.537 171.597 229.821 173.476 229.165 174.863C228.214 176.872 227.477 177.885 225.536 179.847C222.32 183.098 219.155 184.823 215.072 185.551C214.088 185.726 213.939 185.685 214.093 185.282C214.193 185.02 214.42 183.633 214.597 182.199C215.201 177.304 213.879 171.161 211.245 166.631C209.758 164.073 205.015 159.256 202.542 157.791C201.59 157.227 199.677 156.337 198.292 155.812L195.773 154.859L196.867 153.445C198.948 150.758 203.091 148.128 206.824 147.126C209.024 146.535 214.278 146.521 216.543 147.1ZM194.579 160.611C197.931 161.517 200.529 163.086 203.248 165.848C207.269 169.932 208.901 173.928 208.91 179.711C208.932 193.949 194.253 203.36 181.355 197.377C174.351 194.129 170.081 187.429 170.093 179.711C170.102 173.931 171.733 169.937 175.755 165.842C177.853 163.707 178.749 163.037 180.84 162.036C182.236 161.368 184.118 160.676 185.021 160.498C185.925 160.321 186.933 160.113 187.262 160.037C188.311 159.794 192.879 160.152 194.579 160.611ZM164.902 173.848C164.361 175.265 164.104 179.681 164.413 182.24C165.246 189.139 168.475 195.096 173.672 199.323C175.877 201.116 180.453 203.565 182.291 203.935C182.807 204.038 183.23 204.239 183.23 204.382C183.23 204.523 182.248 205.627 181.049 206.834C177.218 210.689 172.697 212.561 167.251 212.548C162.605 212.537 159.548 211.523 155.538 208.663C150.49 205.062 147.33 198.09 147.823 191.642C148.466 183.24 154.343 176.121 162.387 174C165.073 173.292 165.114 173.289 164.902 173.848ZM230.301 186.992C231.331 190.163 231.472 195.304 230.608 198.172C228.877 203.915 225.061 208.388 219.816 210.818C216.954 212.145 214.938 212.572 211.603 212.561C207.142 212.545 204.002 211.49 200.067 208.683C198.522 207.581 195.773 204.755 195.773 204.27C195.773 204.189 196.195 204.038 196.712 203.935C198.549 203.565 203.126 201.116 205.331 199.323C207.655 197.432 209.638 195.19 210.905 193.019C211.569 191.882 211.78 191.741 213.041 191.595C219.287 190.87 224.306 188.874 227.74 185.752C228.474 185.084 229.17 184.532 229.286 184.526C229.402 184.519 229.859 185.629 230.301 186.992ZM190.299 206.398C192.756 210.728 198.492 215.38 203.315 216.953C203.931 217.154 204.435 217.432 204.435 217.572C204.435 218.199 200.475 221.315 198.312 222.39C195.144 223.965 192.955 224.485 189.501 224.485C186.048 224.485 183.859 223.965 180.691 222.39C178.528 221.315 174.568 218.199 174.568 217.572C174.568 217.432 175.072 217.156 175.688 216.958C180.516 215.403 186.221 210.775 188.703 206.398C189.06 205.77 189.419 205.255 189.501 205.255C189.584 205.255 189.942 205.77 190.299 206.398ZM155.364 246.915C155.249 247.031 155.155 248.997 155.155 251.283V255.441H153.213H151.272V257.695V259.949H153.209H155.147L155.225 270.092L155.304 280.235H158.291H161.277L161.356 270.092L161.435 259.949H163.521H165.608V257.695V255.441H163.525H161.443L161.36 251.158L161.277 246.875L158.425 246.79C156.856 246.743 155.479 246.8 155.364 246.915ZM132.232 254.978C122.008 257.306 118.482 270.252 126.117 277.438C130.076 281.165 135.721 282.047 140.621 279.705L142.909 278.612V279.499V280.386H145.597H148.285V267.913V255.441H145.597H142.909V256.321V257.202L141.625 256.48C138.597 254.776 135.378 254.261 132.232 254.978ZM177.288 254.864C175.362 255.245 172.433 256.713 170.997 258.02C167.467 261.228 165.888 266.09 166.923 270.555C168.054 275.425 171.089 278.798 175.779 280.393C177.349 280.928 178.172 281.023 180.243 280.911C184.44 280.684 187.549 279.087 190.087 275.857C192.003 273.417 192.622 271.449 192.63 267.763C192.637 264.749 192.589 264.506 191.561 262.353C189.69 258.438 186.477 255.847 182.417 254.981C180.172 254.503 179.227 254.481 177.288 254.864ZM206.762 254.943C205.228 255.378 203.144 256.701 202.471 257.668C202.077 258.234 202.045 258.174 202.045 256.86V255.441H199.208H196.371V267.913V280.386H199.336H202.301L202.397 272.346C202.492 264.41 202.503 264.29 203.24 262.981C204.349 261.012 205.305 260.423 207.407 260.41C209.311 260.399 210.257 260.882 211.435 262.468C212.017 263.253 212.056 263.759 212.142 271.842L212.234 280.386H215.204H218.173L218.186 273.098C218.194 269.089 218.313 265.22 218.451 264.5C219.085 261.196 222.098 259.495 225.202 260.688C226.242 261.088 226.705 261.494 227.216 262.456C227.844 263.637 227.888 264.159 228.029 271.971L228.179 280.235H231.165H234.152L234.125 271.369C234.094 260.974 233.933 260.037 231.773 257.62C229.916 255.541 227.989 254.725 224.893 254.707C222.864 254.694 222.247 254.819 220.797 255.534C219.829 256.012 218.551 256.987 217.844 257.787C216.997 258.744 216.549 259.063 216.45 258.779C216.147 257.914 214.206 256.054 212.986 255.46C211.346 254.661 208.569 254.43 206.762 254.943ZM244.755 255.021C241.553 255.885 239.39 258.05 238.781 261.002C237.962 264.972 239.993 267.587 245.203 269.273C249.272 270.59 251.027 271.787 251.027 273.245C251.027 274.432 250.575 275.185 249.539 275.724C247.58 276.744 245.121 275.889 244.423 273.945L244.037 272.872H241.11C237.789 272.872 237.807 272.854 238.648 275.338C239.771 278.655 242.844 280.709 247.011 280.929C250.373 281.106 252.355 280.468 254.467 278.525C256.282 276.856 257 275.193 257 272.659C257 268.757 255.212 266.988 249.488 265.232C246.123 264.199 244.934 263.4 244.808 262.086C244.661 260.55 245.659 259.648 247.508 259.648C248.655 259.648 249.119 259.805 249.696 260.386C250.099 260.792 250.429 261.405 250.429 261.749C250.429 262.346 250.563 262.371 253.341 262.289L256.253 262.203L256.166 261.301C256.117 260.805 255.737 259.689 255.322 258.821C254.408 256.913 252.723 255.643 250.242 254.993C248.128 254.439 246.894 254.445 244.755 255.021ZM138.283 260.827C140.977 262.013 142.724 264.816 142.699 267.913C142.681 270.084 142.134 271.502 140.696 273.104C139.122 274.857 137.008 275.685 134.556 275.508C132.322 275.347 131.117 274.81 129.629 273.313C128.161 271.836 127.622 270.635 127.448 268.453C126.97 262.462 132.754 258.391 138.283 260.827ZM183.141 260.892C184.652 261.614 186.092 263.196 186.889 265.009C187.611 266.651 187.507 269.435 186.659 271.206C184.314 276.103 177.544 277.072 174.006 273.017C172.587 271.39 172.082 270.017 172.068 267.746C172.058 266.092 172.202 265.513 172.97 264.14C175.011 260.484 179.377 259.091 183.141 260.892Z" fill="black"/>
</svg>
