<svg width="164" height="80" viewBox="0 0 164 80" fill="none" xmlns="http://www.w3.org/2000/svg">
<rect width="164" height="80" fill="white"/>
<path d="M55.191 39.5891C56.97 39.5891 58.1642 40.3822 58.8953 41.3676V27.3318C58.8953 27.0675 58.5785 26.8992 58.3591 27.0675L40.7881 39.7333H41.2511C43.0789 39.7333 44.005 40.8869 44.005 42.1367C44.005 43.1221 43.4932 43.8431 42.7864 44.1555C42.6646 44.2036 42.6646 44.3718 42.7864 44.4199C43.5907 44.7564 44.1755 45.5976 44.1755 46.607C44.1755 48.049 43.2251 49.1786 41.3973 49.1786H36.4014C36.3039 49.1786 36.2064 49.1065 36.2064 48.9863V43.0259L23.1195 52.4713C22.9002 52.6635 22.9977 53 23.2901 53H58.5785C58.749 53 58.8709 52.8798 58.8709 52.7116V47.9289C57.9205 48.7941 56.6776 49.3469 55.1666 49.3469C52.3396 49.3469 50.0488 47.4241 50.0488 44.468C50.0732 41.4878 52.3884 39.5891 55.191 39.5891ZM48.1967 49.0104C48.1967 49.1065 48.1236 49.1786 48.0261 49.1786H46.3445C46.247 49.1786 46.1739 49.1065 46.1739 49.0104V39.9015C46.1739 39.8054 46.247 39.7333 46.3445 39.7333H48.0261C48.1236 39.7333 48.1967 39.8054 48.1967 39.9015V49.0104Z" fill="#34313F"/>
<path d="M38.4486 43.4826H40.8125C41.4949 43.4826 41.9335 43.0981 41.9335 42.4972C41.9335 41.9204 41.4949 41.5119 40.8125 41.5119H38.3511C38.3023 41.5119 38.2536 41.5599 38.2536 41.608V43.3144C38.2536 43.4105 38.3511 43.4826 38.4486 43.4826Z" fill="#34313F"/>
<path d="M38.4486 47.4241H40.91C41.6655 47.4241 42.1285 47.0156 42.1285 46.3426C42.1285 45.7418 41.6898 45.2611 40.91 45.2611H38.4486C38.3511 45.2611 38.2536 45.3332 38.2536 45.4534V47.2319C38.2536 47.328 38.3511 47.4241 38.4486 47.4241Z" fill="#34313F"/>
<path d="M57.3599 42.4491C56.8969 41.8483 56.117 41.3676 55.191 41.3676C53.4363 41.3676 52.169 42.6894 52.169 44.4679C52.169 46.2465 53.4363 47.5683 55.191 47.5683C55.9952 47.5683 56.7507 47.2318 57.165 46.8954C57.1893 46.8713 57.2137 46.8233 57.2137 46.7752V45.8619C57.2137 45.7898 57.1406 45.7177 57.0675 45.7177H54.8985C54.7767 45.7177 54.7036 45.6216 54.7036 45.5254V44.1795C54.7036 44.0594 54.801 43.9873 54.8985 43.9873H58.9196V41.8483L57.628 42.5452C57.5305 42.5693 57.4087 42.5212 57.3599 42.4491Z" fill="#34313F"/>
<path d="M60.4063 44.468C60.4063 41.5599 62.5266 39.5891 65.256 39.5891C67.0351 39.5891 68.1805 40.4784 68.8629 41.5599C68.9116 41.632 68.8872 41.7522 68.7897 41.7762L67.6931 42.353C67.62 42.4011 67.5225 42.3771 67.4981 42.305C67.0351 41.584 66.1821 41.0552 65.256 41.0552C63.4283 41.0552 62.0635 42.4732 62.0635 44.468C62.0635 46.4388 63.4283 47.8808 65.256 47.8808C66.1821 47.8808 67.0351 47.3521 67.4981 46.6311C67.5469 46.559 67.62 46.5349 67.6931 46.583L68.7897 47.1358C68.8872 47.1838 68.9116 47.28 68.8629 47.3761C68.1561 48.4576 67.0107 49.3709 65.256 49.3709C62.5266 49.3469 60.4063 47.3521 60.4063 44.468Z" fill="#34313F"/>
<path d="M69.8133 44.468C69.8133 42.1127 71.178 40.2861 73.2251 39.7574C76.7101 38.8441 79.9026 42.0646 79.1471 45.6457C78.6841 47.8568 76.905 49.3709 74.5411 49.3709C71.7629 49.3469 69.8133 47.28 69.8133 44.468ZM77.5874 44.468C77.5874 42.5213 76.3689 41.0552 74.5167 41.0552C72.6402 41.0552 71.4461 42.5213 71.4461 44.468C71.4461 46.4148 72.6402 47.8808 74.5167 47.8808C76.3933 47.8808 77.5874 46.3907 77.5874 44.468Z" fill="#34313F"/>
<path d="M89.1877 49.0585V41.8724L86.2877 49.1066C86.2877 49.1306 86.2389 49.1546 86.2145 49.1546H85.6053C85.5809 49.1546 85.5322 49.1306 85.5322 49.1066L82.6077 41.8724V49.0585C82.6077 49.1306 82.559 49.1787 82.4859 49.1787H81.0237C80.9505 49.1787 80.9018 49.1306 80.9018 49.0585V39.8295C80.9018 39.7574 80.9505 39.7093 81.0237 39.7093H83.1195C83.217 39.7093 83.2901 39.7574 83.3388 39.8535L85.8977 46.3427L88.4323 39.8535C88.4566 39.7574 88.5541 39.7093 88.6516 39.7093H90.7474C90.8205 39.7093 90.8693 39.7574 90.8693 39.8295V49.0585C90.8693 49.1306 90.8205 49.1787 90.7474 49.1787H89.2852C89.2608 49.1787 89.1877 49.1306 89.1877 49.0585Z" fill="#34313F"/>
<path d="M105.76 49.0104V39.9015C105.76 39.8054 105.833 39.7333 105.93 39.7333H112.145C112.242 39.7333 112.315 39.8054 112.315 39.9015V41.0071C112.315 41.1032 112.242 41.1753 112.145 41.1753H107.612C107.514 41.1753 107.441 41.2474 107.441 41.3436V43.4345C107.441 43.5307 107.514 43.6028 107.612 43.6028H112.047C112.145 43.6028 112.218 43.6749 112.218 43.771V44.8766C112.218 44.9727 112.145 45.0448 112.047 45.0448H107.612C107.514 45.0448 107.441 45.1169 107.441 45.213V47.4962C107.441 47.5924 107.514 47.6645 107.612 47.6645H112.145C112.242 47.6645 112.315 47.7366 112.315 47.8327V48.9383C112.315 49.0344 112.242 49.1065 112.145 49.1065H105.93C105.833 49.1786 105.76 49.1065 105.76 49.0104Z" fill="#34313F"/>
<path d="M120.114 49.0825L118.091 45.7177C118.067 45.6697 117.993 45.6456 117.945 45.6456H116.531C116.434 45.6456 116.361 45.7177 116.361 45.8139V49.0104C116.361 49.1065 116.288 49.1786 116.19 49.1786H114.874C114.777 49.1786 114.703 49.1065 114.703 49.0104V39.9015C114.703 39.8054 114.777 39.7333 114.874 39.7333H118.92C120.82 39.7333 122.063 40.935 122.063 42.6895C122.063 44.2517 121.088 45.1409 120.016 45.4053C119.894 45.4293 119.846 45.5495 119.894 45.6697C120.284 46.2945 121.503 48.2173 121.966 48.9142C122.039 49.0344 121.966 49.1786 121.82 49.1786H120.284C120.211 49.1786 120.162 49.1546 120.114 49.0825ZM120.333 42.6654C120.333 41.7521 119.651 41.1753 118.7 41.1753H116.556C116.458 41.1753 116.385 41.2474 116.385 41.3436V44.0113C116.385 44.1075 116.458 44.1796 116.556 44.1796H118.7C119.651 44.1796 120.333 43.6028 120.333 42.6654Z" fill="#34313F"/>
<path d="M133.42 49.0104V39.9015C133.42 39.8054 133.493 39.7333 133.591 39.7333H139.829C139.927 39.7333 140 39.8054 140 39.9015V41.0311C140 41.1273 139.927 41.1994 139.829 41.1994H135.272C135.175 41.1994 135.102 41.2715 135.102 41.3676V43.4826C135.102 43.5787 135.175 43.6508 135.272 43.6508H139.708C139.805 43.6508 139.878 43.7229 139.878 43.8191V44.9487C139.878 45.0448 139.805 45.1169 139.708 45.1169H135.272C135.175 45.1169 135.102 45.189 135.102 45.2851V47.5924C135.102 47.6885 135.175 47.7606 135.272 47.7606H139.829C139.927 47.7606 140 47.8327 140 47.9289V49.0584C140 49.1546 139.927 49.2267 139.829 49.2267H133.591C133.493 49.1786 133.42 49.1065 133.42 49.0104Z" fill="#34313F"/>
<path d="M123.282 44.4199C123.282 41.5118 125.402 39.5411 128.132 39.5411C129.911 39.5411 131.056 40.4303 131.738 41.5118C131.787 41.5839 131.763 41.7041 131.665 41.7281L130.569 42.305C130.496 42.353 130.398 42.329 130.374 42.2569C129.911 41.5359 129.058 41.0071 128.132 41.0071C126.304 41.0071 124.939 42.4251 124.939 44.4199C124.939 46.3907 126.304 47.8327 128.132 47.8327C129.058 47.8327 129.911 47.304 130.374 46.583C130.422 46.5109 130.496 46.4868 130.569 46.5349L131.665 47.0877C131.763 47.1358 131.787 47.2319 131.738 47.328C131.032 48.4096 129.886 49.3228 128.132 49.3228C125.402 49.2988 123.282 47.328 123.282 44.4199Z" fill="#34313F"/>
<path d="M101.617 49.0585V41.8724L98.7166 49.1066C98.7166 49.1306 98.6678 49.1546 98.6434 49.1546H98.0342C98.0098 49.1546 97.9611 49.1306 97.9611 49.1066L95.0366 41.8724V49.0585C95.0366 49.1306 94.9879 49.1787 94.9148 49.1787H93.4526C93.3794 49.1787 93.3307 49.1306 93.3307 49.0585V39.8295C93.3307 39.7574 93.3794 39.7093 93.4526 39.7093H95.5484C95.6459 39.7093 95.719 39.7574 95.7677 39.8535L98.3266 46.3427L100.861 39.8535C100.886 39.7574 100.983 39.7093 101.08 39.7093H103.176C103.249 39.7093 103.298 39.7574 103.298 39.8295V49.0585C103.298 49.1306 103.249 49.1787 103.176 49.1787H101.714C101.665 49.1787 101.617 49.1306 101.617 49.0585Z" fill="#34313F"/>
</svg>
