<svg width="30" height="31" viewBox="0 0 30 31" fill="none" xmlns="http://www.w3.org/2000/svg">
<g clip-path="url(#clip0)">
<path d="M20.5867 10.4055L18.5898 9.93312C18.547 9.82043 18.4986 9.70766 18.4504 9.59497L19.5184 7.86661C19.6526 7.65727 19.6205 7.37814 19.4433 7.20641L17.7096 5.47268C17.5324 5.29551 17.2587 5.26327 17.0494 5.39216L15.2996 6.47636C15.1869 6.42814 15.0742 6.38515 14.9615 6.34217L14.4945 4.36693C14.4407 4.12541 14.2207 3.95361 13.9738 3.95361L11.5154 3.95899C11.2686 3.95899 11.0539 4.13079 10.9948 4.3723L10.5171 6.37441C10.3991 6.41739 10.2809 6.46568 10.1682 6.51397L8.44521 5.45657C8.23594 5.32775 7.96219 5.35993 7.78501 5.53166L6.04593 7.27613C5.86876 7.4533 5.83666 7.72706 5.96534 7.9364L7.03885 9.68087C6.99063 9.79357 6.94227 9.90633 6.89942 10.0244L4.91869 10.4967C4.67717 10.5558 4.5055 10.7704 4.5055 11.0174L4.5 13.4757C4.5 13.728 4.6718 13.9428 4.91331 14.0017L6.9154 14.4688C6.95301 14.5815 7.00137 14.6942 7.04959 14.8069L5.98158 16.5406C5.84739 16.75 5.87949 17.0238 6.05667 17.2009L7.79038 18.9346C7.96218 19.1063 8.2413 19.1386 8.45058 19.0098L10.2058 17.9255C10.3185 17.9738 10.4312 18.0221 10.544 18.0651L11.0055 20.0403C11.0645 20.2819 11.2793 20.4536 11.5262 20.4536C11.5315 20.4536 11.5315 20.4536 11.5315 20.4536L13.9846 20.4482C14.2314 20.4482 14.4461 20.2765 14.5052 20.0349L14.9828 18.0274C15.1009 17.9845 15.2191 17.9362 15.3264 17.8879L17.0548 18.9507C17.2641 19.0795 17.5378 19.0473 17.715 18.8702L19.4594 17.1311C19.6312 16.9539 19.6633 16.6802 19.5347 16.4709L18.4612 14.721C18.5094 14.6084 18.5577 14.4956 18.6006 14.3775L20.5813 13.9052C20.8228 13.8461 20.9893 13.6314 20.9945 13.3845L21 10.9261C21 10.6792 20.8282 10.4591 20.5867 10.4055ZM15.7146 15.1636C14.0734 16.8115 11.4098 16.8115 9.77536 15.1771C8.14073 13.5426 8.14073 10.8789 9.78882 9.23758C11.43 7.59637 14.0869 7.58964 15.7213 9.23084C17.3625 10.8654 17.356 13.5224 15.7146 15.1636Z" fill="#877CFF"/>
<path d="M26.6994 19.1459L25.2472 18.8023C25.216 18.7204 25.1808 18.6384 25.1458 18.5564L25.9225 17.2994C26.0201 17.1472 25.9967 16.9442 25.8679 16.8193L24.607 15.5584C24.4781 15.4295 24.2791 15.4061 24.1269 15.4998L22.8543 16.2883C22.7723 16.2533 22.6903 16.222 22.6084 16.1907L22.2687 14.7542C22.2296 14.5786 22.0696 14.4536 21.8901 14.4536L20.1021 14.4575C19.9226 14.4575 19.7665 14.5825 19.7235 14.7581L19.3761 16.2142C19.2902 16.2455 19.2043 16.2806 19.1223 16.3157L17.8692 15.5467C17.717 15.453 17.518 15.4764 17.3891 15.6013L16.1243 16.87C15.9955 16.9988 15.9721 17.1979 16.0657 17.3502L16.8464 18.6189C16.8114 18.7009 16.7762 18.7829 16.745 18.8687L15.3045 19.2122C15.1289 19.2552 15.004 19.4113 15.004 19.5909L15 21.3788C15 21.5623 15.1249 21.7185 15.3006 21.7613L16.7567 22.101C16.784 22.183 16.8192 22.2649 16.8542 22.3469L16.0775 23.6078C15.9799 23.7601 16.0033 23.9592 16.1321 24.088L17.393 25.3489C17.5179 25.4738 17.7209 25.4972 17.8731 25.4035L19.1497 24.615C19.2316 24.6501 19.3136 24.6852 19.3956 24.7165L19.7313 26.153C19.7742 26.3287 19.9304 26.4536 20.1099 26.4536C20.1139 26.4536 20.1139 26.4536 20.1139 26.4536L21.8979 26.4497C22.0774 26.4497 22.2335 26.3248 22.2765 26.1491L22.6239 24.6891C22.7098 24.6579 22.7957 24.6228 22.8738 24.5876L24.1308 25.3606C24.283 25.4543 24.482 25.4308 24.6109 25.302L25.8796 24.0372C26.0045 23.9084 26.0279 23.7093 25.9343 23.5571L25.1536 22.2845C25.1886 22.2025 25.2238 22.1205 25.255 22.0346L26.6955 21.6911C26.8711 21.6482 26.9922 21.492 26.996 21.3125L27 19.5245C27 19.345 26.8751 19.1849 26.6994 19.1459ZM23.1561 22.6063C21.9625 23.8048 20.0253 23.8048 18.8366 22.6161C17.6478 21.4274 17.6478 19.4902 18.8464 18.2965C20.04 17.1029 21.9723 17.098 23.161 18.2916C24.3546 19.4804 24.3498 21.4127 23.1561 22.6063Z" fill="#77B1F4"/>
<path fill-rule="evenodd" clip-rule="evenodd" d="M19.3764 16.2128L19.3761 16.214C19.2903 16.2453 19.2043 16.2804 19.1223 16.3155L17.8693 15.5465C17.7171 15.4528 17.518 15.4762 17.3891 15.6011L16.1243 16.8698C15.9955 16.9987 15.9721 17.1978 16.0657 17.35L16.8465 18.6187L16.845 18.6221C16.8226 18.6746 16.8001 18.7271 16.7787 18.7807L17.0548 18.9505C17.2641 19.0794 17.5378 19.0471 17.715 18.87L19.4595 17.1309C19.6313 16.9538 19.6634 16.68 19.5347 16.4707L19.3764 16.2128Z" fill="#4E43C1"/>
</g>
<defs>
<clipPath id="clip0">
<rect width="25.5" height="25.5" fill="white" transform="translate(2.25 3.20361)"/>
</clipPath>
</defs>
</svg>
