<svg width="380" height="410" viewBox="0 0 380 410" fill="none" xmlns="http://www.w3.org/2000/svg">
<rect width="380" height="410" fill="white"/>
<path d="M241.844 258.505H243.494V255.205H241.844V258.505ZM233.467 256.855V255.205H231.817V256.855H233.467ZM240.448 266.184H242.098V262.884H240.448V266.184ZM233.467 272.212H231.817V273.862H233.467V272.212ZM241.844 273.862H243.494V270.562H241.844V273.862ZM241.844 255.205H233.467V258.505H241.844V255.205ZM231.817 256.855V264.534H235.117V256.855H231.817ZM233.467 266.184H240.448V262.884H233.467V266.184ZM231.817 264.534V272.212H235.117V264.534H231.817ZM233.467 273.862H241.844V270.562H233.467V273.862Z" fill="black"/>
<path d="M323 258.109H324.65V254.809H323V258.109ZM314.624 256.459V254.809H312.974V256.459H314.624ZM321.604 265.787H323.254V262.487H321.604V265.787ZM314.624 271.816H312.974V273.466H314.624V271.816ZM323 273.466H324.65V270.166H323V273.466ZM323 254.809H314.624V258.109H323V254.809ZM312.974 256.459V264.137H316.274V256.459H312.974ZM314.624 265.787H321.604V262.487H314.624V265.787ZM312.974 264.137V271.816H316.274V264.137H312.974ZM314.624 273.466H323V270.166H314.624V273.466Z" fill="black"/>
<path d="M212.929 255.452C212.605 254.6 211.653 254.172 210.801 254.495C209.949 254.818 209.52 255.771 209.843 256.623L212.929 255.452ZM218.212 274.03L216.67 274.615L219.771 274.572L218.212 274.03ZM226.03 256.58C226.329 255.719 225.874 254.779 225.013 254.479C224.153 254.18 223.212 254.635 222.913 255.495L226.03 256.58ZM209.843 256.623L216.67 274.615L219.755 273.444L212.929 255.452L209.843 256.623ZM219.771 274.572L226.03 256.58L222.913 255.495L216.654 273.488L219.771 274.572Z" fill="black"/>
<path d="M273.09 266.581H281.467" stroke="black" stroke-width="3.3"/>
<path d="M283.063 273.039C283.419 273.878 284.388 274.269 285.226 273.913C286.065 273.556 286.456 272.587 286.1 271.749L283.063 273.039ZM277.63 256.038L279.148 255.392L276.098 255.425L277.63 256.038ZM269.555 271.781C269.217 272.627 269.628 273.588 270.474 273.926C271.32 274.264 272.281 273.853 272.619 273.007L269.555 271.781ZM286.1 271.749L279.148 255.392L276.111 256.683L283.063 273.039L286.1 271.749ZM276.098 255.425L269.555 271.781L272.619 273.007L279.162 256.65L276.098 255.425Z" fill="black"/>
<path d="M303.008 259.028C303.806 259.468 304.809 259.178 305.249 258.379C305.689 257.581 305.398 256.578 304.6 256.138L303.008 259.028ZM303.804 271.195L304.6 272.64L305.454 272.17V271.195H303.804ZM303.804 264.835H305.454V263.185H303.804V264.835ZM299.267 263.185C298.355 263.185 297.617 263.924 297.617 264.835C297.617 265.747 298.355 266.485 299.267 266.485V263.185ZM304.6 256.138C301.94 254.673 298.521 254.325 295.679 255.569C292.702 256.871 290.636 259.793 290.636 264.215L293.936 264.215C293.936 260.957 295.356 259.312 297.002 258.592C298.781 257.813 301.121 257.989 303.008 259.028L304.6 256.138ZM290.636 264.215C290.636 268.619 292.668 271.618 295.605 273.024C298.435 274.379 301.877 274.14 304.6 272.64L303.008 269.75C301.124 270.787 298.807 270.898 297.03 270.048C295.36 269.248 293.936 267.489 293.936 264.215L290.636 264.215ZM305.454 271.195V264.835H302.154V271.195H305.454ZM303.804 263.185H299.267V266.485H303.804V263.185Z" fill="black"/>
<path d="M252.277 274.03V265.625M257.366 265.625C257.366 265.625 262.091 265.625 262.091 260.778C262.091 257.391 258.456 256.855 258.456 256.855H252.277V265.625M257.366 265.625C257.366 265.625 262.091 270.948 262.091 274.03M257.366 265.625H252.277" stroke="black" stroke-width="3.3"/>
<path d="M204.118 274.615C204.442 275.467 205.394 275.896 206.246 275.573C207.098 275.249 207.527 274.297 207.204 273.445L204.118 274.615ZM196.665 250.313L198.208 249.728L195.122 249.728L196.665 250.313ZM186.126 273.445C185.803 274.297 186.232 275.249 187.084 275.573C187.936 275.896 188.889 275.467 189.212 274.615L186.126 273.445ZM207.204 273.445L198.208 249.728L195.122 250.898L204.118 274.615L207.204 273.445ZM195.122 249.728L186.126 273.445L189.212 274.615L198.208 250.898L195.122 249.728Z" fill="black"/>
<path d="M166.936 256.446L168.284 255.495C167.869 254.907 167.122 254.656 166.437 254.874C165.752 255.091 165.286 255.728 165.286 256.446L166.936 256.446ZM178.488 272.803L177.14 273.755C177.555 274.342 178.302 274.593 178.987 274.376C179.672 274.158 180.138 273.522 180.138 272.803L178.488 272.803ZM165.286 256.446L165.286 273.991L168.586 273.991L168.586 256.446L165.286 256.446ZM165.589 257.398L177.14 273.755L179.836 271.851L168.284 255.495L165.589 257.398ZM180.138 272.803L180.138 255.22L176.838 255.22L176.838 272.803L180.138 272.803Z" fill="black"/>
<path d="M155.774 255.22L155.774 274.03" stroke="black" stroke-width="3.3"/>
<path d="M137.543 256.857L137.503 258.507L137.543 256.857ZM137.543 272.392L137.583 274.042L137.543 272.392ZM144.325 264.625L142.675 264.625L144.325 264.625ZM137.583 255.208C132.3 255.08 128.772 259.842 128.772 264.625L132.072 264.625C132.072 261.193 134.54 258.435 137.503 258.507L137.583 255.208ZM128.772 264.625C128.772 269.408 132.3 274.169 137.583 274.042L137.503 270.743C134.54 270.814 132.072 268.057 132.072 264.625L128.772 264.625ZM137.583 274.042C142.743 273.917 145.975 269.292 145.975 264.625L142.675 264.625C142.675 267.997 140.413 270.672 137.503 270.743L137.583 274.042ZM145.975 264.625C145.975 259.958 142.743 255.332 137.583 255.208L137.503 258.507C140.413 258.577 142.675 261.252 142.675 264.625L145.975 264.625Z" fill="black"/>
<path d="M120.698 259.425C121.496 259.865 122.499 259.574 122.939 258.776C123.379 257.978 123.088 256.974 122.29 256.534L120.698 259.425ZM122.29 273.037C123.088 272.597 123.379 271.593 122.939 270.795C122.499 269.997 121.496 269.707 120.698 270.146L122.29 273.037ZM122.29 256.534C119.63 255.069 116.211 254.722 113.369 255.965C110.392 257.267 108.326 260.19 108.326 264.611L111.626 264.611C111.626 261.354 113.046 259.708 114.691 258.988C116.471 258.21 118.811 258.386 120.698 259.425L122.29 256.534ZM108.326 264.611C108.326 269.015 110.358 272.015 113.295 273.421C116.125 274.775 119.567 274.537 122.29 273.037L120.698 270.146C118.814 271.184 116.497 271.295 114.72 270.444C113.05 269.645 111.626 267.885 111.626 264.611L108.326 264.611Z" fill="black"/>
<path d="M95.0263 256.855L95.0263 274.03M95.0263 256.855L87.895 256.855M95.0263 256.855L102.554 256.855" stroke="black" stroke-width="3.3"/>
<path d="M79.7168 255.22L79.7168 274.03" stroke="black" stroke-width="3.3"/>
<path d="M64.7255 262.07C64.7255 262.07 68.2157 260.674 68.2157 256.835C68.2157 253.345 64.3765 251.949 64.3765 251.949H56V262.07M64.7255 262.07C64.7255 262.07 68.5647 263.117 68.5647 267.655C68.5647 271.843 65.0745 272.89 65.0745 272.89H56V262.07M64.7255 262.07H56" stroke="black" stroke-width="3.3"/>
<path d="M159.452 167.459C159.452 165.25 157.661 163.459 155.452 163.459C153.243 163.459 151.452 165.25 151.452 167.459H159.452ZM155.452 218.067H151.452V220.362L153.433 221.52L155.452 218.067ZM178.138 231.329L176.119 234.783L178.123 235.954L180.134 234.796L178.138 231.329ZM201.173 218.067L203.169 221.533L205.173 220.379V218.067H201.173ZM223.86 153.149L227.86 153.149L227.86 150.854L225.879 149.696L223.86 153.149ZM201.173 139.886L203.192 136.433L201.189 135.262L199.178 136.42L201.173 139.886ZM178.138 153.149L176.142 149.682L174.138 150.836L174.138 153.149L178.138 153.149ZM219.86 203.757C219.86 205.966 221.651 207.757 223.86 207.757C226.069 207.757 227.86 205.966 227.86 203.757H219.86ZM153.433 221.52L176.119 234.783L180.157 227.876L157.471 214.613L153.433 221.52ZM180.134 234.796L203.169 221.533L199.178 214.6L176.142 227.863L180.134 234.796ZM205.173 218.067V191.89H197.173V218.067H205.173ZM203.089 188.379L180.054 175.814L176.223 182.837L199.258 195.402L203.089 188.379ZM151.452 167.459V191.89H159.452V167.459H151.452ZM151.452 191.89V218.067H159.452V191.89H151.452ZM176.2 175.826L153.514 188.391L157.39 195.389L180.076 182.825L176.2 175.826ZM225.879 149.696L203.192 136.433L199.155 143.339L221.841 156.602L225.879 149.696ZM199.178 136.42L176.142 149.682L180.134 156.615L203.169 143.353L199.178 136.42ZM174.138 153.149L174.138 179.325L182.138 179.325L182.138 153.149L174.138 153.149ZM227.86 203.757V179.325H219.86V203.757H227.86ZM227.86 179.325L227.86 153.149L219.86 153.149L219.86 179.325L227.86 179.325ZM203.111 195.389L225.798 182.825L221.922 175.826L199.235 188.391L203.111 195.389Z" fill="black"/>
<circle cx="223.86" cy="203.059" r="5.23529" fill="black"/>
<circle cx="200.825" cy="191.192" r="5.23529" fill="black"/>
<circle cx="178.487" cy="179.325" r="5.23529" fill="black"/>
<circle cx="155.235" cy="217.928" r="5.23529" fill="black"/>
<circle cx="178.487" cy="230.98" r="5.23529" fill="black"/>
<circle cx="200.825" cy="140.235" r="5.23529" fill="black"/>
<circle cx="223.86" cy="153.498" r="5.23529" fill="black"/>
<circle cx="155.452" cy="168.157" r="5.23529" fill="black"/>
</svg>
