<svg width="156" height="22" viewBox="0 0 156 22" fill="none" xmlns="http://www.w3.org/2000/svg">
<path d="M21.6671 13.6609C20.1979 19.5537 14.2295 23.14 8.33599 21.6705C2.44492 20.2013 -1.14136 14.2326 0.328488 8.34011C1.79696 2.44662 7.76538 -1.13999 13.6571 0.329167C19.5503 1.79833 23.1362 7.76777 21.6671 13.6609Z" fill="#F7931A"/>
<path d="M15.8484 9.43294C16.0674 7.96928 14.9529 7.18245 13.4291 6.65755L13.9234 4.67484L12.7166 4.37406L12.2353 6.30452C11.918 6.22546 11.5922 6.15087 11.2684 6.07697L11.753 4.13378L10.5468 3.83301L10.0522 5.81503C9.78958 5.75522 9.53177 5.6961 9.28152 5.63388L9.2829 5.62769L7.6185 5.2121L7.29744 6.50114C7.29744 6.50114 8.19289 6.70636 8.17399 6.71908C8.66279 6.8411 8.75113 7.16456 8.73635 7.421L8.17329 9.67974C8.20698 9.68833 8.25064 9.70071 8.29877 9.71996C8.25855 9.70999 8.21558 9.69899 8.17124 9.68833L7.382 12.8525C7.32218 13.001 7.1706 13.2237 6.82892 13.1392C6.84095 13.1567 5.95169 12.9202 5.95169 12.9202L5.35254 14.3017L6.9231 14.6932C7.21528 14.7665 7.50162 14.8431 7.78349 14.9153L7.28404 16.9207L8.48954 17.2215L8.98419 15.2374C9.31349 15.3268 9.63318 15.4093 9.94598 15.4869L9.45306 17.4617L10.6599 17.7625L11.1594 15.7609C13.2174 16.1504 14.7649 15.9933 15.4163 14.1319C15.9412 12.6332 15.3902 11.7687 14.3074 11.2049C15.0959 11.0231 15.6899 10.5044 15.8484 9.43294ZM13.0909 13.2997C12.7179 14.7984 10.1945 13.9882 9.37639 13.7851L10.0391 11.1283C10.8572 11.3325 13.4807 11.7367 13.0909 13.2997ZM13.4642 9.41127C13.1239 10.7746 11.0236 10.0819 10.3423 9.91211L10.9432 7.50247C11.6245 7.67228 13.8186 7.98921 13.4642 9.41127Z" fill="white"/>
<path d="M32.2694 6.66248C33.0276 6.66248 33.6831 6.79675 34.236 7.06528C34.7889 7.33382 35.247 7.69714 35.6103 8.15523C35.9736 8.61332 36.2421 9.15039 36.4159 9.76645C36.5896 10.3825 36.6765 11.0459 36.6765 11.7568C36.6765 12.8467 36.4712 13.8814 36.0605 14.8608C35.6656 15.8243 35.1206 16.6694 34.4256 17.3961C33.7305 18.1069 32.9091 18.6756 31.9613 19.1021C31.0136 19.5128 29.9868 19.7181 28.8811 19.7181C28.7389 19.7181 28.4861 19.7102 28.1228 19.6944C27.7753 19.6944 27.3725 19.6628 26.9144 19.5996C26.4563 19.5365 25.9666 19.4417 25.4454 19.3153C24.9399 19.1889 24.4581 19.0152 24 18.794L28.0991 1.56818L31.7718 0.999512L30.3027 7.11267C30.6186 6.97051 30.9346 6.85993 31.2505 6.78095C31.5664 6.70197 31.906 6.66248 32.2694 6.66248ZM29.1891 16.8037C29.742 16.8037 30.2632 16.6694 30.7529 16.4009C31.2426 16.1324 31.6612 15.7769 32.0087 15.3346C32.372 14.8765 32.6564 14.3632 32.8617 13.7945C33.0671 13.2258 33.1697 12.6335 33.1697 12.0174C33.1697 11.2592 33.0434 10.6668 32.7906 10.2403C32.5379 9.81384 32.0719 9.60059 31.3927 9.60059C31.1715 9.60059 30.8793 9.64008 30.516 9.71906C30.1685 9.79804 29.8525 9.9639 29.5682 10.2166L28.0044 16.7089C28.0991 16.7247 28.1781 16.7405 28.2413 16.7563C28.3203 16.7721 28.3993 16.7879 28.4782 16.8037C28.5572 16.8037 28.652 16.8037 28.7626 16.8037C28.8732 16.8037 29.0153 16.8037 29.1891 16.8037Z" fill="#4D4D4D"/>
<path d="M41.1357 19.3864H37.6289L40.5907 6.92312H44.1212L41.1357 19.3864ZM42.8417 5.40667C42.352 5.40667 41.9097 5.26451 41.5148 4.98018C41.1199 4.68005 40.9224 4.22985 40.9224 3.62959C40.9224 3.29787 40.9856 2.98984 41.112 2.70551C41.2542 2.40538 41.4358 2.15264 41.657 1.94729C41.8781 1.72614 42.1309 1.55238 42.4152 1.42601C42.7153 1.29964 43.0313 1.23646 43.363 1.23646C43.8527 1.23646 44.295 1.38652 44.6899 1.68665C45.0848 1.97098 45.2822 2.41328 45.2822 3.01354C45.2822 3.34526 45.2111 3.66119 45.069 3.96132C44.9426 4.24565 44.7688 4.49839 44.5477 4.71954C44.3265 4.92489 44.0659 5.09075 43.7658 5.21712C43.4814 5.34349 43.1734 5.40667 42.8417 5.40667Z" fill="#4D4D4D"/>
<path d="M47.7276 3.81915L51.4002 3.25048L50.4998 6.92312H54.4331L53.7223 9.81384H49.8127L48.7701 14.1736C48.6753 14.5369 48.6122 14.8765 48.5806 15.1925C48.5648 15.5084 48.6043 15.7848 48.699 16.0218C48.8096 16.2429 48.9913 16.4167 49.244 16.5431C49.4967 16.6694 49.8443 16.7326 50.2866 16.7326C50.6657 16.7326 51.029 16.701 51.3765 16.6378C51.7398 16.5589 52.1031 16.4562 52.4664 16.3298L52.7271 19.031C52.2532 19.2047 51.7398 19.3548 51.187 19.4812C50.6341 19.6075 49.9785 19.6707 49.2203 19.6707C48.1304 19.6707 47.2853 19.5128 46.685 19.1968C46.0848 18.8651 45.6583 18.4228 45.4055 17.8699C45.1528 17.3013 45.0422 16.6536 45.0738 15.927C45.1054 15.2004 45.216 14.4343 45.4055 13.6286L47.7276 3.81915Z" fill="#4D4D4D"/>
<path d="M54.5603 14.4106C54.5603 13.3364 54.734 12.3254 55.0815 11.3777C55.4291 10.4299 55.9266 9.60059 56.5743 8.88976C57.2219 8.17892 58.0039 7.61816 58.92 7.20745C59.852 6.79675 60.8867 6.5914 62.024 6.5914C62.7348 6.5914 63.3667 6.66248 63.9196 6.80465C64.4882 6.93102 65.0016 7.10478 65.4597 7.32592L64.2513 10.0745C63.9354 9.94811 63.6036 9.83753 63.2561 9.74276C62.9244 9.63218 62.5137 9.57689 62.024 9.57689C60.8393 9.57689 59.9073 9.9797 59.2281 10.7853C58.5488 11.5751 58.2092 12.6572 58.2092 14.0314C58.2092 14.8371 58.383 15.4926 58.7305 15.9981C59.078 16.4878 59.7177 16.7326 60.6497 16.7326C61.1078 16.7326 61.5501 16.6852 61.9766 16.5904C62.4031 16.4957 62.7822 16.3772 63.1139 16.235L63.3746 19.0547C62.9323 19.2284 62.4426 19.3785 61.9055 19.5049C61.3843 19.647 60.7445 19.7181 59.9863 19.7181C59.0069 19.7181 58.1776 19.5759 57.4984 19.2916C56.8191 19.0073 56.2584 18.6282 55.8161 18.1543C55.3738 17.6646 55.0499 17.0959 54.8446 16.4483C54.655 15.8006 54.5603 15.1214 54.5603 14.4106Z" fill="#4D4D4D"/>
<path d="M70.2715 19.7181C69.4343 19.7181 68.7077 19.5917 68.0916 19.339C67.4756 19.0863 66.9622 18.7308 66.5515 18.2727C66.1566 17.8147 65.8565 17.2776 65.6511 16.6615C65.4458 16.0297 65.3431 15.3346 65.3431 14.5764C65.3431 13.6286 65.4931 12.6809 65.7933 11.7331C66.1092 10.7853 66.5673 9.93231 67.1675 9.17409C67.7678 8.41587 68.5023 7.79981 69.3711 7.32592C70.2399 6.83624 71.2351 6.5914 72.3566 6.5914C73.178 6.5914 73.8968 6.71777 74.5128 6.97051C75.1447 7.22325 75.6581 7.57866 76.053 8.03676C76.4637 8.49485 76.7717 9.03982 76.977 9.67167C77.1824 10.2877 77.2851 10.9749 77.2851 11.7331C77.2851 12.6809 77.135 13.6286 76.8349 14.5764C76.5347 15.5242 76.0925 16.3772 75.508 17.1354C74.9235 17.8936 74.189 18.5176 73.3044 19.0073C72.4356 19.4812 71.4246 19.7181 70.2715 19.7181ZM72.0249 9.57689C71.5036 9.57689 71.0455 9.72696 70.6506 10.0271C70.2557 10.3272 69.924 10.7063 69.6555 11.1644C69.3869 11.6225 69.1816 12.128 69.0394 12.6809C68.913 13.2179 68.8498 13.7313 68.8498 14.221C68.8498 15.0266 68.9762 15.6506 69.229 16.0929C69.4817 16.5194 69.9398 16.7326 70.6032 16.7326C71.1245 16.7326 71.5826 16.5825 71.9775 16.2824C72.3724 15.9823 72.7041 15.6032 72.9727 15.1451C73.2412 14.687 73.4387 14.1894 73.565 13.6523C73.7072 13.0995 73.7783 12.5782 73.7783 12.0885C73.7783 11.2829 73.6519 10.6668 73.3992 10.2403C73.1464 9.79804 72.6884 9.57689 72.0249 9.57689Z" fill="#4D4D4D"/>
<path d="M81.7448 19.3864H78.238L81.1998 6.92312H84.7303L81.7448 19.3864ZM83.4508 5.40667C82.9611 5.40667 82.5188 5.26451 82.1239 4.98018C81.729 4.68005 81.5316 4.22985 81.5316 3.62959C81.5316 3.29787 81.5947 2.98984 81.7211 2.70551C81.8633 2.40538 82.0449 2.15264 82.2661 1.94729C82.4872 1.72614 82.74 1.55238 83.0243 1.42601C83.3244 1.29964 83.6404 1.23646 83.9721 1.23646C84.4618 1.23646 84.9041 1.38652 85.299 1.68665C85.6939 1.97098 85.8913 2.41328 85.8913 3.01354C85.8913 3.34526 85.8202 3.66119 85.6781 3.96132C85.5517 4.24565 85.378 4.49839 85.1568 4.71954C84.9357 4.92489 84.675 5.09075 84.3749 5.21712C84.0906 5.34349 83.7825 5.40667 83.4508 5.40667Z" fill="#4D4D4D"/>
<path d="M87.8154 7.49178C88.0839 7.4128 88.3762 7.32592 88.6921 7.23115C89.0238 7.12057 89.3871 7.02579 89.782 6.94681C90.1927 6.85204 90.6429 6.78095 91.1326 6.73356C91.6381 6.67038 92.2068 6.63878 92.8386 6.63878C94.7026 6.63878 95.9821 7.17586 96.6771 8.25001C97.3721 9.32415 97.4906 10.7932 97.0325 12.6572L95.4213 19.3864H91.8908L93.4547 12.7993C93.5494 12.3886 93.6205 11.9937 93.6679 11.6146C93.7311 11.2197 93.7311 10.8801 93.6679 10.5958C93.6047 10.2956 93.4547 10.0587 93.2177 9.88492C92.9966 9.69537 92.6491 9.60059 92.1752 9.60059C91.7171 9.60059 91.2511 9.64798 90.7772 9.74276L88.4788 19.3864H84.9484L87.8154 7.49178Z" fill="#4D4D4D"/>
<path d="M110.288 2.57959C110.92 2.57959 111.504 2.68227 112.041 2.88762C112.594 3.09297 113.068 3.3773 113.463 3.74062C113.874 4.08814 114.189 4.49884 114.411 4.97273C114.632 5.44662 114.742 5.9521 114.742 6.48917C114.742 7.08943 114.679 7.6265 114.553 8.10039C114.426 8.57428 114.213 9.03237 113.913 9.47467C113.613 9.91697 113.21 10.3672 112.705 10.8253C112.215 11.2833 111.607 11.7967 110.88 12.3654C110.454 12.6971 110.019 13.013 109.577 13.3132C109.15 13.6133 108.724 13.9213 108.297 14.2372C107.887 14.5532 107.484 14.8928 107.089 15.2561C106.694 15.6036 106.323 15.9985 105.975 16.4408H113.036L112.325 19.3789H101.402C101.545 18.3838 101.789 17.5229 102.137 16.7962C102.484 16.0696 102.911 15.4141 103.416 14.8296C103.938 14.2294 104.522 13.6765 105.17 13.171C105.817 12.6497 106.52 12.0969 107.279 11.5124C107.989 10.9595 108.59 10.4856 109.079 10.0907C109.585 9.68002 109.988 9.30881 110.288 8.97709C110.604 8.62957 110.833 8.30574 110.975 8.00561C111.117 7.70548 111.188 7.38956 111.188 7.05784C111.188 6.64713 111.038 6.30751 110.738 6.03898C110.454 5.75464 110.082 5.61248 109.624 5.61248C108.977 5.61248 108.345 5.75464 107.729 6.03898C107.113 6.30751 106.441 6.71822 105.715 7.27109L104.506 4.6884C105.454 3.91438 106.402 3.3694 107.35 3.05348C108.297 2.73755 109.277 2.57959 110.288 2.57959Z" fill="#F7931A"/>
<path d="M120.509 16.6778C121.014 16.6778 121.48 16.5277 121.907 16.2276C122.333 15.9275 122.704 15.5325 123.02 15.0429C123.352 14.5532 123.636 14.0003 123.873 13.3842C124.126 12.7524 124.331 12.1126 124.489 11.465C124.647 10.8174 124.766 10.1855 124.845 9.56945C124.924 8.95339 124.963 8.40842 124.963 7.93453C124.963 7.12892 124.837 6.53656 124.584 6.15745C124.347 5.77834 123.976 5.58878 123.47 5.58878C122.949 5.58878 122.475 5.73885 122.049 6.03898C121.622 6.33911 121.243 6.73401 120.911 7.2237C120.58 7.71338 120.287 8.27415 120.035 8.906C119.798 9.53785 119.6 10.1776 119.442 10.8253C119.284 11.4729 119.166 12.1048 119.087 12.7208C119.008 13.3369 118.968 13.8818 118.968 14.3557C118.968 15.1771 119.095 15.7695 119.348 16.1328C119.6 16.4961 119.987 16.6778 120.509 16.6778ZM119.964 19.7107C119.19 19.7107 118.534 19.5764 117.997 19.3079C117.46 19.0235 117.018 18.6523 116.67 18.1942C116.338 17.7361 116.094 17.2227 115.936 16.6541C115.793 16.0696 115.722 15.4694 115.722 14.8533C115.722 13.0525 115.92 11.4018 116.315 9.90117C116.725 8.40052 117.286 7.10523 117.997 6.01528C118.724 4.92534 119.592 4.08024 120.603 3.47998C121.614 2.87972 122.736 2.57959 123.968 2.57959C124.742 2.57959 125.398 2.72176 125.935 3.00609C126.472 3.27463 126.906 3.63794 127.238 4.09603C127.585 4.55413 127.83 5.0754 127.972 5.65987C128.13 6.22853 128.209 6.82089 128.209 7.43695C128.209 9.23772 128.004 10.8884 127.593 12.3891C127.198 13.8897 126.638 15.185 125.911 16.275C125.2 17.3649 124.339 18.21 123.328 18.8103C122.317 19.4105 121.196 19.7107 119.964 19.7107Z" fill="#F7931A"/>
<path d="M137.222 2.57959C137.854 2.57959 138.438 2.68227 138.975 2.88762C139.528 3.09297 140.002 3.3773 140.397 3.74062C140.807 4.08814 141.123 4.49884 141.344 4.97273C141.566 5.44662 141.676 5.9521 141.676 6.48917C141.676 7.08943 141.613 7.6265 141.487 8.10039C141.36 8.57428 141.147 9.03237 140.847 9.47467C140.547 9.91697 140.144 10.3672 139.638 10.8253C139.149 11.2833 138.541 11.7967 137.814 12.3654C137.388 12.6971 136.953 13.013 136.511 13.3132C136.084 13.6133 135.658 13.9213 135.231 14.2372C134.821 14.5532 134.418 14.8928 134.023 15.2561C133.628 15.6036 133.257 15.9985 132.909 16.4408H139.97L139.259 19.3789H128.336C128.478 18.3838 128.723 17.5229 129.071 16.7962C129.418 16.0696 129.845 15.4141 130.35 14.8296C130.872 14.2294 131.456 13.6765 132.104 13.171C132.751 12.6497 133.454 12.0969 134.212 11.5124C134.923 10.9595 135.524 10.4856 136.013 10.0907C136.519 9.68002 136.922 9.30881 137.222 8.97709C137.538 8.62957 137.767 8.30574 137.909 8.00561C138.051 7.70548 138.122 7.38956 138.122 7.05784C138.122 6.64713 137.972 6.30751 137.672 6.03898C137.388 5.75464 137.016 5.61248 136.558 5.61248C135.911 5.61248 135.279 5.75464 134.663 6.03898C134.047 6.30751 133.375 6.71822 132.649 7.27109L131.44 4.6884C132.388 3.91438 133.336 3.3694 134.284 3.05348C135.231 2.73755 136.211 2.57959 137.222 2.57959Z" fill="#F7931A"/>
<path d="M150.689 2.57959C151.32 2.57959 151.905 2.68227 152.442 2.88762C152.995 3.09297 153.469 3.3773 153.864 3.74062C154.274 4.08814 154.59 4.49884 154.811 4.97273C155.033 5.44662 155.143 5.9521 155.143 6.48917C155.143 7.08943 155.08 7.6265 154.954 8.10039C154.827 8.57428 154.614 9.03237 154.314 9.47467C154.014 9.91697 153.611 10.3672 153.105 10.8253C152.616 11.2833 152.008 11.7967 151.281 12.3654C150.854 12.6971 150.42 13.013 149.978 13.3132C149.551 13.6133 149.125 13.9213 148.698 14.2372C148.288 14.5532 147.885 14.8928 147.49 15.2561C147.095 15.6036 146.724 15.9985 146.376 16.4408H153.437L152.726 19.3789H141.803C141.945 18.3838 142.19 17.5229 142.538 16.7962C142.885 16.0696 143.312 15.4141 143.817 14.8296C144.339 14.2294 144.923 13.6765 145.571 13.171C146.218 12.6497 146.921 12.0969 147.679 11.5124C148.39 10.9595 148.991 10.4856 149.48 10.0907C149.986 9.68002 150.388 9.30881 150.689 8.97709C151.005 8.62957 151.234 8.30574 151.376 8.00561C151.518 7.70548 151.589 7.38956 151.589 7.05784C151.589 6.64713 151.439 6.30751 151.139 6.03898C150.854 5.75464 150.483 5.61248 150.025 5.61248C149.378 5.61248 148.746 5.75464 148.13 6.03898C147.514 6.30751 146.842 6.71822 146.116 7.27109L144.907 4.6884C145.855 3.91438 146.803 3.3694 147.75 3.05348C148.698 2.73755 149.678 2.57959 150.689 2.57959Z" fill="#F7931A"/>
</svg>
