<svg width="380" height="410" viewBox="0 0 380 410" fill="none" xmlns="http://www.w3.org/2000/svg">
<rect width="380" height="410" rx="8" fill="white"/>
<path fill-rule="evenodd" clip-rule="evenodd" d="M190.123 129C190.654 129.001 191.185 129.007 191.716 129.02C192.771 129.043 193.825 129.088 194.877 129.155C197.75 129.336 200.612 129.681 203.445 130.188C206.42 130.72 209.364 131.432 212.255 132.316C215.179 133.212 218.049 134.286 220.843 135.53C224.692 137.242 228.397 139.279 231.909 141.605C235.493 143.981 238.876 146.66 242.01 149.604C245.168 152.572 248.076 155.807 250.687 159.267C253.287 162.71 255.595 166.374 257.575 170.208C259.237 173.429 260.669 176.769 261.852 180.194C263.016 183.56 263.94 187.008 264.616 190.504C265.54 195.278 266 200.138 266 205C266 208.472 265.765 211.946 265.294 215.385C264.776 219.172 263.971 222.918 262.885 226.583C261.754 230.403 260.32 234.134 258.6 237.729C256.652 241.799 254.341 245.694 251.704 249.355C249.037 253.057 246.037 256.519 242.752 259.688C239.33 262.991 235.6 265.973 231.622 268.584C227.713 271.15 223.565 273.355 219.25 275.157C214.502 277.142 209.549 278.638 204.496 279.616C199.763 280.531 194.942 280.991 190.123 281C185.3 281.007 180.475 280.563 175.737 279.661C170.679 278.699 165.719 277.217 160.962 275.247C156.641 273.457 152.487 271.264 148.568 268.709C144.584 266.111 140.844 263.138 137.411 259.847C134.118 256.687 131.108 253.235 128.429 249.54C125.782 245.887 123.458 242.001 121.499 237.937C119.769 234.348 118.323 230.623 117.18 226.806C116.085 223.148 115.268 219.405 114.738 215.622C114.245 212.105 114 208.553 114 205C114 200.218 114.445 195.435 115.339 190.737C116.004 187.238 116.918 183.786 118.071 180.416C119.245 176.985 120.666 173.64 122.32 170.414C124.288 166.573 126.585 162.9 129.175 159.448C131.799 155.952 134.724 152.68 137.906 149.682C141.036 146.734 144.414 144.05 147.995 141.669C151.503 139.335 155.205 137.296 159.05 135.577C161.842 134.329 164.711 133.25 167.633 132.35C170.521 131.461 173.463 130.746 176.436 130.209C179.268 129.698 182.13 129.349 185.002 129.162C186.053 129.094 187.107 129.047 188.161 129.023C188.692 129.01 189.223 129.003 189.754 129.001C189.876 129 190 129 190.123 129ZM189.892 138.697C188.471 138.701 187.049 138.746 185.63 138.839C183.125 139.002 180.63 139.306 178.16 139.751C175.568 140.22 173.004 140.843 170.487 141.618C167.939 142.401 165.441 143.341 163.008 144.429C159.5 145.996 156.132 147.871 152.949 150.021C150.059 151.975 147.323 154.156 144.773 156.537C141.886 159.232 139.238 162.185 136.871 165.349C134.796 168.123 132.937 171.06 131.319 174.124C129.75 177.095 128.409 180.187 127.312 183.363C126.343 186.165 125.565 189.033 124.983 191.942C124.131 196.202 123.704 200.547 123.697 204.892C123.692 208.031 123.906 211.169 124.341 214.278C124.831 217.777 125.603 221.235 126.647 224.609C127.604 227.701 128.79 230.718 130.191 233.636C131.981 237.363 134.122 240.922 136.574 244.251C138.838 247.325 141.367 250.205 144.123 252.848C147.12 255.723 150.386 258.318 153.865 260.586C157.282 262.815 160.906 264.727 164.674 266.288C168.755 267.979 173.008 269.256 177.346 270.095C181.548 270.909 185.828 271.309 190.108 271.303C194.315 271.296 198.522 270.895 202.653 270.095C207.058 269.244 211.373 267.941 215.512 266.21C219.336 264.612 223.01 262.651 226.469 260.366C229.879 258.115 233.08 255.547 236.02 252.709C238.84 249.99 241.42 247.02 243.719 243.847C246.088 240.581 248.159 237.098 249.895 233.454C251.332 230.44 252.539 227.319 253.501 224.123C254.49 220.836 255.221 217.472 255.687 214.071C256.109 210.995 256.312 207.89 256.302 204.786C256.296 202.662 256.189 200.538 255.981 198.425C255.759 196.181 255.424 193.948 254.976 191.739C254.351 188.667 253.507 185.642 252.452 182.693C251.377 179.689 250.084 176.763 248.587 173.947C246.866 170.712 244.876 167.62 242.646 164.712C240.383 161.762 237.874 159.001 235.152 156.469C232.454 153.955 229.547 151.667 226.469 149.632C223.402 147.607 220.168 145.837 216.808 144.348C214.371 143.267 211.868 142.335 209.318 141.558C206.798 140.79 204.232 140.176 201.637 139.716C199.128 139.271 196.595 138.972 194.052 138.819C192.667 138.735 191.28 138.697 189.892 138.697ZM202.369 186.573V196.191H194.9V223.426H185.232V196.191H177.63V186.573H202.369ZM161.945 186.622C167.833 186.622 172.838 191.677 172.838 197.565C172.838 200.069 172.459 202.374 171.037 204.191C173.539 206.202 175.207 209.294 175.207 212.631C175.207 218.471 170.252 223.426 164.412 223.426H145.003V186.622H161.945ZM236.375 218.027C233.039 221.363 228.433 223.426 223.347 223.426C213.177 223.426 204.92 215.171 204.92 205C204.92 194.829 213.177 186.573 223.347 186.573C228.433 186.573 233.039 188.637 236.375 191.973L229.467 198.879C227.9 197.312 225.737 196.342 223.347 196.342C218.568 196.342 214.689 200.222 214.689 205C214.689 209.778 218.568 213.657 223.347 213.657C225.737 213.657 227.9 212.688 229.467 211.121L236.375 218.027ZM162.399 215.477C164.166 215.477 165.589 214.054 165.589 212.288C165.589 210.52 164.068 209.098 162.399 209.098H154.671V215.477H162.399ZM160.03 201C161.797 201 163.221 199.577 163.221 197.81C163.221 196.044 161.797 194.621 160.03 194.621H154.671V201H160.03Z" fill="black"/>
</svg>
