<svg width="40" height="40" viewBox="0 0 40 40" fill="none" xmlns="http://www.w3.org/2000/svg">
<path fill-rule="evenodd" clip-rule="evenodd" d="M22.8643 14.1465V28.8132L20.8652 28.812L18.1976 34.1465L15.5319 28.812L6.86426 28.8132V14.1465H22.8643ZM12.9984 17.1622L12.8788 17.1767L12.7277 17.2075C11.9948 17.3599 11.4162 17.9227 11.2436 18.6512C10.9228 20.0209 11.1107 21.4606 11.7725 22.702L11.8172 22.7878C11.9819 23.0971 12.1731 23.3915 12.3887 23.6678L12.4488 23.7434C13.2886 24.8199 14.4811 25.5656 15.8166 25.8492L15.9343 25.8743C16.6707 26.0126 17.4206 25.7119 17.8574 25.1031L17.947 24.9777C18.1377 24.7127 18.1221 24.3516 17.9092 24.1041L16.8901 22.9136C16.6764 22.6625 16.3092 22.6096 16.0333 22.7903L15.2713 23.2852C14.7803 23.0946 14.35 22.7748 14.0259 22.3596L13.9923 22.3164C13.8828 22.176 13.7856 22.0265 13.702 21.8694L13.6762 21.8211C13.4286 21.3562 13.3114 20.833 13.3371 20.3069L14.0992 19.812C14.3764 19.6335 14.4775 19.2766 14.3351 18.9792L13.6614 17.5665C13.5219 17.2713 13.1984 17.1102 12.8788 17.1767L12.9984 17.1622Z" fill="#77B1F4"/>
<path fill-rule="evenodd" clip-rule="evenodd" d="M17.5312 6.14648V20.8132L26.1989 20.812L28.8646 26.1465L31.5322 20.812L33.5312 20.8132V6.14648H17.5312Z" fill="#877CFF"/>
<path d="M22.8685 14.1436H17.5352V20.8102H22.8685V14.1436Z" fill="#4E43C1"/>
</svg>
