<svg width="40" height="40" viewBox="0 0 40 40" fill="none" xmlns="http://www.w3.org/2000/svg">
<path d="M19.6609 8C26.1778 8 31.4813 13.1949 31.6562 19.6695L31.6607 19.9998H28.1695C28.1695 15.3006 24.3601 11.4912 19.6609 11.4912C15.0557 11.4912 11.305 15.1498 11.1569 19.7189L11.1523 19.9998H7.66113C7.66113 13.3725 13.0336 8 19.6609 8Z" fill="#77B1F4"/>
<path d="M19.6609 31.9995C26.1778 31.9995 31.4813 26.8046 31.6562 20.33L31.6607 19.9997H28.1695C28.1695 24.6989 24.3601 28.5083 19.6609 28.5083C15.0557 28.5083 11.305 24.8498 11.1569 20.2806L11.1523 19.9997H7.66113C7.66113 26.627 13.0336 31.9995 19.6609 31.9995Z" fill="#877CFF"/>
<path d="M19.6601 23.7143C21.8401 23.7143 23.6074 21.9471 23.6074 19.7671C23.6074 17.5871 21.8401 15.8198 19.6601 15.8198C17.4801 15.8198 15.7129 17.5871 15.7129 19.7671C15.7129 21.9471 17.4801 23.7143 19.6601 23.7143Z" fill="#877CFF"/>
<path fill-rule="evenodd" clip-rule="evenodd" d="M29.8449 12.1055L24.7178 20H34.972L29.8449 12.1055Z" fill="#877CFF"/>
<path fill-rule="evenodd" clip-rule="evenodd" d="M9.4064 27.894L4.2793 19.9995H14.5335L9.4064 27.894Z" fill="#77B1F4"/>
<path d="M31.6561 19.6693L31.6605 19.9996H28.1694C28.1694 18.6028 27.8328 17.2846 27.2363 16.1217L29.3323 12.895C30.735 14.8014 31.5877 17.1375 31.6561 19.6693Z" fill="#564BCA"/>
<path d="M11.1523 20L11.1569 20.2809C11.198 21.5493 11.5168 22.7476 12.0544 23.8169L9.95191 27.0534C8.5111 25.0735 7.66113 22.636 7.66113 20H11.1523Z" fill="#564BCA"/>
</svg>
