<svg width="26" height="26" viewBox="0 0 26 26" fill="none" xmlns="http://www.w3.org/2000/svg">
<path d="M12.9517 4C18.0153 4 22.1361 8.03643 22.2721 13.0672L22.2756 13.3238H19.5629C19.5629 9.67256 16.603 6.71263 12.9517 6.71263C9.37352 6.71263 6.45924 9.55535 6.3441 13.1056L6.34056 13.3238H3.62793C3.62793 8.17441 7.80234 4 12.9517 4Z" fill="#77B1F4"/>
<path d="M12.9517 22.6475C18.0153 22.6475 22.1361 18.611 22.2721 13.5803L22.2756 13.3236H19.5629C19.5629 16.9749 16.603 19.9348 12.9517 19.9348C9.37352 19.9348 6.45924 17.0921 6.3441 13.5419L6.34056 13.3236H3.62793C3.62793 18.473 7.80234 22.6475 12.9517 22.6475Z" fill="#877CFF"/>
<path d="M12.9508 16.2102C14.6447 16.2102 16.0178 14.837 16.0178 13.1432C16.0178 11.4493 14.6447 10.0762 12.9508 10.0762C11.2569 10.0762 9.88379 11.4493 9.88379 13.1432C9.88379 14.837 11.2569 16.2102 12.9508 16.2102Z" fill="#877CFF"/>
<path fill-rule="evenodd" clip-rule="evenodd" d="M20.8646 7.18994L16.8809 13.324H24.8484L20.8646 7.18994Z" fill="#877CFF"/>
<path fill-rule="evenodd" clip-rule="evenodd" d="M4.98375 19.4575L1 13.3235H8.9675L4.98375 19.4575Z" fill="#77B1F4"/>
<path d="M22.272 13.0673L22.2755 13.3239H19.5629C19.5629 12.2386 19.3013 11.2144 18.8379 10.3108L20.4665 7.80371C21.5564 9.28493 22.2189 11.1001 22.272 13.0673Z" fill="#564BCA"/>
<path d="M6.34056 13.3242L6.3441 13.5424C6.37606 14.528 6.62375 15.4591 7.04147 16.2899L5.40786 18.8047C4.28835 17.2663 3.62793 15.3724 3.62793 13.3242H6.34056Z" fill="#564BCA"/>
</svg>
