<svg width="26" height="26" viewBox="0 0 26 26" fill="none" xmlns="http://www.w3.org/2000/svg">
<path d="M9.04246 11.8325C10.8242 11.8325 12.2685 10.3881 12.2685 8.60642C12.2685 6.82472 10.8242 5.38037 9.04246 5.38037C7.26076 5.38037 5.81641 6.82472 5.81641 8.60642C5.81641 10.3881 7.26076 11.8325 9.04246 11.8325Z" fill="#77B1F4"/>
<path d="M16.1421 9.48531C17.9238 9.48531 19.3681 8.04096 19.3681 6.25926C19.3681 4.47756 17.9238 3.0332 16.1421 3.0332C14.3604 3.0332 12.916 4.47756 12.916 6.25926C12.916 8.04096 14.3604 9.48531 16.1421 9.48531Z" fill="#877CFF"/>
<path fill-rule="evenodd" clip-rule="evenodd" d="M9.25564 12.415C12.6922 12.415 15.4781 15.6307 15.4781 19.5975C15.4781 23.5643 3.0332 23.5643 3.0332 19.5975C3.0332 15.6307 5.81908 12.415 9.25564 12.415ZM9.25564 15.6485C8.05412 15.6485 7.08009 16.6225 7.08009 17.8241C7.08009 19.0256 8.05412 19.9996 9.25564 19.9996C10.4572 19.9996 11.4312 19.0256 11.4312 17.8241C11.4312 16.6225 10.4572 15.6485 9.25564 15.6485Z" fill="#77B1F4"/>
<path fill-rule="evenodd" clip-rule="evenodd" d="M22.3648 17.2503C22.3648 13.2836 19.5789 10.0679 16.1424 10.0679C12.7058 10.0679 9.91992 13.2836 9.91992 17.2503C9.91992 21.2171 22.3648 21.2171 22.3648 17.2503Z" fill="#877CFF"/>
<path fill-rule="evenodd" clip-rule="evenodd" d="M11.2598 12.8159C13.7129 13.7788 15.4778 16.4603 15.4778 19.6176C15.4778 19.8317 15.4415 20.0342 15.3729 20.2252C13.6819 20.1356 12.0679 19.7491 11.0407 19.0655C11.2872 18.7133 11.4309 18.2854 11.4309 17.824C11.4309 16.9036 10.8593 16.1167 10.0518 15.7988C10.2495 14.6934 10.6691 13.681 11.2536 12.8257L11.2598 12.8159Z" fill="#4E43C1"/>
</svg>
