<svg width="147" height="20" viewBox="0 0 147 20" fill="none" xmlns="http://www.w3.org/2000/svg">
<path fill-rule="evenodd" clip-rule="evenodd" d="M139.817 0.397581C138.204 1.13026 137.408 2.38232 137.296 4.36287C137.152 6.9023 137.727 7.8142 141.612 11.2085C143.489 12.8476 143.884 13.6272 143.416 14.7588C142.696 16.4955 139.613 15.7667 138.923 13.6968C138.823 13.3979 138.172 13.7623 136.427 15.095C134.621 16.4742 140.53 19.9821 143.352 19.206C148.537 17.7799 148.129 11.7622 142.548 7.32073C140.704 5.8539 140.211 4.91213 140.809 3.99999C141.321 3.21917 141.955 3.21522 142.872 3.9869L143.592 4.5922L144.669 3.49492L145.746 2.39763L145.25 1.71679C144.089 0.123814 141.698 -0.456797 139.817 0.397581ZM0 9.80437V19.4946L2.65373 19.3267C10.2809 18.8446 13.023 16.7665 13.8621 10.8328C14.875 3.67142 11.9001 0.470898 4.01145 0.234407L0 0.114187V9.80437ZM18.1725 0.373142C18.0426 0.583218 12.8366 18.0833 12.8366 18.3096C12.8366 19.893 16.4257 18.0211 16.9073 16.1867C17.5334 13.8022 17.4213 13.8842 20.1876 13.7894L22.6199 13.706L22.8949 14.6534C23.046 15.1745 23.2931 16.0729 23.4437 16.65L23.7174 17.6992H25.169C27.5739 17.6992 27.565 18.1773 25.2946 10.9597C24.1758 7.40269 22.9665 3.52034 22.6076 2.33221L21.9546 0.172199H20.1256C19.1197 0.172199 18.2409 0.262549 18.1725 0.373142ZM25.6733 0.374129C25.6733 0.638268 30.5347 16.1909 30.8186 16.8352C31.0128 17.2763 31.2313 17.3205 32.8727 17.2494L34.7095 17.1699L37.4361 8.67105L40.1627 0.172199H38.3655C36.8681 0.172199 36.5467 0.244282 36.438 0.604201C35.7009 3.04835 33.3264 11.6442 33.1951 12.3445C32.9897 13.4391 32.6641 13.3228 32.4392 12.0745C32.2935 11.266 31.0592 6.81961 29.5974 1.83849L29.1083 0.172199H27.3909C26.4462 0.172199 25.6733 0.263043 25.6733 0.374129ZM41.2254 8.52787V16.8835L43.7557 16.7922C45.1472 16.7421 47.4247 16.6372 48.8163 16.5592L51.3466 16.4175V15.0165V13.6156L47.8906 13.7104L44.4345 13.8055L44.4382 11.9876C44.4419 10.2092 44.6525 9.4605 45.1662 9.39854C45.3069 9.3815 46.3161 9.35386 47.4092 9.33682L49.3964 9.30597L49.3223 7.88653L49.2483 6.46709H46.9031H44.558L44.48 5.37598C44.3163 3.08587 44.2395 3.1345 48.0187 3.1345H51.3466V1.65335V0.172199H46.286H41.2254V8.52787ZM72.2592 8.00996C70.7993 12.3206 69.6067 15.9141 69.6094 15.9953C69.6119 16.0768 70.3853 16.1657 71.3278 16.1933L73.0415 16.2432L73.6485 14.3174L74.2558 12.3917H76.7952H79.3347L79.9555 14.3049L80.5761 16.218H82.3661H84.1558L81.452 8.29607C79.9646 3.93901 78.7479 0.328707 78.7479 0.273164C78.7479 0.217621 77.8854 0.172199 76.831 0.172199H74.9142L72.2592 8.00996ZM85.1662 8.13166V16.142L88.4497 16.2903C96.1324 16.6377 99.2534 14.0405 98.9436 7.55845C98.6869 2.19076 96.3583 0.445224 89.1777 0.237369L85.1662 0.121346V8.13166ZM100.584 8.18745C97.6624 17.1262 97.6985 16.7117 99.8419 16.7117H101.405L101.994 14.7986L102.583 12.8854L103.687 12.8188C104.295 12.782 105.455 12.8375 106.265 12.9422L107.738 13.1323L108.263 14.9837L108.787 16.8352L110.454 17.0386C111.37 17.1504 112.179 17.1825 112.251 17.1102C112.324 17.0378 111.177 13.1972 109.703 8.57551L107.023 0.172199H105.114H103.204L100.584 8.18745ZM114.933 1.09792C114.514 3.74893 112.793 17.0188 112.86 17.0805C112.903 17.1203 113.714 17.1924 114.664 17.2407L116.389 17.3289L117.026 11.2808C117.636 5.47719 117.673 5.28267 117.95 6.46709C118.108 7.14595 118.942 9.92311 119.802 12.6386L121.368 17.5757L122.796 17.7043C124.149 17.826 124.238 17.7999 124.462 17.2106C124.765 16.4162 127.538 7.20322 127.77 6.22023C127.891 5.71195 128.124 7.14497 128.514 10.7871C128.826 13.7062 129.148 16.5518 129.228 17.1106L129.374 18.1267L131 18.2933C131.894 18.3849 132.685 18.3997 132.759 18.3262C132.87 18.2151 131.105 3.56478 130.668 0.974489L130.533 0.172199H128.47H126.407L125.751 2.33221C125.39 3.52034 124.576 6.1837 123.942 8.25089L122.788 12.0096L121.715 8.37432C121.125 6.37501 120.321 3.71166 119.929 2.45564L119.215 0.172199H117.147H115.08L114.933 1.09792ZM133.402 0.361046C132.345 1.06706 132.367 2.27148 133.456 3.26855L134.349 4.08664L133.679 4.75636C132.411 6.02398 133.569 7.19286 134.885 5.97362C137.363 3.6766 136.025 -1.39017 133.402 0.361046ZM92.4485 3.41074C98.4593 5.07555 95.7777 14.4211 89.5892 13.3757L88.6222 13.2123V8.17338V3.1345L90.0417 3.13598C90.8225 3.13672 91.9054 3.2604 92.4485 3.41074ZM7.07521 3.88347C13.6073 5.23946 11.1378 15.7243 4.28645 15.7243H3.45602V9.84091C3.45602 6.60484 3.50811 3.90519 3.5718 3.8415C3.8189 3.5944 5.79723 3.6181 7.07521 3.88347ZM77.7521 6.86503C78.1641 8.30569 78.501 9.55529 78.501 9.64219C78.501 9.72883 77.7116 9.79968 76.7466 9.79968C75.1761 9.79968 75.0099 9.75426 75.1605 9.36768C75.2531 9.1302 75.6071 7.9359 75.9473 6.71395C76.716 3.9521 76.8093 3.69117 76.9169 3.99851C76.9643 4.13428 77.3403 5.42411 77.7521 6.86503ZM106.014 7.04943C106.38 8.45603 106.738 9.76142 106.811 9.95002C106.916 10.2238 106.581 10.2934 105.159 10.2934C103.428 10.2934 103.381 10.2771 103.532 9.73797C103.618 9.4326 103.984 8.04082 104.344 6.64557C105.11 3.68598 105.141 3.69364 106.014 7.04943ZM20.9775 7.55697C21.863 11.0636 21.8773 11.0243 19.7134 11.0303L18.3201 11.034L18.9247 8.6271C19.8904 4.78327 20.0229 4.31375 20.1165 4.4073C20.1651 4.45594 20.5527 5.8734 20.9775 7.55697Z" fill="#365D74"/>
<path fill-rule="evenodd" clip-rule="evenodd" d="M59.799 1.81537C58.3761 2.68259 57.9164 5.25609 58.992 6.33165C59.4356 6.77525 59.2936 7.08975 58.383 7.6795C55.9633 9.2473 55.9011 12.6912 58.2709 13.8984C60.1547 14.8579 61.7674 14.7478 63.5507 13.5375L64.455 12.924L65.1511 13.7031L65.8473 14.4822L66.7493 13.7939C67.8354 12.9657 67.8335 13.0284 66.8088 11.8312L65.9843 10.8679L66.4281 9.8563C66.6723 9.29963 66.9487 8.42797 67.0423 7.9187L67.2129 6.99298H66.0773C64.9435 6.99298 64.9418 6.99446 64.784 7.98042C64.588 9.20558 64.4705 9.20706 63.4979 7.99696L62.7178 7.02606L63.2804 6.57752C66.5091 4.00328 63.334 -0.33995 59.799 1.81537ZM62.3428 3.77987C62.7302 5.00059 61.5618 6.04924 61.036 4.95245C60.6008 4.04401 60.858 3.2901 61.6035 3.2901C61.9691 3.2901 62.2456 3.47327 62.3428 3.77987ZM61.8205 9.80939C63.1624 11.3804 63.1938 11.5502 62.233 12.0472C59.9293 13.2385 57.8791 10.9079 59.6622 9.12485C60.5178 8.26949 60.4998 8.26381 61.8205 9.80939Z" fill="#DA742D"/>
</svg>
