<svg width="26" height="26" viewBox="0 0 26 26" fill="none" xmlns="http://www.w3.org/2000/svg">
<path d="M17.8218 12.8151L15.9323 12.3681C15.8918 12.2615 15.846 12.1548 15.8004 12.0481L16.811 10.4127C16.938 10.2146 16.9076 9.95044 16.7399 9.78793L15.0994 8.14739C14.9317 7.97974 14.6727 7.94923 14.4747 8.07119L12.8189 9.09712C12.7122 9.05149 12.6056 9.01082 12.4989 8.97014L12.057 7.10106C12.0062 6.87253 11.798 6.70996 11.5643 6.70996L9.23806 6.71505C9.00444 6.71505 8.80132 6.87761 8.7454 7.10615L8.29341 9.00065C8.18169 9.04132 8.06983 9.08701 7.96319 9.13271L6.33282 8.13214C6.13479 8.01025 5.87575 8.04069 5.7081 8.20319L4.06247 9.8539C3.89481 10.0216 3.86444 10.2806 3.9862 10.4787L5.00203 12.1294C4.9564 12.236 4.91064 12.3427 4.87009 12.4545L2.9958 12.9014C2.76726 12.9573 2.60482 13.1604 2.60482 13.3941L2.59961 15.7203C2.59961 15.959 2.76218 16.1622 2.99071 16.218L4.88521 16.66C4.9208 16.7666 4.96656 16.8733 5.01219 16.9799L4.00157 18.6205C3.87459 18.8186 3.90497 19.0777 4.07262 19.2452L5.71317 20.8858C5.87574 21.0483 6.13986 21.0788 6.33789 20.9569L7.99877 19.9309C8.10541 19.9766 8.21205 20.0223 8.31882 20.063L8.75556 21.9321C8.81136 22.1606 9.0146 22.3232 9.24822 22.3232C9.2533 22.3232 9.2533 22.3232 9.2533 22.3232L11.5745 22.3181C11.8081 22.3181 12.0112 22.1556 12.0672 21.927L12.5191 20.0274C12.6309 19.9868 12.7427 19.9411 12.8443 19.8953L14.4797 20.901C14.6778 21.0229 14.9368 20.9924 15.1045 20.8248L16.7552 19.1792C16.9177 19.0116 16.9481 18.7525 16.8263 18.5545L15.8105 16.8987C15.8562 16.7921 15.9019 16.6853 15.9425 16.5736L17.8168 16.1267C18.0453 16.0708 18.2028 15.8676 18.2077 15.634L18.2129 13.3077C18.2129 13.0741 18.0504 12.8658 17.8218 12.8151ZM13.2116 17.3174C11.6586 18.8768 9.1381 18.8768 7.59148 17.3302C6.0447 15.7836 6.0447 13.263 7.60422 11.7099C9.15722 10.1569 11.6713 10.1506 13.2179 11.7036C14.7709 13.2503 14.7647 15.7644 13.2116 17.3174Z" fill="#877CFF"/>
<path fill-rule="evenodd" clip-rule="evenodd" d="M23.3996 3.4668V22.3231H10.0713V6.66636L13.4348 3.4668H23.3996ZM20.7036 18.3777C20.0599 18.3777 19.5381 18.8994 19.5381 19.5431C19.5381 20.1868 20.0599 20.7086 20.7036 20.7086C21.3472 20.7086 21.869 20.1868 21.869 19.5431C21.869 18.8994 21.3472 18.3777 20.7036 18.3777ZM21.869 8.62152H18.2131V10.1422H21.869V8.62152ZM21.865 5.49557H15.7872V7.01624H21.865V5.49557Z" fill="#77B1F4"/>
<path d="M11.0693 6.70996C11.3029 6.70996 11.5111 6.87253 11.5619 7.10106L12.0039 8.97014C12.1105 9.01082 12.2171 9.05149 12.3238 9.09712L13.9796 8.07119C14.1776 7.94923 14.4366 7.97974 14.6043 8.14739L16.2448 9.78793C16.4125 9.95044 16.4429 10.2146 16.3159 10.4127L15.3053 12.0481C15.3509 12.1548 15.3967 12.2615 15.4372 12.3681L17.3268 12.8151C17.5553 12.8658 17.7179 13.0741 17.7179 13.3077L17.7127 15.634C17.7077 15.8676 17.5502 16.0708 17.3217 16.1267L15.4474 16.5736C15.4068 16.6853 15.3611 16.792 15.3154 16.8987L16.3313 18.5545C16.453 18.7525 16.4227 19.0116 16.2601 19.1792L14.6094 20.8248C14.4417 20.9924 14.1827 21.0229 13.9846 20.901L12.3492 19.8953C12.2476 19.9411 12.1358 19.9868 12.0241 20.0274L11.5721 21.927C11.5161 22.1556 11.313 22.3181 11.0794 22.3181L10.0715 22.3201L10.0713 18.4848C10.9744 18.4456 11.8676 18.1001 12.5811 17.4473L12.7165 17.3174C14.2696 15.7644 14.2759 13.2503 12.7229 11.7036C11.9884 10.966 11.0357 10.5802 10.0713 10.5447L10.0715 6.71221L11.0693 6.70996Z" fill="#4E43C1"/>
</svg>
