<svg width="24" height="24" viewBox="0 0 24 24" fill="none" xmlns="http://www.w3.org/2000/svg">
<path d="M16.0908 12.221L14.3495 11.8091C14.3121 11.7108 14.2699 11.6125 14.2279 11.5142L15.1592 10.007C15.2762 9.82445 15.2482 9.58104 15.0937 9.43128L13.5819 7.91941C13.4274 7.76491 13.1886 7.73679 13.0061 7.84919L11.4802 8.79465C11.3819 8.7526 11.2837 8.71512 11.1854 8.67763L10.7781 6.95515C10.7312 6.74454 10.5394 6.59473 10.3241 6.59473L8.18027 6.59941C7.96497 6.59941 7.77779 6.74923 7.72625 6.95984L7.30971 8.70575C7.20675 8.74323 7.10367 8.78534 7.0054 8.82745L5.5029 7.90536C5.3204 7.79302 5.08168 7.82108 4.92717 7.97084L3.41062 9.49208C3.25612 9.64658 3.22812 9.8853 3.34034 10.0679L4.27649 11.5891C4.23443 11.6874 4.19227 11.7857 4.15489 11.8887L2.42761 12.3005C2.217 12.3521 2.0673 12.5392 2.0673 12.7546L2.0625 14.8984C2.0625 15.1183 2.21232 15.3056 2.42293 15.3571L4.16883 15.7643C4.20163 15.8626 4.2438 15.9609 4.28585 16.0592L3.3545 17.571C3.23748 17.7537 3.26548 17.9924 3.41998 18.1468L4.93185 19.6587C5.08167 19.8084 5.32508 19.8366 5.50757 19.7242L7.03818 18.7787C7.13646 18.8208 7.23474 18.8629 7.33313 18.9004L7.73561 20.6229C7.78703 20.8336 7.97433 20.9833 8.18963 20.9833C8.19431 20.9833 8.19431 20.9833 8.19431 20.9833L10.3334 20.9786C10.5487 20.9786 10.7359 20.8289 10.7875 20.6182L11.204 18.8676C11.307 18.8302 11.41 18.7881 11.5036 18.7459L13.0108 19.6727C13.1933 19.7851 13.432 19.757 13.5865 19.6025L15.1078 18.086C15.2576 17.9315 15.2856 17.6927 15.1734 17.5102L14.2372 15.9843C14.2793 15.886 14.3214 15.7877 14.3588 15.6847L16.0861 15.2728C16.2967 15.2214 16.4418 15.0341 16.4464 14.8188L16.4512 12.675C16.4512 12.4597 16.3014 12.2678 16.0908 12.221ZM11.8421 16.3702C10.4109 17.8073 8.08815 17.8073 6.66284 16.382C5.23737 14.9566 5.23737 12.6338 6.67458 11.2025C8.10577 9.77134 10.4227 9.76547 11.848 11.1967C13.2792 12.622 13.2735 14.939 11.8421 16.3702Z" fill="#877CFF"/>
<path fill-rule="evenodd" clip-rule="evenodd" d="M8.94775 3.60596H21.2307V18.0347L18.131 20.9833H8.94775V3.60596Z" fill="#77B1F4"/>
<path d="M9.86778 6.59473C10.0831 6.59473 10.2749 6.74454 10.3218 6.95515L10.7291 8.67763C10.8274 8.71512 10.9256 8.7526 11.0239 8.79465L12.5498 7.84919C12.7323 7.73679 12.9711 7.76491 13.1256 7.91941L14.6374 9.43128C14.7919 9.58104 14.8199 9.82445 14.7029 10.007L13.7716 11.5142C13.8136 11.6125 13.8558 11.7108 13.8932 11.8091L15.6345 12.221C15.8451 12.2678 15.9949 12.4597 15.9949 12.675L15.9901 14.8188C15.9855 15.0341 15.8404 15.2214 15.6298 15.2728L13.9025 15.6847C13.8651 15.7877 13.823 15.886 13.7809 15.9843L14.7171 17.5102C14.8293 17.6927 14.8013 17.9315 14.6515 18.086L13.1302 19.6025C12.9757 19.757 12.737 19.7851 12.5545 19.6727L11.0473 18.7459C10.9537 18.7881 10.8507 18.8302 10.7477 18.8676L10.3312 20.6182C10.2796 20.8289 10.0924 20.9786 9.87715 20.9786L8.94831 20.9802L8.94807 17.446C9.75892 17.4108 10.5612 17.1077 11.2099 16.5358L11.3858 16.3702C12.8172 14.939 12.8229 12.622 11.3917 11.1967C10.7147 10.5169 9.83658 10.1613 8.94775 10.1287L8.94831 6.59594L9.86778 6.59473Z" fill="#4E43C1"/>
</svg>
