<svg width="112" height="32" viewBox="0 0 112 32" fill="none" xmlns="http://www.w3.org/2000/svg">
<path fill-rule="evenodd" clip-rule="evenodd" d="M20.8497 0.0940603C20.7891 0.134267 20.2586 0.80724 19.6707 1.58949C19.0828 2.37179 18.3565 3.33709 18.0567 3.7346C17.7568 4.13215 17.4499 4.54501 17.3745 4.65212C16.714 5.59064 19.0338 5.76477 19.7686 4.83181C19.9589 4.5902 20.1682 4.32661 20.2338 4.24607L20.353 4.09964L20.3552 13.4428C20.3575 23.1095 20.3537 22.8912 20.52 23.0198C20.5899 23.0738 22.1143 23.0983 22.2459 23.0474C22.4444 22.9707 22.4347 23.5658 22.4347 11.5248V0.264972L22.3132 0.142677L22.1918 0.0203833L21.5758 0.0206756C21.0594 0.0208848 20.942 0.0327669 20.8497 0.0940603ZM36.2755 0.11452C36.2036 0.166316 35.8988 0.538135 35.5982 0.940831C34.6166 2.25586 33.0156 4.38803 32.8577 4.59061C32.4167 5.15652 32.5877 5.30187 33.7725 5.36827C34.8184 5.42688 34.8455 5.41107 35.6395 4.27984C35.7003 4.19323 35.7641 4.12194 35.7812 4.12144C35.7984 4.12098 35.8124 8.33872 35.8124 13.4943V22.868L35.9144 22.9707C36.0157 23.0728 36.0214 23.0734 36.8316 23.0734H37.6468L37.7682 22.9511L37.8897 22.8288V11.5892C37.8897 3.39345 37.8771 0.324842 37.8433 0.258193C37.7339 0.0428501 37.6619 0.022308 37.013 0.0213038C36.4495 0.0204671 36.397 0.0270774 36.2755 0.11452ZM0.121438 0.184516L0 0.30681V11.5614V22.816L0.107562 22.9447L0.215124 23.0734H3.86512H7.51512L7.6317 22.9725L7.74827 22.8717L7.75945 22.1462C7.77777 20.9589 8.07225 21.0653 4.76716 21.0652L2.16 21.0652L2.17056 16.7035L2.18115 12.3418L4.40384 12.3318C7.16726 12.3193 6.93813 12.4092 6.93813 11.3377C6.93813 10.2662 7.16726 10.3561 4.40384 10.3436L2.18115 10.3336L2.17056 6.2029L2.15996 2.07227L4.83895 2.06089L7.5179 2.04955L7.63311 1.93366L7.74827 1.81777L7.76153 1.123C7.77058 0.647375 7.75895 0.389734 7.72463 0.306308C7.6184 0.0480391 7.842 0.0622218 3.8721 0.0622218H0.242876L0.121438 0.184516ZM48.3441 0.172508L48.2346 0.282837V11.5754V22.868L48.3366 22.9707L48.4385 23.0734H52.0983H55.7581L55.8601 22.9707C55.9257 22.9046 55.9628 22.8188 55.964 22.7301C55.9906 20.8709 56.3447 21.0703 53.0123 21.0678L50.4157 21.0659V16.7039V12.3418L52.6662 12.3209L54.9168 12.3L55.024 12.1986L55.1311 12.0971V11.3341V10.5711L55.0033 10.4628L54.8755 10.3545H52.6352H50.3949V6.21366V2.07281L53.0683 2.06118C55.976 2.04855 55.8344 2.06064 55.9373 1.81542C56.0332 1.58661 55.9572 0.234931 55.8432 0.142091C55.7483 0.0648575 55.6251 0.0622218 52.0994 0.0622218H48.4536L48.3441 0.172508ZM66.4089 0.164935C66.2662 0.308608 66.2624 0.264301 66.6612 3.11509C66.856 4.50798 67.1546 6.64551 67.3248 7.8651C67.495 9.0847 67.9813 12.5678 68.4054 15.6052C68.8296 18.6427 69.2225 21.4668 69.2787 21.881C69.452 23.1583 69.3703 23.0734 70.4269 23.0734C71.4989 23.0734 71.3825 23.218 71.609 21.6055C71.9268 19.343 73.7372 6.37657 74.0152 4.37159C74.1636 3.30157 74.3501 1.97115 74.4298 1.41507C74.6343 -0.0124184 74.6865 0.0622218 73.483 0.0622218H72.6137L72.5022 0.182465C72.393 0.300157 72.3823 0.363626 72.0038 3.14254C71.7911 4.70446 71.5543 6.43423 71.4777 6.9865C71.401 7.53876 71.2446 8.67782 71.1302 9.51773C71.0157 10.3576 70.836 11.6661 70.7308 12.4255C70.6256 13.1849 70.5288 13.9003 70.5157 14.0154C70.4915 14.2281 70.4239 14.421 70.4212 14.2848C70.4205 14.249 70.0475 11.5284 69.5922 8.23918C69.1369 4.94992 68.7035 1.8163 68.629 1.27554C68.501 0.34618 68.4873 0.286016 68.3798 0.177278L68.266 0.0622218H67.3884C66.5121 0.0622218 66.5108 0.0623467 66.4089 0.164935ZM84.9854 0.190959L84.8779 0.319655V11.5528C84.8779 20.0129 84.8898 22.8086 84.9262 22.8774C85.032 23.0776 84.8962 23.0707 88.7497 23.0721L92.393 23.0734L92.5096 22.9725L92.6261 22.8716L92.64 22.1612C92.6634 20.9573 92.9854 21.0709 89.5412 21.0676L87.0379 21.0652L87.0484 16.7035L87.059 12.3418L89.3095 12.3209L91.5601 12.3L91.6673 12.1986L91.7745 12.0971V11.3377V10.5783L91.6673 10.4768L91.5601 10.3754L89.3095 10.3545L87.059 10.3336L87.0484 6.2032L87.0378 2.07281L89.7168 2.06118L92.3958 2.04955L92.511 1.93366L92.6261 1.81777L92.6394 1.123C92.6485 0.647375 92.6368 0.389734 92.6025 0.306308C92.4963 0.0480391 92.7212 0.0622218 88.736 0.0622218H85.093L84.9854 0.190959ZM104.099 0.109625C103.896 0.228446 103.906 -0.337378 103.906 11.5678C103.906 23.5299 103.895 22.9138 104.107 23.0282C104.16 23.0564 104.512 23.0734 105.042 23.0734H105.893L106 22.9447L106.108 22.816V15.867C106.108 12.0451 106.117 8.92726 106.128 8.93847C106.139 8.94973 106.327 9.59768 106.545 10.3784C106.932 11.7641 107.034 12.1312 107.645 14.3292C107.808 14.9159 108.023 15.6879 108.123 16.0445C108.49 17.3573 108.685 18.0563 108.974 19.0987C109.265 20.1473 109.451 20.8137 109.83 22.1634C109.972 22.666 110.049 22.8733 110.129 22.9583L110.236 23.0734H110.995C111.737 23.0734 111.756 23.0712 111.87 22.9724L111.986 22.8714L111.997 11.6447C112.005 3.26345 111.996 0.388269 111.96 0.301119C111.868 0.0751495 111.812 0.0622218 110.923 0.0622218H110.107L109.998 0.172508L109.888 0.282837L109.886 7.31643C109.884 11.5936 109.868 14.3173 109.845 14.2664C109.824 14.2204 109.45 12.9025 109.014 11.3377C108.578 9.77294 108.102 8.06907 107.956 7.55132C107.811 7.03356 107.437 5.69682 107.125 4.58078C106.813 3.46474 106.439 2.128 106.294 1.61025C106.149 1.0925 106.008 0.579178 105.981 0.469561C105.889 0.0994578 104.553 -0.156175 104.099 0.109625ZM79.0199 26.933C79.0199 26.9494 78.9259 27.4389 78.5679 29.2864C78.2098 31.1344 78.0645 31.904 78.0645 31.9536C78.0642 32.047 79.0939 31.9856 79.1168 31.8909C79.1375 31.805 79.2667 31.1348 79.5844 29.4642C79.6804 28.9597 79.7677 28.6847 79.7677 28.8872C79.7677 28.9093 80.0225 29.6153 80.3339 30.4562L80.9001 31.985H81.3677H81.8354L81.9218 31.7654C81.9693 31.6445 82.2334 30.9445 82.5088 30.2098C82.7842 29.475 83.0167 28.8665 83.0256 28.8576C83.0479 28.8351 83.6315 31.8192 83.6315 31.9559C83.6315 31.9719 83.8652 31.985 84.1508 31.985C84.5292 31.985 84.6701 31.9713 84.6701 31.9344C84.6701 31.9066 84.5682 31.3465 84.4436 30.6897C84.011 28.4092 83.7993 27.2772 83.7725 27.1004L83.7455 26.9225H83.2152C82.8288 26.9225 82.6797 26.9367 82.6658 26.9748C82.365 27.8026 81.4086 30.3414 81.3888 30.3646C81.3737 30.3823 81.239 30.0623 81.0893 29.6534C80.9397 29.2445 80.6533 28.4627 80.4529 27.9162L80.0885 26.9225H79.5542C79.2603 26.9225 79.0199 26.9272 79.0199 26.933ZM88.0353 29.4538V31.985H88.5754H89.1155V29.4538V26.9225H88.5754H88.0353V29.4538ZM94.5121 27.1213C94.1696 27.9267 92.8443 31.0166 92.6632 31.4319C92.54 31.7145 92.4392 31.9546 92.4392 31.9653C92.4392 31.9762 92.6892 31.985 92.9949 31.985H93.5506L93.7757 31.4725L94.0008 30.96H95.1578H96.3147L96.5288 31.462L96.743 31.9641L97.2915 31.9758C97.5933 31.9822 97.8403 31.9728 97.8405 31.9548C97.8407 31.9369 97.3605 30.7973 96.7733 29.4224L95.7057 26.9225H95.1512H94.5966L94.5121 27.1213ZM101.333 29.4004C101.073 30.7644 100.851 31.9045 100.84 31.934C100.826 31.9761 100.935 31.9851 101.354 31.9758L101.887 31.9641L102.019 31.2947C102.091 30.9265 102.221 30.2487 102.307 29.7885C102.393 29.3283 102.477 28.9262 102.493 28.895C102.51 28.8616 102.76 29.4808 103.1 30.4012L103.678 31.9641L104.146 31.9759L104.614 31.9878L104.689 31.8086C104.73 31.71 104.996 31.0047 105.28 30.2413C105.564 29.4778 105.808 28.8659 105.822 28.8815C105.836 28.8971 105.926 29.3241 106.022 29.8303C106.118 30.3366 106.248 31.0238 106.312 31.3574L106.427 31.9641L106.932 31.9758C107.541 31.99 107.504 32.1501 107.23 30.6984C107.116 30.0943 106.928 29.0965 106.813 28.4809C106.698 27.8655 106.584 27.263 106.56 27.1422L106.517 26.9225L105.991 26.9236L105.464 26.9247L104.82 28.6583C104.466 29.6118 104.165 30.3786 104.15 30.3622C104.127 30.3366 103.518 28.7016 103.033 27.3619L102.882 26.9435L102.344 26.9319L101.807 26.9202L101.333 29.4004ZM110.844 29.4538V31.985H111.363H111.883V29.4538V26.9225H111.363H110.844V29.4538ZM95.538 29.1372C95.7188 29.5614 95.8729 29.9238 95.8805 29.9426C95.8882 29.9614 95.5657 29.9768 95.1639 29.9768C94.7621 29.9768 94.4334 29.9693 94.4334 29.9602C94.4334 29.9511 94.5645 29.6391 94.7248 29.267C94.8851 28.8948 95.0445 28.5224 95.0789 28.4394C95.1599 28.2441 95.1527 28.2331 95.538 29.1372Z" fill="#F5B42A"/>
</svg>
