<svg width="40" height="40" viewBox="0 0 40 40" fill="none" xmlns="http://www.w3.org/2000/svg">
<path fill-rule="evenodd" clip-rule="evenodd" d="M12 8L27.6 17.0761L12 26.1522V8ZM17.4911 14.8754C16.3233 14.8754 15.3765 15.8222 15.3765 16.99C15.3765 18.1579 16.3233 19.1046 17.4911 19.1046C18.659 19.1046 19.6057 18.1579 19.6057 16.99C19.6057 15.8222 18.659 14.8754 17.4911 14.8754Z" fill="#77B1F4"/>
<path fill-rule="evenodd" clip-rule="evenodd" d="M12 14.8477L15.3835 16.8168C15.3789 16.8739 15.3765 16.9317 15.3765 16.99C15.3765 18.1578 16.3233 19.1046 17.4911 19.1046C17.9332 19.1046 18.3435 18.9689 18.6829 18.737L27.6 23.9238L12 32.9999V14.8477Z" fill="#877CFF"/>
<path fill-rule="evenodd" clip-rule="evenodd" d="M12 14.8477L15.3834 16.8188L15.3818 16.839C15.3811 16.8495 15.3804 16.8601 15.3798 16.8707L15.3834 16.8188C15.3788 16.8752 15.3765 16.9323 15.3765 16.99C15.3765 18.1578 16.3233 19.1046 17.4911 19.1046C17.5498 19.1046 17.6079 19.1022 17.6654 19.0975L17.4911 19.1046C17.5658 19.1046 17.6396 19.1007 17.7122 19.0931C17.753 19.0889 17.794 19.0834 17.8346 19.0768C17.8507 19.0742 17.8667 19.0714 17.8826 19.0684C17.9248 19.0605 17.9666 19.0513 18.0079 19.041C18.0242 19.0369 18.0405 19.0326 18.0567 19.0281C18.0964 19.0171 18.1356 19.005 18.1743 18.9918L18.2086 18.9797C18.2654 18.9591 18.3159 18.9384 18.3654 18.9159C18.3762 18.911 18.387 18.906 18.3977 18.9009C18.4342 18.8836 18.4699 18.8653 18.5051 18.8461C18.5264 18.8344 18.5475 18.8224 18.5684 18.81C18.5943 18.7946 18.62 18.7786 18.6453 18.7621L18.6799 18.739L21.7042 20.4999L12 26.1521V14.8477Z" fill="#4E43C1"/>
</svg>
