<svg width="380" height="410" viewBox="0 0 380 410" fill="none" xmlns="http://www.w3.org/2000/svg">
<rect width="380" height="410" rx="8" fill="white"/>
<path d="M262.965 177.218C262.368 170.345 265.348 166.832 273.707 166.083C276.071 165.903 278.448 166.017 280.785 166.422L280.926 176.305C279.811 176.202 278.691 176.18 277.573 176.238C276.328 176.35 275.944 176.745 276.065 178.118L278.7 208.476L265.776 209.618L262.965 177.218Z" fill="#FFA71A"/>
<path d="M118.29 198.145C117.063 198.145 114.757 198.118 113.54 198.064C113.369 199.634 113.224 200.457 113.54 203.256C113.855 206.056 114.372 207.751 114.752 208.832C115.57 208.855 117.499 208.868 118.333 208.866C119.491 208.866 120.644 208.824 121.794 208.771C126.539 208.555 130.506 207.657 135.145 206.61L134.976 196.082C129.511 197.434 123.911 198.126 118.29 198.145Z" fill="url(#paint0_linear)"/>
<path d="M145.03 187.755C149.156 187.375 151.994 185.156 151.649 181.139C151.309 177.045 148.164 175.452 144.035 175.829C139.906 176.206 137.076 178.367 137.43 182.434C137.753 186.463 140.904 188.135 145.03 187.755Z" fill="#FFA71A"/>
<path d="M121.218 208.555L121.432 210.944C120.886 211.114 120.324 211.223 119.754 211.27C117.356 211.477 115.945 210.504 115.078 208.619C115.042 208.544 115.008 208.469 114.974 208.389C114.36 206.935 114.038 204.98 113.83 202.633C113.654 201.078 113.654 199.509 113.83 197.955C113.83 197.877 113.85 197.797 113.864 197.722C114.388 194.54 116.228 193.094 120.228 192.746C123 192.505 127.347 192.967 130.607 193.522L132.267 182.853C128.326 181.52 122.854 180.677 116.84 181.194C111.362 181.667 106.386 183.713 103.55 186.646C101.639 188.681 100.043 191.396 99.3926 195.629C99.3926 195.707 99.373 195.79 99.3618 195.867C99.0175 198.527 98.9817 201.217 99.2552 203.885C99.3393 204.831 99.4431 205.724 99.5637 206.57C99.5778 206.656 99.589 206.736 99.603 206.821C100.812 214.909 103.69 218.434 106.986 220.563C110.397 222.775 115.196 223.502 120.974 223.004C125.973 222.573 132.295 220.654 136.646 217.049L134.974 196.081C128.211 204.353 127.516 204.59 121.218 208.555Z" fill="#FFA71A"/>
<path d="M253.874 168.349C245.363 169.086 242.329 172.601 242.937 179.481L243.499 185.937C241.981 186.43 240.488 186.967 239.001 187.537C237.744 181.137 235.278 177.797 232.593 175.74C229.287 173.197 224.338 172.111 218.592 172.609C212.969 173.094 208.282 175.006 205.453 178.081C202.678 181.089 200.55 185.909 201.388 195.408C201.7 198.917 202.296 201.717 203.095 203.985C200.938 205.04 198.087 206.323 195.706 205.933C194.23 205.688 193.763 204.6 193.583 202.557L193.116 197.269L198.846 196.771C198.807 196.404 198.768 196.031 198.734 195.658C198.445 192.789 198.445 189.9 198.734 187.031L192.267 187.587L191.48 178.682L178.547 182.45L179.109 188.723L172.173 189.338L172.024 187.668C171.904 186.296 172.306 185.901 173.562 185.79C174.527 185.706 175.623 185.731 175.623 185.731L175.598 175.802C173.616 175.558 171.615 175.51 169.623 175.657C161.116 176.394 158.079 179.906 158.687 186.789L159.016 190.493L138.902 192.235L141.432 220.9L154.59 219.759L152.926 200.748L159.881 200.144L161.568 219.144L174.726 218.003L173.039 199.006L179.97 198.405L180.763 207.366C181.305 213.489 184.775 216.564 190.623 217.107C199.482 217.942 206.367 214.493 209.775 212.581C213.002 214.53 217.301 215.214 222.331 214.777C228.064 214.282 232.534 212.57 235.371 209.554C237.533 207.294 239.287 204.127 239.737 198.808C241.291 198.122 242.875 197.485 244.489 196.897L245.81 211.841L258.968 210.703L257.441 193.448L256.499 182.767L256.283 180.343C256.162 178.969 256.564 178.573 257.821 178.465C258.788 178.381 259.885 178.406 259.885 178.406L259.856 168.474C257.871 168.237 255.867 168.195 253.874 168.349ZM224.476 201.355C223.782 202.44 222.663 202.838 221.333 202.952C220.003 203.066 218.833 202.869 217.959 201.92C217.211 201.021 216.402 198.744 215.991 194.144C215.581 189.485 215.912 187.048 216.612 186.023C217.369 184.935 218.431 184.601 219.705 184.493C220.979 184.384 222.081 184.526 223.014 185.47C223.883 186.357 224.639 188.701 225.05 193.359C225.463 197.965 225.055 200.342 224.476 201.355Z" fill="#FFA71A"/>
<path d="M190 225.412H193.1C193.709 225.406 194.315 225.512 194.886 225.726C195.405 225.921 195.881 226.216 196.285 226.594C196.676 226.962 196.985 227.406 197.194 227.899C197.411 228.413 197.52 228.966 197.514 229.524V229.548C197.519 230.107 197.41 230.662 197.194 231.178C196.986 231.674 196.677 232.122 196.285 232.491C195.879 232.869 195.404 233.165 194.886 233.365C194.316 233.582 193.71 233.69 193.1 233.684H190V225.412ZM193.086 232.373C193.491 232.378 193.894 232.307 194.273 232.164C194.613 232.037 194.922 231.839 195.181 231.585C195.434 231.331 195.633 231.028 195.764 230.694C195.903 230.337 195.974 229.956 195.971 229.573V229.548C195.974 229.163 195.904 228.781 195.764 228.422C195.635 228.086 195.436 227.78 195.181 227.526C194.922 227.27 194.613 227.069 194.273 226.938C193.895 226.791 193.492 226.718 193.086 226.723H191.449V232.373H193.086Z" fill="#2EBCE8"/>
<path d="M200.521 225.412H202.024V233.684H200.521V225.412Z" fill="#2EBCE8"/>
<path d="M208.443 233.684C207.858 233.693 207.277 233.586 206.733 233.371C206.239 233.175 205.791 232.88 205.417 232.504C205.052 232.131 204.765 231.689 204.574 231.204C204.373 230.687 204.272 230.136 204.278 229.581V229.557C204.275 229.012 204.378 228.472 204.582 227.966C204.778 227.472 205.071 227.021 205.444 226.64C206.23 225.844 207.308 225.401 208.43 225.412C208.751 225.411 209.071 225.436 209.388 225.487C209.661 225.532 209.929 225.603 210.189 225.699C210.43 225.788 210.663 225.901 210.882 226.036C211.107 226.172 211.32 226.326 211.52 226.497L210.626 227.558C210.477 227.435 210.322 227.32 210.162 227.213C210.002 227.109 209.834 227.02 209.658 226.948C209.47 226.873 209.276 226.816 209.079 226.778C208.85 226.734 208.618 226.713 208.385 226.714C208.029 226.712 207.678 226.79 207.357 226.943C207.045 227.093 206.764 227.301 206.53 227.555C206.293 227.818 206.107 228.122 205.98 228.452C205.846 228.798 205.779 229.165 205.78 229.536V229.56C205.776 229.95 205.842 230.337 205.975 230.703C206.094 231.039 206.283 231.347 206.53 231.605C206.772 231.858 207.064 232.061 207.387 232.199C207.739 232.348 208.119 232.422 208.502 232.416C208.864 232.418 209.225 232.363 209.57 232.252C209.879 232.151 210.17 232.002 210.431 231.809V230.308H208.374V229.088H211.792V232.438C211.584 232.611 211.363 232.771 211.133 232.915C210.885 233.071 210.623 233.205 210.351 233.315C210.061 233.432 209.76 233.521 209.452 233.581C209.12 233.648 208.782 233.682 208.443 233.684Z" fill="#2EBCE8"/>
<path d="M215.549 225.412H217.052V233.684H215.549V225.412Z" fill="#2EBCE8"/>
<path d="M221.949 226.759H219.307V225.412H226.07V226.759H223.428V233.684H221.949V226.759Z" fill="#2EBCE8"/>
<path d="M230.31 225.412H231.596L235.087 233.684H233.614L232.808 231.701H229.064L228.247 233.684H226.821L230.31 225.412ZM232.305 230.424L230.932 227.136L229.572 230.424H232.305Z" fill="#2EBCE8"/>
<path d="M238.092 225.412H239.59V232.373H244.103V233.684H238.092V225.412Z" fill="#2EBCE8"/>
<path d="M255.027 233.684C254.444 233.692 253.865 233.586 253.323 233.371C252.829 233.175 252.382 232.879 252.009 232.502C251.644 232.129 251.358 231.687 251.168 231.201C250.966 230.683 250.865 230.132 250.869 229.576V229.552C250.867 229.007 250.971 228.465 251.176 227.959C251.371 227.464 251.664 227.013 252.036 226.631C252.824 225.835 253.905 225.394 255.027 225.413C255.348 225.411 255.667 225.436 255.984 225.487C256.256 225.532 256.524 225.603 256.783 225.699C257.024 225.789 257.256 225.902 257.475 226.037C257.699 226.174 257.912 226.329 258.112 226.499L257.217 227.561C257.067 227.434 256.911 227.315 256.748 227.205C256.589 227.101 256.42 227.012 256.245 226.939C256.058 226.865 255.864 226.808 255.667 226.77C255.438 226.725 255.205 226.704 254.971 226.706C254.617 226.704 254.268 226.782 253.949 226.934C253.636 227.084 253.356 227.292 253.123 227.548C252.886 227.81 252.7 228.115 252.574 228.445C252.438 228.791 252.369 229.16 252.372 229.531V229.555C252.369 229.945 252.435 230.332 252.566 230.699C252.806 231.374 253.318 231.917 253.978 232.197C254.33 232.347 254.709 232.421 255.091 232.415C255.453 232.417 255.813 232.361 256.157 232.25C256.467 232.15 256.758 232 257.02 231.807V230.304H254.969V229.082H258.384V232.436C258.175 232.61 257.955 232.769 257.726 232.914C257.478 233.071 257.217 233.205 256.945 233.315C256.655 233.432 256.355 233.521 256.048 233.58C255.712 233.649 255.37 233.683 255.027 233.684Z" fill="#2EBCE8"/>
<path d="M261.387 225.412H262.89V233.684H261.387V225.412Z" fill="#2EBCE8"/>
<path d="M265.897 225.412H272.66V226.723H267.485V229.004H272.077V230.315H267.485V233.684H265.897V225.412Z" fill="#2EBCE8"/>
<path d="M277.55 226.759H274.914V225.412H281.677V226.759H279.023V233.684H277.55V226.759Z" fill="#2EBCE8"/>
<path d="M283.931 225.412H285.434V233.684H283.931V225.412Z" fill="#2EBCE8"/>
<path d="M288.439 225.412H289.84L294.45 231.131V225.412H295.954V233.684H294.688L289.943 227.8V233.684H288.439V225.412Z" fill="#2EBCE8"/>
<path d="M302.377 233.684C301.791 233.692 301.21 233.586 300.665 233.371C300.172 233.175 299.724 232.88 299.352 232.504C298.986 232.131 298.699 231.689 298.508 231.204C298.304 230.687 298.203 230.136 298.209 229.581V229.557C298.205 229.012 298.31 228.472 298.516 227.966C298.712 227.472 299.004 227.022 299.376 226.64C300.163 225.844 301.243 225.4 302.366 225.412C302.687 225.411 303.008 225.436 303.325 225.487C303.598 225.532 303.866 225.603 304.126 225.699C304.368 225.789 304.6 225.902 304.82 226.036C305.044 226.172 305.257 226.326 305.456 226.497L304.561 227.558C304.411 227.431 304.255 227.312 304.091 227.202C303.932 227.099 303.763 227.01 303.587 226.937C303.398 226.863 303.204 226.806 303.005 226.768C302.776 226.723 302.543 226.702 302.31 226.704C301.955 226.702 301.603 226.78 301.282 226.932C300.97 227.082 300.69 227.29 300.457 227.545C300.219 227.807 300.031 228.111 299.904 228.441C299.77 228.787 299.702 229.155 299.704 229.526V229.549C299.7 229.939 299.766 230.326 299.899 230.693C300.02 231.028 300.209 231.335 300.454 231.594C300.697 231.849 300.99 232.051 301.314 232.188C301.667 232.338 302.047 232.412 302.43 232.406C302.793 232.408 303.154 232.352 303.499 232.241C303.809 232.14 304.101 231.991 304.364 231.798V230.297H302.308V229.077H305.723V232.438C305.514 232.612 305.292 232.771 305.061 232.915C304.814 233.072 304.553 233.206 304.281 233.315C303.989 233.432 303.687 233.521 303.378 233.581C303.049 233.647 302.713 233.682 302.377 233.684Z" fill="#2EBCE8"/>
<path d="M313.008 205.857L320 197.53C316.865 195.242 313.581 193.166 310.168 191.317C293.675 182.341 274.659 179.116 256.127 182.151L257.073 192.989C273.482 190.12 290.379 192.894 305.007 200.859C307.776 202.356 310.448 204.025 313.008 205.857Z" fill="url(#paint1_linear)"/>
<path d="M66.8713 178.033L60 186.28C71.0969 196.864 84.8781 204.159 99.8266 207.362C99.8266 207.276 99.8016 207.194 99.7905 207.108C99.6682 206.251 99.5653 205.347 99.4819 204.389C99.2109 201.688 99.2464 198.964 99.5876 196.271C87.2871 193.175 76.0069 186.887 66.8713 178.033Z" fill="#FFA71A"/>
<defs>
<linearGradient id="paint0_linear" x1="115.06" y1="202.024" x2="120.281" y2="202.741" gradientUnits="userSpaceOnUse">
<stop stop-color="#F7931E"/>
<stop offset="1" stop-color="#FFA71A"/>
</linearGradient>
<linearGradient id="paint1_linear" x1="257.164" y1="202.18" x2="260.701" y2="202.18" gradientUnits="userSpaceOnUse">
<stop stop-color="#F7931E"/>
<stop offset="1" stop-color="#FFA71A"/>
</linearGradient>
</defs>
</svg>
