<svg width="40" height="40" viewBox="0 0 40 40" fill="none" xmlns="http://www.w3.org/2000/svg">
<path d="M19.3206 29.8171C24.1452 29.8171 28.0563 25.906 28.0563 21.0814C28.0563 16.2568 24.1452 12.3457 19.3206 12.3457C14.4961 12.3457 10.585 16.2568 10.585 21.0814C10.585 25.906 14.4961 29.8171 19.3206 29.8171Z" fill="#77B1F4"/>
<path d="M10.5847 14.958C12.0273 14.958 13.1967 13.7885 13.1967 12.3459C13.1967 10.9033 12.0273 9.73389 10.5847 9.73389C9.14211 9.73389 7.97266 10.9033 7.97266 12.3459C7.97266 13.7885 9.14211 14.958 10.5847 14.958Z" fill="#564BCA"/>
<path d="M19.1987 33.25C25.7817 33.25 31.139 28.0024 31.3158 21.4621L31.3203 21.1284H27.7937C27.7937 25.8753 23.9456 29.7234 19.1987 29.7234C14.5468 29.7234 10.758 26.0277 10.6083 21.4121L10.6038 21.1284H7.07715C7.07715 27.823 12.5042 33.25 19.1987 33.25Z" fill="#877CFF"/>
<path d="M29.4594 11.751L23.3691 21.1285H35.5496L29.4594 11.751Z" fill="#877CFF"/>
<path fill-rule="evenodd" clip-rule="evenodd" d="M26.5683 16.2031C27.5078 17.5962 28.0563 19.2748 28.0563 21.0815C28.0563 21.0971 28.0562 21.1127 28.0561 21.1283L23.3691 21.1283L26.5683 16.2031Z" fill="#564BCA"/>
</svg>
