<svg width="22" height="22" viewBox="0 0 22 22" fill="none" xmlns="http://www.w3.org/2000/svg">
<path d="M8.13689 4.6582C10.6378 4.6582 12.6651 6.68556 12.6651 9.18642C12.6651 11.2326 11.308 12.9618 9.4447 13.5229L9.35095 13.5478L9.35178 15.5207H6.922V11.2849H8.13689C9.29583 11.2849 10.2353 10.3454 10.2353 9.18642C10.2353 8.02748 9.29583 7.08798 8.13689 7.08798C7.03314 7.08798 6.12842 7.94014 6.04476 9.02243L6.03845 9.18642H3.60867C3.60867 6.68556 5.63603 4.6582 8.13689 4.6582Z" fill="#877CFF"/>
<path d="M13.8631 2.95752C16.364 2.95752 18.3913 4.98487 18.3913 7.48574C18.3913 9.5319 17.0342 11.2611 15.1709 11.8222L15.0771 11.8471L15.078 13.82H12.6482V9.58418H13.8631C15.022 9.58418 15.9615 8.64467 15.9615 7.48574C15.9615 6.3268 15.022 5.38729 13.8631 5.38729C12.7593 5.38729 11.8546 6.23945 11.771 7.32174L11.7646 7.48574H9.33487C9.33487 4.98487 11.3622 2.95752 13.8631 2.95752Z" fill="#77B1F4"/>
<path d="M8.13689 19.0426C8.84226 19.0426 9.41407 18.4708 9.41407 17.7655C9.41407 17.0601 8.84226 16.4883 8.13689 16.4883C7.43152 16.4883 6.85971 17.0601 6.85971 17.7655C6.85971 18.4708 7.43152 19.0426 8.13689 19.0426Z" fill="#877CFF"/>
<path d="M13.9423 17.2648C14.6476 17.2648 15.2195 16.693 15.2195 15.9876C15.2195 15.2823 14.6476 14.7104 13.9423 14.7104C13.2369 14.7104 12.6651 15.2823 12.6651 15.9876C12.6651 16.693 13.2369 17.2648 13.9423 17.2648Z" fill="#77B1F4"/>
<path d="M11.9202 6.69592L11.9046 6.73261C11.8334 6.91777 11.7877 7.11557 11.7717 7.32172L11.7654 7.48571L9.36654 7.48507C9.35656 7.47784 9.34651 7.4707 9.33639 7.46365L9.33563 7.48571C9.33563 6.59893 9.59054 5.77168 10.0311 5.07324C10.8033 5.42803 11.4569 5.99366 11.9202 6.69592Z" fill="#4E43C1"/>
</svg>
