<svg width="355" height="141" viewBox="0 0 355 141" fill="none" xmlns="http://www.w3.org/2000/svg">
<rect y="51" width="328" height="56" fill="#3E485B"/>
<path fill-rule="evenodd" clip-rule="evenodd" d="M109.419 77.1367V88.603H90.3652L90.3652 77.1367H109.419ZM99.8923 80.9096C98.5262 80.9096 97.4187 81.9276 97.4187 83.1833C97.4187 84.439 98.5262 85.457 99.8923 85.457C101.258 85.457 102.366 84.439 102.366 83.1833C102.366 81.9276 101.258 80.9096 99.8923 80.9096Z" fill="#877CFF"/>
<path fill-rule="evenodd" clip-rule="evenodd" d="M114.999 67.7734V79.2397H95.9453V67.7734L114.999 67.7734ZM105.472 70.9581C104.106 70.9581 102.999 71.976 102.999 73.2318C102.999 74.4875 104.106 75.5054 105.472 75.5054C106.839 75.5054 107.946 74.4875 107.946 73.2318C107.946 71.976 106.839 70.9581 105.472 70.9581Z" fill="#77B1F4"/>
<path fill-rule="evenodd" clip-rule="evenodd" d="M95.9453 79.277V77.1367L109.408 77.1592L109.421 79.251L95.9453 79.277Z" fill="#4E43C1"/>
<ellipse cx="59.0317" cy="84.0698" rx="9.96824" ry="4.69094" fill="#CDBD88"/>
<ellipse cx="59.0317" cy="83.3482" rx="9.96824" ry="3.96925" fill="#FADA71"/>
<ellipse cx="59.0317" cy="80.4605" rx="9.96824" ry="4.69094" fill="#CDBD88"/>
<ellipse cx="59.0317" cy="79.02" rx="9.96824" ry="3.96925" fill="#FADA71"/>
<ellipse cx="59.0317" cy="75.4136" rx="9.96824" ry="4.69094" fill="#CDBD88"/>
<ellipse cx="59.0317" cy="73.9693" rx="9.96824" ry="3.96925" fill="#FADA71"/>
<path d="M318 119V37.9995L355 79.0001L318 119Z" fill="#3E485B"/>
<path fill-rule="evenodd" clip-rule="evenodd" d="M9.64421 73.7989C10.5866 73.2331 11.8096 73.5378 12.3758 74.4795C12.4148 74.5444 12.4502 74.6116 12.4816 74.6806L16.2361 82.9308C16.3983 83.2873 16.2672 83.7088 15.9312 83.9105C15.5929 84.1136 15.1566 84.0372 14.9075 83.7313L9.14412 76.651C8.47574 75.8299 8.60005 74.6228 9.42179 73.9549C9.49215 73.8977 9.56647 73.8456 9.64421 73.7989Z" fill="#77B1F4"/>
<path fill-rule="evenodd" clip-rule="evenodd" d="M28.3558 73.7989C27.4134 73.2331 26.1904 73.5378 25.6242 74.4795C25.5851 74.5444 25.5498 74.6116 25.5184 74.6806L21.7639 82.9308C21.6017 83.2873 21.7328 83.7088 22.0688 83.9105C22.4071 84.1136 22.8434 84.0372 23.0925 83.7313L28.8559 76.651C29.5243 75.8299 29.3999 74.6228 28.5782 73.9549C28.5079 73.8977 28.4335 73.8456 28.3558 73.7989Z" fill="#77B1F4"/>
<path fill-rule="evenodd" clip-rule="evenodd" d="M16.3214 70.7458C15.3405 70.4653 14.4238 70.3952 13.5713 70.5354C12.2925 70.7458 10.6219 71.8686 11.4661 74.3238C12.0289 75.9606 13.5239 79.2314 15.9512 84.1362L14.5893 85.3952C14.3635 85.5847 14.2733 85.8377 14.3186 86.1543C14.364 86.4709 14.5157 86.6399 14.7736 86.6613H23.2501C23.6143 86.6571 23.8369 86.513 23.918 86.229C23.9991 85.945 23.945 85.7231 23.7558 85.5634L22.083 84.1362L26.6333 74.577C26.857 73.7938 26.9129 73.1638 26.8011 72.687C26.6892 72.2103 26.4448 71.771 26.068 71.3694C25.0362 70.5467 23.7079 70.2687 22.083 70.5354C20.4581 70.8021 18.5375 70.8723 16.3214 70.7458Z" fill="#877CFF"/>
<path fill-rule="evenodd" clip-rule="evenodd" d="M19.0071 67.3867C20.9108 67.3867 22.4541 68.9288 22.4541 70.8311C22.4541 70.9623 22.4466 71.0934 22.4316 71.2238L20.6408 86.8152C20.5634 87.489 19.9926 87.9976 19.3139 87.9976C18.6305 87.9976 18.051 87.4954 17.9545 86.8194L15.7193 71.1743C15.4601 69.3599 16.7219 67.679 18.5377 67.42C18.6932 67.3978 18.85 67.3867 19.0071 67.3867Z" fill="#77B1F4"/>
<path fill-rule="evenodd" clip-rule="evenodd" d="M26.8363 73.5742C26.805 73.8735 26.7371 74.2062 26.6325 74.5724L22.1658 83.956C22.133 83.942 22.1008 83.9255 22.0695 83.9067C21.7335 83.705 21.6024 83.2836 21.7646 82.927L25.5191 74.6768C25.5505 74.6078 25.5858 74.5407 25.6249 74.4757C25.8994 74.0191 26.3283 73.7123 26.8048 73.5818L26.8363 73.5742Z" fill="#4E43C1"/>
<path fill-rule="evenodd" clip-rule="evenodd" d="M12.376 74.4766C12.4151 74.5416 12.4504 74.6087 12.4818 74.6777L16.2363 82.9279C16.3986 83.2845 16.2674 83.7059 15.9314 83.9076C15.9076 83.9219 15.8832 83.9349 15.8584 83.9465C13.4853 79.1446 12.021 75.9361 11.4654 74.3202C11.3791 74.0691 11.3191 73.832 11.2822 73.6084C11.7245 73.7513 12.1183 74.048 12.376 74.4766Z" fill="#4E43C1"/>
<path fill-rule="evenodd" clip-rule="evenodd" d="M135.776 78.9961H142.203V87.0019H132.392L135.776 78.9961Z" fill="#F2D268"/>
<path fill-rule="evenodd" clip-rule="evenodd" d="M148.482 78.9961H142.055V87.0019H151.866L148.482 78.9961Z" fill="#CDBD88"/>
<path fill-rule="evenodd" clip-rule="evenodd" d="M155.303 78.9722H161.729V86.978H151.918L155.303 78.9722Z" fill="#F2D268"/>
<path fill-rule="evenodd" clip-rule="evenodd" d="M168.008 78.9722H161.581V86.978H171.393L168.008 78.9722Z" fill="#CDBD88"/>
<path fill-rule="evenodd" clip-rule="evenodd" d="M145.463 71H151.89V79.0058H142.078L145.463 71Z" fill="#F2D268"/>
<path fill-rule="evenodd" clip-rule="evenodd" d="M158.169 71H151.742V79.0058H161.554L158.169 71Z" fill="#CDBD88"/>
<path d="M217.08 70H189.789V87H217.08V70Z" fill="#77B1F4"/>
<path d="M217.086 73.3125H189.789V76.9476H217.086V73.3125Z" fill="#4E43C1"/>
<path d="M260 68.6523H237V83.1787H260V68.6523Z" fill="#877CFF"/>
<path fill-rule="evenodd" clip-rule="evenodd" d="M252.052 83.0469L252.052 85.0204L257.848 85.0208V87.0016H238.039V85.0208L244.821 85.0204L244.822 83.0469H252.052Z" fill="#77B1F4"/>
<path fill-rule="evenodd" clip-rule="evenodd" d="M252.062 79.5156L252.06 83.1465H244.799L244.799 79.5156H252.062Z" fill="#4E43C1"/>
<circle cx="297.5" cy="78.5" r="19.5" fill="#F7931A"/>
<path d="M304.774 76.3934C305.079 74.3956 303.53 73.3217 301.412 72.6052L302.099 69.899L300.422 69.4885L299.753 72.1234C299.312 72.0155 298.859 71.9137 298.409 71.8128L299.083 69.1605L297.406 68.75L296.719 71.4553C296.354 71.3736 295.996 71.293 295.648 71.208L295.65 71.1996L293.337 70.6323L292.89 72.3918C292.89 72.3918 294.135 72.6719 294.109 72.6892C294.788 72.8558 294.911 73.2973 294.89 73.6473L294.108 76.7302C294.155 76.742 294.215 76.7589 294.282 76.7851C294.226 76.7715 294.166 76.7565 294.105 76.742L293.008 81.0608C292.925 81.2634 292.714 81.5675 292.239 81.452C292.256 81.476 291.02 81.1532 291.02 81.1532L290.188 83.0388L292.37 83.5732C292.776 83.6731 293.174 83.7778 293.566 83.8763L292.872 86.6135L294.547 87.024L295.235 84.3159C295.692 84.4379 296.137 84.5505 296.571 84.6565L295.886 87.352L297.564 87.7625L298.258 85.0305C301.118 85.5621 303.269 85.3476 304.174 82.807C304.903 80.7614 304.137 79.5814 302.633 78.812C303.729 78.5638 304.554 77.8558 304.774 76.3934ZM300.942 81.6712C300.424 83.7168 296.917 82.6109 295.78 82.3336L296.701 78.7074C297.838 78.986 301.484 79.5378 300.942 81.6712ZM301.461 76.3638C300.988 78.2246 298.069 77.2792 297.122 77.0474L297.957 73.7585C298.904 73.9903 301.953 74.4228 301.461 76.3638Z" fill="white"/>
<path d="M12.4385 7.16895C12.4385 6.85645 12.3278 6.61556 12.1064 6.44629C11.8883 6.27702 11.4928 6.10612 10.9199 5.93359C10.347 5.76107 9.89128 5.56901 9.55273 5.35742C8.90495 4.95052 8.58105 4.41992 8.58105 3.76562C8.58105 3.19271 8.8138 2.7207 9.2793 2.34961C9.74805 1.97852 10.3551 1.79297 11.1006 1.79297C11.5954 1.79297 12.0365 1.88411 12.4238 2.06641C12.8112 2.2487 13.1156 2.50911 13.3369 2.84766C13.5583 3.18294 13.6689 3.55566 13.6689 3.96582H12.4385C12.4385 3.59473 12.3213 3.30501 12.0869 3.09668C11.8558 2.88509 11.5238 2.7793 11.0908 2.7793C10.6872 2.7793 10.373 2.86556 10.1484 3.03809C9.92708 3.21061 9.81641 3.4515 9.81641 3.76074C9.81641 4.02116 9.93685 4.23926 10.1777 4.41504C10.4186 4.58757 10.8158 4.75684 11.3691 4.92285C11.9225 5.08561 12.3669 5.27279 12.7021 5.48438C13.0374 5.69271 13.2832 5.93359 13.4395 6.20703C13.5957 6.47721 13.6738 6.7946 13.6738 7.15918C13.6738 7.75163 13.446 8.22363 12.9902 8.5752C12.5378 8.9235 11.9225 9.09766 11.1445 9.09766C10.6302 9.09766 10.1566 9.00326 9.72363 8.81445C9.29395 8.6224 8.95866 8.35872 8.71777 8.02344C8.48014 7.68815 8.36133 7.29753 8.36133 6.85156H9.59668C9.59668 7.25521 9.73014 7.56771 9.99707 7.78906C10.264 8.01042 10.6465 8.12109 11.1445 8.12109C11.5742 8.12109 11.8965 8.03483 12.1113 7.8623C12.3294 7.68652 12.4385 7.4554 12.4385 7.16895ZM15.8125 4.29297C16.1999 3.84375 16.6898 3.61914 17.2822 3.61914C18.4085 3.61914 18.9798 4.26204 18.9961 5.54785V9H17.8096V5.5918C17.8096 5.22721 17.7298 4.97005 17.5703 4.82031C17.4141 4.66732 17.1829 4.59082 16.877 4.59082C16.4017 4.59082 16.0469 4.80241 15.8125 5.22559V9H14.626V1.5H15.8125V4.29297ZM22.5264 9.09766C21.7744 9.09766 21.1641 8.86165 20.6953 8.38965C20.2298 7.91439 19.9971 7.28288 19.9971 6.49512V6.34863C19.9971 5.82129 20.098 5.35091 20.2998 4.9375C20.5049 4.52083 20.7913 4.19694 21.1592 3.96582C21.527 3.7347 21.9372 3.61914 22.3896 3.61914C23.109 3.61914 23.6641 3.84863 24.0547 4.30762C24.4486 4.7666 24.6455 5.41602 24.6455 6.25586V6.73438H21.1934C21.2292 7.17057 21.374 7.51562 21.6279 7.76953C21.8851 8.02344 22.2074 8.15039 22.5947 8.15039C23.1383 8.15039 23.5811 7.93066 23.9229 7.49121L24.5625 8.10156C24.3509 8.41732 24.0677 8.66309 23.7129 8.83887C23.3613 9.01139 22.9658 9.09766 22.5264 9.09766ZM22.3848 4.57129C22.0592 4.57129 21.7956 4.68522 21.5938 4.91309C21.3952 5.14095 21.2682 5.45833 21.2129 5.86523H23.4736V5.77734C23.4476 5.38021 23.3418 5.08073 23.1562 4.87891C22.9707 4.67383 22.7135 4.57129 22.3848 4.57129ZM26.833 9H25.6465V1.5H26.833V9ZM29.3916 9H28.2051V1.5H29.3916V9ZM9.72363 14.7168L9.75781 15.2686C10.1289 14.8356 10.6367 14.6191 11.2812 14.6191C11.9876 14.6191 12.471 14.8893 12.7314 15.4297C13.1156 14.8893 13.6559 14.6191 14.3525 14.6191C14.9352 14.6191 15.3682 14.7803 15.6514 15.1025C15.9378 15.4248 16.0843 15.9001 16.0908 16.5283V20H14.9043V16.5625C14.9043 16.2272 14.8311 15.9814 14.6846 15.8252C14.5381 15.6689 14.2956 15.5908 13.957 15.5908C13.6868 15.5908 13.4655 15.6641 13.293 15.8105C13.1237 15.9538 13.0049 16.1426 12.9365 16.377L12.9414 20H11.7549V16.5234C11.7386 15.9017 11.4212 15.5908 10.8027 15.5908C10.3275 15.5908 9.99056 15.7845 9.79199 16.1719V20H8.60547V14.7168H9.72363ZM17.0869 17.3096C17.0869 16.792 17.1895 16.3265 17.3945 15.9131C17.5996 15.4964 17.8877 15.1774 18.2588 14.9561C18.6299 14.7314 19.0563 14.6191 19.5381 14.6191C20.251 14.6191 20.8288 14.8486 21.2715 15.3076C21.7174 15.7666 21.9583 16.3753 21.9941 17.1338L21.999 17.4121C21.999 17.9329 21.8981 18.3984 21.6963 18.8086C21.4977 19.2188 21.2113 19.5361 20.8369 19.7607C20.4658 19.9854 20.0361 20.0977 19.5479 20.0977C18.8024 20.0977 18.2051 19.8503 17.7559 19.3555C17.3099 18.8574 17.0869 18.195 17.0869 17.3682V17.3096ZM18.2734 17.4121C18.2734 17.9557 18.3857 18.3822 18.6104 18.6914C18.835 18.9974 19.1475 19.1504 19.5479 19.1504C19.9482 19.1504 20.2591 18.9941 20.4805 18.6816C20.7051 18.3691 20.8174 17.9118 20.8174 17.3096C20.8174 16.7757 20.7018 16.3525 20.4707 16.04C20.2428 15.7275 19.932 15.5713 19.5381 15.5713C19.1507 15.5713 18.8431 15.7259 18.6152 16.0352C18.3874 16.3411 18.2734 16.8001 18.2734 17.4121ZM24.1035 14.7168L24.1377 15.3271C24.5283 14.8551 25.041 14.6191 25.6758 14.6191C26.776 14.6191 27.3359 15.249 27.3555 16.5088V20H26.1689V16.5771C26.1689 16.2419 26.0957 15.9945 25.9492 15.835C25.806 15.6722 25.57 15.5908 25.2412 15.5908C24.7627 15.5908 24.4062 15.8073 24.1719 16.2402V20H22.9854V14.7168H24.1035ZM30.8955 20.0977C30.1436 20.0977 29.5332 19.8617 29.0645 19.3896C28.599 18.9144 28.3662 18.2829 28.3662 17.4951V17.3486C28.3662 16.8213 28.4671 16.3509 28.6689 15.9375C28.874 15.5208 29.1605 15.1969 29.5283 14.9658C29.8962 14.7347 30.3063 14.6191 30.7588 14.6191C31.4782 14.6191 32.0332 14.8486 32.4238 15.3076C32.8177 15.7666 33.0146 16.416 33.0146 17.2559V17.7344H29.5625C29.5983 18.1706 29.7432 18.5156 29.9971 18.7695C30.2542 19.0234 30.5765 19.1504 30.9639 19.1504C31.5075 19.1504 31.9502 18.9307 32.292 18.4912L32.9316 19.1016C32.7201 19.4173 32.4368 19.6631 32.082 19.8389C31.7305 20.0114 31.335 20.0977 30.8955 20.0977ZM30.7539 15.5713C30.4284 15.5713 30.1647 15.6852 29.9629 15.9131C29.7643 16.141 29.6374 16.4583 29.582 16.8652H31.8428V16.7773C31.8167 16.3802 31.7109 16.0807 31.5254 15.8789C31.3398 15.6738 31.0827 15.5713 30.7539 15.5713ZM35.7197 18.3008L36.7939 14.7168H38.0586L35.959 20.8008C35.6367 21.6895 35.0898 22.1338 34.3184 22.1338C34.1458 22.1338 33.9554 22.1045 33.7471 22.0459V21.1279L33.9717 21.1426C34.2712 21.1426 34.4958 21.0872 34.6455 20.9766C34.7985 20.8691 34.9189 20.6868 35.0068 20.4297L35.1777 19.9756L33.3223 14.7168H34.6016L35.7197 18.3008Z" fill="white"/>
<path d="M55.1475 6.68555C55.0758 7.44401 54.7959 8.03646 54.3076 8.46289C53.8193 8.88607 53.1699 9.09766 52.3594 9.09766C51.793 9.09766 51.2933 8.96419 50.8604 8.69727C50.4307 8.42708 50.0986 8.0446 49.8643 7.5498C49.6299 7.05501 49.5078 6.48047 49.498 5.82617V5.16211C49.498 4.49154 49.6169 3.90072 49.8545 3.38965C50.0921 2.87858 50.4323 2.4847 50.875 2.20801C51.321 1.93132 51.8353 1.79297 52.418 1.79297C53.2025 1.79297 53.834 2.00618 54.3125 2.43262C54.791 2.85905 55.0693 3.46126 55.1475 4.23926H53.917C53.8584 3.72819 53.7087 3.36035 53.4678 3.13574C53.2301 2.90788 52.8802 2.79395 52.418 2.79395C51.8809 2.79395 51.4674 2.99089 51.1777 3.38477C50.8913 3.77539 50.7448 4.34993 50.7383 5.1084V5.73828C50.7383 6.50651 50.875 7.09245 51.1484 7.49609C51.4251 7.89974 51.8288 8.10156 52.3594 8.10156C52.8444 8.10156 53.209 7.99251 53.4531 7.77441C53.6973 7.55632 53.8519 7.19336 53.917 6.68555H55.1475ZM55.9189 6.30957C55.9189 5.79199 56.0215 5.3265 56.2266 4.91309C56.4316 4.49642 56.7197 4.17741 57.0908 3.95605C57.4619 3.73145 57.8883 3.61914 58.3701 3.61914C59.083 3.61914 59.6608 3.84863 60.1035 4.30762C60.5495 4.7666 60.7904 5.37533 60.8262 6.13379L60.8311 6.41211C60.8311 6.93294 60.7301 7.39844 60.5283 7.80859C60.3298 8.21875 60.0433 8.53613 59.6689 8.76074C59.2979 8.98535 58.8682 9.09766 58.3799 9.09766C57.6344 9.09766 57.0371 8.85026 56.5879 8.35547C56.1419 7.85742 55.9189 7.19499 55.9189 6.36816V6.30957ZM57.1055 6.41211C57.1055 6.95573 57.2178 7.38216 57.4424 7.69141C57.667 7.9974 57.9795 8.15039 58.3799 8.15039C58.7803 8.15039 59.0911 7.99414 59.3125 7.68164C59.5371 7.36914 59.6494 6.91178 59.6494 6.30957C59.6494 5.77572 59.5339 5.35254 59.3027 5.04004C59.0749 4.72754 58.764 4.57129 58.3701 4.57129C57.9827 4.57129 57.6751 4.72591 57.4473 5.03516C57.2194 5.34115 57.1055 5.80013 57.1055 6.41211ZM63.0967 9H61.9102V3.7168H63.0967V9ZM61.8369 2.34473C61.8369 2.16243 61.8939 2.01107 62.0078 1.89062C62.125 1.77018 62.291 1.70996 62.5059 1.70996C62.7207 1.70996 62.8867 1.77018 63.0039 1.89062C63.1211 2.01107 63.1797 2.16243 63.1797 2.34473C63.1797 2.52376 63.1211 2.6735 63.0039 2.79395C62.8867 2.91113 62.7207 2.96973 62.5059 2.96973C62.291 2.96973 62.125 2.91113 62.0078 2.79395C61.8939 2.6735 61.8369 2.52376 61.8369 2.34473ZM65.4941 3.7168L65.5283 4.32715C65.9189 3.85514 66.4316 3.61914 67.0664 3.61914C68.1667 3.61914 68.7266 4.24902 68.7461 5.50879V9H67.5596V5.57715C67.5596 5.24186 67.4863 4.99447 67.3398 4.83496C67.1966 4.6722 66.9606 4.59082 66.6318 4.59082C66.1533 4.59082 65.7969 4.80729 65.5625 5.24023V9H64.376V3.7168H65.4941ZM50.7236 14.7168L50.7578 15.2686C51.1289 14.8356 51.6367 14.6191 52.2812 14.6191C52.9876 14.6191 53.471 14.8893 53.7314 15.4297C54.1156 14.8893 54.6559 14.6191 55.3525 14.6191C55.9352 14.6191 56.3682 14.7803 56.6514 15.1025C56.9378 15.4248 57.0843 15.9001 57.0908 16.5283V20H55.9043V16.5625C55.9043 16.2272 55.8311 15.9814 55.6846 15.8252C55.5381 15.6689 55.2956 15.5908 54.957 15.5908C54.6868 15.5908 54.4655 15.6641 54.293 15.8105C54.1237 15.9538 54.0049 16.1426 53.9365 16.377L53.9414 20H52.7549V16.5234C52.7386 15.9017 52.4212 15.5908 51.8027 15.5908C51.3275 15.5908 50.9906 15.7845 50.792 16.1719V20H49.6055V14.7168H50.7236ZM58.0869 17.3096C58.0869 16.792 58.1895 16.3265 58.3945 15.9131C58.5996 15.4964 58.8877 15.1774 59.2588 14.9561C59.6299 14.7314 60.0563 14.6191 60.5381 14.6191C61.251 14.6191 61.8288 14.8486 62.2715 15.3076C62.7174 15.7666 62.9583 16.3753 62.9941 17.1338L62.999 17.4121C62.999 17.9329 62.8981 18.3984 62.6963 18.8086C62.4977 19.2188 62.2113 19.5361 61.8369 19.7607C61.4658 19.9854 61.0361 20.0977 60.5479 20.0977C59.8024 20.0977 59.2051 19.8503 58.7559 19.3555C58.3099 18.8574 58.0869 18.195 58.0869 17.3682V17.3096ZM59.2734 17.4121C59.2734 17.9557 59.3857 18.3822 59.6104 18.6914C59.835 18.9974 60.1475 19.1504 60.5479 19.1504C60.9482 19.1504 61.2591 18.9941 61.4805 18.6816C61.7051 18.3691 61.8174 17.9118 61.8174 17.3096C61.8174 16.7757 61.7018 16.3525 61.4707 16.04C61.2428 15.7275 60.932 15.5713 60.5381 15.5713C60.1507 15.5713 59.8431 15.7259 59.6152 16.0352C59.3874 16.3411 59.2734 16.8001 59.2734 17.4121ZM65.1035 14.7168L65.1377 15.3271C65.5283 14.8551 66.041 14.6191 66.6758 14.6191C67.776 14.6191 68.3359 15.249 68.3555 16.5088V20H67.1689V16.5771C67.1689 16.2419 67.0957 15.9945 66.9492 15.835C66.806 15.6722 66.57 15.5908 66.2412 15.5908C65.7627 15.5908 65.4062 15.8073 65.1719 16.2402V20H63.9854V14.7168H65.1035ZM71.8955 20.0977C71.1436 20.0977 70.5332 19.8617 70.0645 19.3896C69.599 18.9144 69.3662 18.2829 69.3662 17.4951V17.3486C69.3662 16.8213 69.4671 16.3509 69.6689 15.9375C69.874 15.5208 70.1605 15.1969 70.5283 14.9658C70.8962 14.7347 71.3063 14.6191 71.7588 14.6191C72.4782 14.6191 73.0332 14.8486 73.4238 15.3076C73.8177 15.7666 74.0146 16.416 74.0146 17.2559V17.7344H70.5625C70.5983 18.1706 70.7432 18.5156 70.9971 18.7695C71.2542 19.0234 71.5765 19.1504 71.9639 19.1504C72.5075 19.1504 72.9502 18.9307 73.292 18.4912L73.9316 19.1016C73.7201 19.4173 73.4368 19.6631 73.082 19.8389C72.7305 20.0114 72.335 20.0977 71.8955 20.0977ZM71.7539 15.5713C71.4284 15.5713 71.1647 15.6852 70.9629 15.9131C70.7643 16.141 70.6374 16.4583 70.582 16.8652H72.8428V16.7773C72.8167 16.3802 72.7109 16.0807 72.5254 15.8789C72.3398 15.6738 72.0827 15.5713 71.7539 15.5713ZM76.7197 18.3008L77.7939 14.7168H79.0586L76.959 20.8008C76.6367 21.6895 76.0898 22.1338 75.3184 22.1338C75.1458 22.1338 74.9554 22.1045 74.7471 22.0459V21.1279L74.9717 21.1426C75.2712 21.1426 75.4958 21.0872 75.6455 20.9766C75.7985 20.8691 75.9189 20.6868 76.0068 20.4297L76.1777 19.9756L74.3223 14.7168H75.6016L76.7197 18.3008Z" fill="white"/>
<path d="M93.958 6.3584V9H92.7227V1.89062H95.4424C96.2367 1.89062 96.8665 2.09733 97.332 2.51074C97.8008 2.92415 98.0352 3.47103 98.0352 4.15137C98.0352 4.84798 97.8057 5.38997 97.3467 5.77734C96.891 6.16471 96.2513 6.3584 95.4277 6.3584H93.958ZM93.958 5.36719H95.4424C95.8818 5.36719 96.2171 5.26465 96.4482 5.05957C96.6794 4.85124 96.7949 4.55176 96.7949 4.16113C96.7949 3.77702 96.6777 3.47103 96.4434 3.24316C96.209 3.01204 95.8867 2.89323 95.4766 2.88672H93.958V5.36719ZM102.103 9C102.05 8.89909 102.005 8.7347 101.966 8.50684C101.588 8.90072 101.126 9.09766 100.579 9.09766C100.049 9.09766 99.6156 8.94629 99.2803 8.64355C98.945 8.34082 98.7773 7.96647 98.7773 7.52051C98.7773 6.95736 98.9857 6.52604 99.4023 6.22656C99.8223 5.92383 100.421 5.77246 101.199 5.77246H101.927V5.42578C101.927 5.15234 101.85 4.93424 101.697 4.77148C101.544 4.60547 101.312 4.52246 100.999 4.52246C100.729 4.52246 100.507 4.59082 100.335 4.72754C100.162 4.861 100.076 5.0319 100.076 5.24023H98.8896C98.8896 4.95052 98.9857 4.68034 99.1777 4.42969C99.3698 4.17578 99.6302 3.97721 99.959 3.83398C100.291 3.69076 100.66 3.61914 101.067 3.61914C101.686 3.61914 102.179 3.77539 102.547 4.08789C102.915 4.39714 103.104 4.83333 103.113 5.39648V7.7793C103.113 8.25456 103.18 8.63379 103.313 8.91699V9H102.103ZM100.799 8.14551C101.033 8.14551 101.253 8.08854 101.458 7.97461C101.666 7.86068 101.823 7.70768 101.927 7.51562V6.51953H101.287C100.848 6.51953 100.517 6.59603 100.296 6.74902C100.075 6.90202 99.9639 7.11849 99.9639 7.39844C99.9639 7.6263 100.039 7.80859 100.188 7.94531C100.341 8.07878 100.545 8.14551 100.799 8.14551ZM108.982 6.41211C108.982 7.22917 108.797 7.88184 108.426 8.37012C108.055 8.85514 107.557 9.09766 106.932 9.09766C106.352 9.09766 105.888 8.90723 105.54 8.52637V11.0312H104.354V3.7168H105.447L105.496 4.25391C105.844 3.83073 106.318 3.61914 106.917 3.61914C107.562 3.61914 108.066 3.86003 108.431 4.3418C108.799 4.82031 108.982 5.486 108.982 6.33887V6.41211ZM107.801 6.30957C107.801 5.78223 107.695 5.36393 107.483 5.05469C107.275 4.74544 106.976 4.59082 106.585 4.59082C106.1 4.59082 105.752 4.79102 105.54 5.19141V7.53516C105.755 7.94531 106.106 8.15039 106.595 8.15039C106.972 8.15039 107.267 7.99902 107.479 7.69629C107.693 7.3903 107.801 6.92806 107.801 6.30957ZM112.317 9.09766C111.565 9.09766 110.955 8.86165 110.486 8.38965C110.021 7.91439 109.788 7.28288 109.788 6.49512V6.34863C109.788 5.82129 109.889 5.35091 110.091 4.9375C110.296 4.52083 110.582 4.19694 110.95 3.96582C111.318 3.7347 111.728 3.61914 112.181 3.61914C112.9 3.61914 113.455 3.84863 113.846 4.30762C114.24 4.7666 114.437 5.41602 114.437 6.25586V6.73438H110.984C111.02 7.17057 111.165 7.51562 111.419 7.76953C111.676 8.02344 111.998 8.15039 112.386 8.15039C112.929 8.15039 113.372 7.93066 113.714 7.49121L114.354 8.10156C114.142 8.41732 113.859 8.66309 113.504 8.83887C113.152 9.01139 112.757 9.09766 112.317 9.09766ZM112.176 4.57129C111.85 4.57129 111.587 4.68522 111.385 4.91309C111.186 5.14095 111.059 5.45833 111.004 5.86523H113.265V5.77734C113.239 5.38021 113.133 5.08073 112.947 4.87891C112.762 4.67383 112.505 4.57129 112.176 4.57129ZM118.128 4.80078C117.972 4.77474 117.811 4.76172 117.645 4.76172C117.101 4.76172 116.735 4.97005 116.546 5.38672V9H115.359V3.7168H116.492L116.521 4.30762C116.808 3.84863 117.205 3.61914 117.713 3.61914C117.882 3.61914 118.022 3.64193 118.133 3.6875L118.128 4.80078ZM93.7236 14.7168L93.7578 15.2686C94.1289 14.8356 94.6367 14.6191 95.2812 14.6191C95.9876 14.6191 96.471 14.8893 96.7314 15.4297C97.1156 14.8893 97.6559 14.6191 98.3525 14.6191C98.9352 14.6191 99.3682 14.7803 99.6514 15.1025C99.9378 15.4248 100.084 15.9001 100.091 16.5283V20H98.9043V16.5625C98.9043 16.2272 98.8311 15.9814 98.6846 15.8252C98.5381 15.6689 98.2956 15.5908 97.957 15.5908C97.6868 15.5908 97.4655 15.6641 97.293 15.8105C97.1237 15.9538 97.0049 16.1426 96.9365 16.377L96.9414 20H95.7549V16.5234C95.7386 15.9017 95.4212 15.5908 94.8027 15.5908C94.3275 15.5908 93.9906 15.7845 93.792 16.1719V20H92.6055V14.7168H93.7236ZM101.087 17.3096C101.087 16.792 101.189 16.3265 101.395 15.9131C101.6 15.4964 101.888 15.1774 102.259 14.9561C102.63 14.7314 103.056 14.6191 103.538 14.6191C104.251 14.6191 104.829 14.8486 105.271 15.3076C105.717 15.7666 105.958 16.3753 105.994 17.1338L105.999 17.4121C105.999 17.9329 105.898 18.3984 105.696 18.8086C105.498 19.2188 105.211 19.5361 104.837 19.7607C104.466 19.9854 104.036 20.0977 103.548 20.0977C102.802 20.0977 102.205 19.8503 101.756 19.3555C101.31 18.8574 101.087 18.195 101.087 17.3682V17.3096ZM102.273 17.4121C102.273 17.9557 102.386 18.3822 102.61 18.6914C102.835 18.9974 103.147 19.1504 103.548 19.1504C103.948 19.1504 104.259 18.9941 104.48 18.6816C104.705 18.3691 104.817 17.9118 104.817 17.3096C104.817 16.7757 104.702 16.3525 104.471 16.04C104.243 15.7275 103.932 15.5713 103.538 15.5713C103.151 15.5713 102.843 15.7259 102.615 16.0352C102.387 16.3411 102.273 16.8001 102.273 17.4121ZM108.104 14.7168L108.138 15.3271C108.528 14.8551 109.041 14.6191 109.676 14.6191C110.776 14.6191 111.336 15.249 111.355 16.5088V20H110.169V16.5771C110.169 16.2419 110.096 15.9945 109.949 15.835C109.806 15.6722 109.57 15.5908 109.241 15.5908C108.763 15.5908 108.406 15.8073 108.172 16.2402V20H106.985V14.7168H108.104ZM114.896 20.0977C114.144 20.0977 113.533 19.8617 113.064 19.3896C112.599 18.9144 112.366 18.2829 112.366 17.4951V17.3486C112.366 16.8213 112.467 16.3509 112.669 15.9375C112.874 15.5208 113.16 15.1969 113.528 14.9658C113.896 14.7347 114.306 14.6191 114.759 14.6191C115.478 14.6191 116.033 14.8486 116.424 15.3076C116.818 15.7666 117.015 16.416 117.015 17.2559V17.7344H113.562C113.598 18.1706 113.743 18.5156 113.997 18.7695C114.254 19.0234 114.576 19.1504 114.964 19.1504C115.507 19.1504 115.95 18.9307 116.292 18.4912L116.932 19.1016C116.72 19.4173 116.437 19.6631 116.082 19.8389C115.73 20.0114 115.335 20.0977 114.896 20.0977ZM114.754 15.5713C114.428 15.5713 114.165 15.6852 113.963 15.9131C113.764 16.141 113.637 16.4583 113.582 16.8652H115.843V16.7773C115.817 16.3802 115.711 16.0807 115.525 15.8789C115.34 15.6738 115.083 15.5713 114.754 15.5713ZM119.72 18.3008L120.794 14.7168H122.059L119.959 20.8008C119.637 21.6895 119.09 22.1338 118.318 22.1338C118.146 22.1338 117.955 22.1045 117.747 22.0459V21.1279L117.972 21.1426C118.271 21.1426 118.496 21.0872 118.646 20.9766C118.799 20.8691 118.919 20.6868 119.007 20.4297L119.178 19.9756L117.322 14.7168H118.602L119.72 18.3008Z" fill="white"/>
<path d="M148.172 8.07715C147.915 8.41243 147.558 8.66634 147.103 8.83887C146.647 9.01139 146.129 9.09766 145.55 9.09766C144.954 9.09766 144.427 8.96257 143.968 8.69238C143.509 8.4222 143.154 8.03646 142.903 7.53516C142.656 7.0306 142.527 6.44303 142.518 5.77246V5.21582C142.518 4.1416 142.775 3.30339 143.289 2.70117C143.803 2.0957 144.521 1.79297 145.442 1.79297C146.233 1.79297 146.862 1.98828 147.327 2.37891C147.793 2.76953 148.073 3.33268 148.167 4.06836H146.956C146.819 3.21224 146.323 2.78418 145.467 2.78418C144.913 2.78418 144.492 2.98438 144.202 3.38477C143.916 3.7819 143.768 4.36621 143.758 5.1377V5.68457C143.758 6.4528 143.919 7.05013 144.241 7.47656C144.567 7.89974 145.018 8.11133 145.594 8.11133C146.225 8.11133 146.674 7.9681 146.941 7.68164V6.29004H145.477V5.35254H148.172V8.07715ZM149.192 6.30957C149.192 5.79199 149.295 5.3265 149.5 4.91309C149.705 4.49642 149.993 4.17741 150.364 3.95605C150.735 3.73145 151.162 3.61914 151.644 3.61914C152.356 3.61914 152.934 3.84863 153.377 4.30762C153.823 4.7666 154.064 5.37533 154.1 6.13379L154.104 6.41211C154.104 6.93294 154.004 7.39844 153.802 7.80859C153.603 8.21875 153.317 8.53613 152.942 8.76074C152.571 8.98535 152.142 9.09766 151.653 9.09766C150.908 9.09766 150.311 8.85026 149.861 8.35547C149.415 7.85742 149.192 7.19499 149.192 6.36816V6.30957ZM150.379 6.41211C150.379 6.95573 150.491 7.38216 150.716 7.69141C150.94 7.9974 151.253 8.15039 151.653 8.15039C152.054 8.15039 152.365 7.99414 152.586 7.68164C152.811 7.36914 152.923 6.91178 152.923 6.30957C152.923 5.77572 152.807 5.35254 152.576 5.04004C152.348 4.72754 152.037 4.57129 151.644 4.57129C151.256 4.57129 150.949 4.72591 150.721 5.03516C150.493 5.34115 150.379 5.80013 150.379 6.41211ZM156.37 9H155.184V1.5H156.37V9ZM157.444 6.31934C157.444 5.50553 157.633 4.85286 158.011 4.36133C158.388 3.86654 158.895 3.61914 159.529 3.61914C160.089 3.61914 160.542 3.81445 160.887 4.20508V1.5H162.073V9H160.999L160.94 8.45312C160.586 8.88281 160.112 9.09766 159.52 9.09766C158.901 9.09766 158.4 8.84863 158.016 8.35059C157.635 7.85254 157.444 7.17546 157.444 6.31934ZM158.631 6.42188C158.631 6.95898 158.733 7.37891 158.938 7.68164C159.147 7.98112 159.441 8.13086 159.822 8.13086C160.307 8.13086 160.662 7.91439 160.887 7.48145V5.22559C160.669 4.80241 160.317 4.59082 159.832 4.59082C159.448 4.59082 159.152 4.74382 158.943 5.0498C158.735 5.35254 158.631 5.8099 158.631 6.42188ZM145.569 18.5645C145.569 18.3529 145.481 18.1917 145.306 18.0811C145.133 17.9704 144.845 17.8727 144.441 17.7881C144.038 17.7035 143.701 17.596 143.431 17.4658C142.838 17.1794 142.542 16.7643 142.542 16.2207C142.542 15.765 142.734 15.3841 143.118 15.0781C143.502 14.7721 143.991 14.6191 144.583 14.6191C145.215 14.6191 145.724 14.7754 146.111 15.0879C146.502 15.4004 146.697 15.8057 146.697 16.3037H145.511C145.511 16.0758 145.426 15.887 145.257 15.7373C145.088 15.5843 144.863 15.5078 144.583 15.5078C144.323 15.5078 144.109 15.568 143.943 15.6885C143.781 15.8089 143.699 15.9701 143.699 16.1719C143.699 16.3542 143.776 16.4958 143.929 16.5967C144.082 16.6976 144.391 16.8001 144.856 16.9043C145.322 17.0052 145.687 17.1273 145.95 17.2705C146.217 17.4105 146.414 17.5798 146.541 17.7783C146.671 17.9769 146.736 18.2178 146.736 18.501C146.736 18.9762 146.539 19.362 146.146 19.6582C145.752 19.9512 145.236 20.0977 144.598 20.0977C144.165 20.0977 143.779 20.0195 143.44 19.8633C143.102 19.707 142.838 19.4922 142.649 19.2188C142.461 18.9453 142.366 18.6507 142.366 18.335H143.519C143.535 18.6149 143.641 18.8314 143.836 18.9844C144.031 19.1341 144.29 19.209 144.612 19.209C144.925 19.209 145.162 19.1504 145.325 19.0332C145.488 18.9128 145.569 18.7565 145.569 18.5645ZM149.261 13.4326V14.7168H150.193V15.5957H149.261V18.5449C149.261 18.7467 149.3 18.8932 149.378 18.9844C149.459 19.0723 149.603 19.1162 149.808 19.1162C149.944 19.1162 150.083 19.0999 150.223 19.0674V19.9854C149.952 20.0602 149.692 20.0977 149.441 20.0977C148.53 20.0977 148.074 19.5947 148.074 18.5889V15.5957H147.205V14.7168H148.074V13.4326H149.261ZM154.261 20C154.209 19.8991 154.163 19.7347 154.124 19.5068C153.746 19.9007 153.284 20.0977 152.737 20.0977C152.207 20.0977 151.774 19.9463 151.438 19.6436C151.103 19.3408 150.936 18.9665 150.936 18.5205C150.936 17.9574 151.144 17.526 151.561 17.2266C151.98 16.9238 152.579 16.7725 153.357 16.7725H154.085V16.4258C154.085 16.1523 154.008 15.9342 153.855 15.7715C153.702 15.6055 153.47 15.5225 153.157 15.5225C152.887 15.5225 152.666 15.5908 152.493 15.7275C152.321 15.861 152.234 16.0319 152.234 16.2402H151.048C151.048 15.9505 151.144 15.6803 151.336 15.4297C151.528 15.1758 151.788 14.9772 152.117 14.834C152.449 14.6908 152.819 14.6191 153.226 14.6191C153.844 14.6191 154.337 14.7754 154.705 15.0879C155.073 15.3971 155.262 15.8333 155.271 16.3965V18.7793C155.271 19.2546 155.338 19.6338 155.472 19.917V20H154.261ZM152.957 19.1455C153.191 19.1455 153.411 19.0885 153.616 18.9746C153.825 18.8607 153.981 18.7077 154.085 18.5156V17.5195H153.445C153.006 17.5195 152.675 17.596 152.454 17.749C152.233 17.902 152.122 18.1185 152.122 18.3984C152.122 18.6263 152.197 18.8086 152.347 18.9453C152.5 19.0788 152.703 19.1455 152.957 19.1455ZM157.615 14.7168L157.649 15.3271C158.04 14.8551 158.553 14.6191 159.188 14.6191C160.288 14.6191 160.848 15.249 160.867 16.5088V20H159.681V16.5771C159.681 16.2419 159.607 15.9945 159.461 15.835C159.318 15.6722 159.082 15.5908 158.753 15.5908C158.274 15.5908 157.918 15.8073 157.684 16.2402V20H156.497V14.7168H157.615ZM161.858 17.3193C161.858 16.5055 162.047 15.8529 162.425 15.3613C162.802 14.8665 163.309 14.6191 163.943 14.6191C164.503 14.6191 164.956 14.8145 165.301 15.2051V12.5H166.487V20H165.413L165.354 19.4531C165 19.8828 164.526 20.0977 163.934 20.0977C163.315 20.0977 162.814 19.8486 162.43 19.3506C162.049 18.8525 161.858 18.1755 161.858 17.3193ZM163.045 17.4219C163.045 17.959 163.147 18.3789 163.353 18.6816C163.561 18.9811 163.855 19.1309 164.236 19.1309C164.721 19.1309 165.076 18.9144 165.301 18.4814V16.2256C165.083 15.8024 164.731 15.5908 164.246 15.5908C163.862 15.5908 163.566 15.7438 163.357 16.0498C163.149 16.3525 163.045 16.8099 163.045 17.4219ZM170.882 20C170.83 19.8991 170.784 19.7347 170.745 19.5068C170.368 19.9007 169.905 20.0977 169.358 20.0977C168.828 20.0977 168.395 19.9463 168.06 19.6436C167.724 19.3408 167.557 18.9665 167.557 18.5205C167.557 17.9574 167.765 17.526 168.182 17.2266C168.602 16.9238 169.201 16.7725 169.979 16.7725H170.706V16.4258C170.706 16.1523 170.63 15.9342 170.477 15.7715C170.324 15.6055 170.091 15.5225 169.778 15.5225C169.508 15.5225 169.287 15.5908 169.114 15.7275C168.942 15.861 168.855 16.0319 168.855 16.2402H167.669C167.669 15.9505 167.765 15.6803 167.957 15.4297C168.149 15.1758 168.41 14.9772 168.738 14.834C169.07 14.6908 169.44 14.6191 169.847 14.6191C170.465 14.6191 170.958 14.7754 171.326 15.0879C171.694 15.3971 171.883 15.8333 171.893 16.3965V18.7793C171.893 19.2546 171.959 19.6338 172.093 19.917V20H170.882ZM169.578 19.1455C169.812 19.1455 170.032 19.0885 170.237 18.9746C170.446 18.8607 170.602 18.7077 170.706 18.5156V17.5195H170.066C169.627 17.5195 169.297 17.596 169.075 17.749C168.854 17.902 168.743 18.1185 168.743 18.3984C168.743 18.6263 168.818 18.8086 168.968 18.9453C169.121 19.0788 169.324 19.1455 169.578 19.1455ZM175.901 15.8008C175.745 15.7747 175.584 15.7617 175.418 15.7617C174.874 15.7617 174.508 15.9701 174.319 16.3867V20H173.133V14.7168H174.266L174.295 15.3076C174.581 14.8486 174.979 14.6191 175.486 14.6191C175.656 14.6191 175.796 14.6419 175.906 14.6875L175.901 15.8008ZM176.331 17.3193C176.331 16.5055 176.52 15.8529 176.897 15.3613C177.275 14.8665 177.781 14.6191 178.416 14.6191C178.976 14.6191 179.428 14.8145 179.773 15.2051V12.5H180.96V20H179.886L179.827 19.4531C179.472 19.8828 178.999 20.0977 178.406 20.0977C177.788 20.0977 177.286 19.8486 176.902 19.3506C176.521 18.8525 176.331 18.1755 176.331 17.3193ZM177.518 17.4219C177.518 17.959 177.62 18.3789 177.825 18.6816C178.034 18.9811 178.328 19.1309 178.709 19.1309C179.194 19.1309 179.549 18.9144 179.773 18.4814V16.2256C179.555 15.8024 179.204 15.5908 178.719 15.5908C178.335 15.5908 178.038 15.7438 177.83 16.0498C177.622 16.3525 177.518 16.8099 177.518 17.4219Z" fill="white"/>
<path d="M198.147 6.68555C198.076 7.44401 197.796 8.03646 197.308 8.46289C196.819 8.88607 196.17 9.09766 195.359 9.09766C194.793 9.09766 194.293 8.96419 193.86 8.69727C193.431 8.42708 193.099 8.0446 192.864 7.5498C192.63 7.05501 192.508 6.48047 192.498 5.82617V5.16211C192.498 4.49154 192.617 3.90072 192.854 3.38965C193.092 2.87858 193.432 2.4847 193.875 2.20801C194.321 1.93132 194.835 1.79297 195.418 1.79297C196.202 1.79297 196.834 2.00618 197.312 2.43262C197.791 2.85905 198.069 3.46126 198.147 4.23926H196.917C196.858 3.72819 196.709 3.36035 196.468 3.13574C196.23 2.90788 195.88 2.79395 195.418 2.79395C194.881 2.79395 194.467 2.99089 194.178 3.38477C193.891 3.77539 193.745 4.34993 193.738 5.1084V5.73828C193.738 6.50651 193.875 7.09245 194.148 7.49609C194.425 7.89974 194.829 8.10156 195.359 8.10156C195.844 8.10156 196.209 7.99251 196.453 7.77441C196.697 7.55632 196.852 7.19336 196.917 6.68555H198.147ZM201.907 4.80078C201.751 4.77474 201.59 4.76172 201.424 4.76172C200.88 4.76172 200.514 4.97005 200.325 5.38672V9H199.139V3.7168H200.271L200.301 4.30762C200.587 3.84863 200.984 3.61914 201.492 3.61914C201.661 3.61914 201.801 3.64193 201.912 3.6875L201.907 4.80078ZM204.886 9.09766C204.134 9.09766 203.523 8.86165 203.055 8.38965C202.589 7.91439 202.356 7.28288 202.356 6.49512V6.34863C202.356 5.82129 202.457 5.35091 202.659 4.9375C202.864 4.52083 203.151 4.19694 203.519 3.96582C203.886 3.7347 204.297 3.61914 204.749 3.61914C205.468 3.61914 206.023 3.84863 206.414 4.30762C206.808 4.7666 207.005 5.41602 207.005 6.25586V6.73438H203.553C203.589 7.17057 203.733 7.51562 203.987 7.76953C204.244 8.02344 204.567 8.15039 204.954 8.15039C205.498 8.15039 205.94 7.93066 206.282 7.49121L206.922 8.10156C206.71 8.41732 206.427 8.66309 206.072 8.83887C205.721 9.01139 205.325 9.09766 204.886 9.09766ZM204.744 4.57129C204.419 4.57129 204.155 4.68522 203.953 4.91309C203.755 5.14095 203.628 5.45833 203.572 5.86523H205.833V5.77734C205.807 5.38021 205.701 5.08073 205.516 4.87891C205.33 4.67383 205.073 4.57129 204.744 4.57129ZM207.708 6.31934C207.708 5.50553 207.897 4.85286 208.274 4.36133C208.652 3.86654 209.158 3.61914 209.793 3.61914C210.353 3.61914 210.805 3.81445 211.15 4.20508V1.5H212.337V9H211.263L211.204 8.45312C210.849 8.88281 210.376 9.09766 209.783 9.09766C209.165 9.09766 208.663 8.84863 208.279 8.35059C207.898 7.85254 207.708 7.17546 207.708 6.31934ZM208.895 6.42188C208.895 6.95898 208.997 7.37891 209.202 7.68164C209.41 7.98112 209.705 8.13086 210.086 8.13086C210.571 8.13086 210.926 7.91439 211.15 7.48145V5.22559C210.932 4.80241 210.581 4.59082 210.096 4.59082C209.712 4.59082 209.415 4.74382 209.207 5.0498C208.999 5.35254 208.895 5.8099 208.895 6.42188ZM214.837 9H213.65V3.7168H214.837V9ZM213.577 2.34473C213.577 2.16243 213.634 2.01107 213.748 1.89062C213.865 1.77018 214.031 1.70996 214.246 1.70996C214.461 1.70996 214.627 1.77018 214.744 1.89062C214.861 2.01107 214.92 2.16243 214.92 2.34473C214.92 2.52376 214.861 2.6735 214.744 2.79395C214.627 2.91113 214.461 2.96973 214.246 2.96973C214.031 2.96973 213.865 2.91113 213.748 2.79395C213.634 2.6735 213.577 2.52376 213.577 2.34473ZM217.62 2.43262V3.7168H218.553V4.5957H217.62V7.54492C217.62 7.74674 217.659 7.89323 217.737 7.98438C217.819 8.07227 217.962 8.11621 218.167 8.11621C218.304 8.11621 218.442 8.09993 218.582 8.06738V8.98535C218.312 9.06022 218.051 9.09766 217.801 9.09766C216.889 9.09766 216.434 8.59473 216.434 7.58887V4.5957H215.564V3.7168H216.434V2.43262H217.62ZM194.778 19.1504C195.075 19.1504 195.32 19.0641 195.516 18.8916C195.711 18.7191 195.815 18.5059 195.828 18.252H196.946C196.933 18.5807 196.831 18.8883 196.639 19.1748C196.447 19.458 196.186 19.6826 195.857 19.8486C195.529 20.0146 195.174 20.0977 194.793 20.0977C194.054 20.0977 193.468 19.8584 193.035 19.3799C192.602 18.9014 192.386 18.2406 192.386 17.3975V17.2754C192.386 16.4714 192.601 15.8285 193.03 15.3467C193.46 14.8617 194.046 14.6191 194.788 14.6191C195.416 14.6191 195.927 14.8031 196.321 15.1709C196.718 15.5355 196.927 16.0156 196.946 16.6113H195.828C195.815 16.3086 195.711 16.0596 195.516 15.8643C195.324 15.6689 195.078 15.5713 194.778 15.5713C194.394 15.5713 194.098 15.7113 193.89 15.9912C193.681 16.2679 193.576 16.6895 193.572 17.2559V17.4463C193.572 18.0192 193.675 18.4473 193.88 18.7305C194.088 19.0104 194.388 19.1504 194.778 19.1504ZM200.999 20C200.947 19.8991 200.901 19.7347 200.862 19.5068C200.485 19.9007 200.022 20.0977 199.476 20.0977C198.945 20.0977 198.512 19.9463 198.177 19.6436C197.841 19.3408 197.674 18.9665 197.674 18.5205C197.674 17.9574 197.882 17.526 198.299 17.2266C198.719 16.9238 199.318 16.7725 200.096 16.7725H200.823V16.4258C200.823 16.1523 200.747 15.9342 200.594 15.7715C200.441 15.6055 200.208 15.5225 199.896 15.5225C199.625 15.5225 199.404 15.5908 199.231 15.7275C199.059 15.861 198.973 16.0319 198.973 16.2402H197.786C197.786 15.9505 197.882 15.6803 198.074 15.4297C198.266 15.1758 198.527 14.9772 198.855 14.834C199.188 14.6908 199.557 14.6191 199.964 14.6191C200.582 14.6191 201.076 14.7754 201.443 15.0879C201.811 15.3971 202 15.8333 202.01 16.3965V18.7793C202.01 19.2546 202.076 19.6338 202.21 19.917V20H200.999ZM199.695 19.1455C199.93 19.1455 200.149 19.0885 200.354 18.9746C200.563 18.8607 200.719 18.7077 200.823 18.5156V17.5195H200.184C199.744 17.5195 199.414 17.596 199.192 17.749C198.971 17.902 198.86 18.1185 198.86 18.3984C198.86 18.6263 198.935 18.8086 199.085 18.9453C199.238 19.0788 199.441 19.1455 199.695 19.1455ZM206.019 15.8008C205.862 15.7747 205.701 15.7617 205.535 15.7617C204.992 15.7617 204.625 15.9701 204.437 16.3867V20H203.25V14.7168H204.383L204.412 15.3076C204.699 14.8486 205.096 14.6191 205.604 14.6191C205.773 14.6191 205.913 14.6419 206.023 14.6875L206.019 15.8008ZM206.448 17.3193C206.448 16.5055 206.637 15.8529 207.015 15.3613C207.392 14.8665 207.898 14.6191 208.533 14.6191C209.093 14.6191 209.546 14.8145 209.891 15.2051V12.5H211.077V20H210.003L209.944 19.4531C209.59 19.8828 209.116 20.0977 208.523 20.0977C207.905 20.0977 207.404 19.8486 207.02 19.3506C206.639 18.8525 206.448 18.1755 206.448 17.3193ZM207.635 17.4219C207.635 17.959 207.737 18.3789 207.942 18.6816C208.151 18.9811 208.445 19.1309 208.826 19.1309C209.311 19.1309 209.666 18.9144 209.891 18.4814V16.2256C209.673 15.8024 209.321 15.5908 208.836 15.5908C208.452 15.5908 208.156 15.7438 207.947 16.0498C207.739 16.3525 207.635 16.8099 207.635 17.4219Z" fill="white"/>
<path d="M236.723 9V1.89062H238.822C239.451 1.89062 240.007 2.0306 240.492 2.31055C240.98 2.59049 241.358 2.98763 241.625 3.50195C241.892 4.01628 242.025 4.60547 242.025 5.26953V5.62598C242.025 6.2998 241.89 6.89225 241.62 7.40332C241.353 7.91439 240.971 8.30827 240.473 8.58496C239.978 8.86165 239.41 9 238.769 9H236.723ZM237.958 2.88672V8.01367H238.764C239.411 8.01367 239.908 7.81185 240.253 7.4082C240.601 7.0013 240.779 6.41862 240.785 5.66016V5.26465C240.785 4.49316 240.618 3.90397 240.282 3.49707C239.947 3.09017 239.46 2.88672 238.822 2.88672H237.958ZM244.403 9H243.217V3.7168H244.403V9ZM243.144 2.34473C243.144 2.16243 243.201 2.01107 243.314 1.89062C243.432 1.77018 243.598 1.70996 243.812 1.70996C244.027 1.70996 244.193 1.77018 244.311 1.89062C244.428 2.01107 244.486 2.16243 244.486 2.34473C244.486 2.52376 244.428 2.6735 244.311 2.79395C244.193 2.91113 244.027 2.96973 243.812 2.96973C243.598 2.96973 243.432 2.91113 243.314 2.79395C243.201 2.6735 243.144 2.52376 243.144 2.34473ZM245.492 6.31934C245.492 5.49902 245.684 4.84473 246.068 4.35645C246.456 3.86491 246.968 3.61914 247.606 3.61914C248.209 3.61914 248.682 3.8291 249.027 4.24902L249.081 3.7168H250.15V8.83887C250.15 9.53223 249.934 10.0791 249.501 10.4795C249.071 10.8799 248.49 11.0801 247.758 11.0801C247.37 11.0801 246.991 10.9987 246.62 10.8359C246.252 10.6764 245.972 10.4665 245.78 10.2061L246.342 9.49316C246.706 9.92611 247.156 10.1426 247.689 10.1426C248.083 10.1426 248.394 10.0352 248.622 9.82031C248.85 9.60872 248.964 9.29622 248.964 8.88281V8.52637C248.622 8.90723 248.166 9.09766 247.597 9.09766C246.978 9.09766 246.472 8.85189 246.078 8.36035C245.688 7.86882 245.492 7.18848 245.492 6.31934ZM246.674 6.42188C246.674 6.95247 246.781 7.37077 246.996 7.67676C247.214 7.97949 247.515 8.13086 247.899 8.13086C248.378 8.13086 248.733 7.92578 248.964 7.51562V5.19141C248.739 4.79102 248.388 4.59082 247.909 4.59082C247.519 4.59082 247.214 4.74544 246.996 5.05469C246.781 5.36393 246.674 5.81966 246.674 6.42188ZM252.636 9H251.449V3.7168H252.636V9ZM251.376 2.34473C251.376 2.16243 251.433 2.01107 251.547 1.89062C251.664 1.77018 251.83 1.70996 252.045 1.70996C252.26 1.70996 252.426 1.77018 252.543 1.89062C252.66 2.01107 252.719 2.16243 252.719 2.34473C252.719 2.52376 252.66 2.6735 252.543 2.79395C252.426 2.91113 252.26 2.96973 252.045 2.96973C251.83 2.96973 251.664 2.91113 251.547 2.79395C251.433 2.6735 251.376 2.52376 251.376 2.34473ZM255.419 2.43262V3.7168H256.352V4.5957H255.419V7.54492C255.419 7.74674 255.458 7.89323 255.536 7.98438C255.618 8.07227 255.761 8.11621 255.966 8.11621C256.103 8.11621 256.241 8.09993 256.381 8.06738V8.98535C256.111 9.06022 255.85 9.09766 255.6 9.09766C254.688 9.09766 254.232 8.59473 254.232 7.58887V4.5957H253.363V3.7168H254.232V2.43262H255.419ZM260.419 9C260.367 8.89909 260.321 8.7347 260.282 8.50684C259.905 8.90072 259.442 9.09766 258.896 9.09766C258.365 9.09766 257.932 8.94629 257.597 8.64355C257.261 8.34082 257.094 7.96647 257.094 7.52051C257.094 6.95736 257.302 6.52604 257.719 6.22656C258.139 5.92383 258.738 5.77246 259.516 5.77246H260.243V5.42578C260.243 5.15234 260.167 4.93424 260.014 4.77148C259.861 4.60547 259.628 4.52246 259.315 4.52246C259.045 4.52246 258.824 4.59082 258.651 4.72754C258.479 4.861 258.393 5.0319 258.393 5.24023H257.206C257.206 4.95052 257.302 4.68034 257.494 4.42969C257.686 4.17578 257.947 3.97721 258.275 3.83398C258.607 3.69076 258.977 3.61914 259.384 3.61914C260.002 3.61914 260.495 3.77539 260.863 4.08789C261.231 4.39714 261.42 4.83333 261.43 5.39648V7.7793C261.43 8.25456 261.496 8.63379 261.63 8.91699V9H260.419ZM259.115 8.14551C259.35 8.14551 259.569 8.08854 259.774 7.97461C259.983 7.86068 260.139 7.70768 260.243 7.51562V6.51953H259.604C259.164 6.51953 258.834 6.59603 258.612 6.74902C258.391 6.90202 258.28 7.11849 258.28 7.39844C258.28 7.6263 258.355 7.80859 258.505 7.94531C258.658 8.07878 258.861 8.14551 259.115 8.14551ZM263.935 9H262.748V1.5H263.935V9ZM237.724 14.7168L237.758 15.2686C238.129 14.8356 238.637 14.6191 239.281 14.6191C239.988 14.6191 240.471 14.8893 240.731 15.4297C241.116 14.8893 241.656 14.6191 242.353 14.6191C242.935 14.6191 243.368 14.7803 243.651 15.1025C243.938 15.4248 244.084 15.9001 244.091 16.5283V20H242.904V16.5625C242.904 16.2272 242.831 15.9814 242.685 15.8252C242.538 15.6689 242.296 15.5908 241.957 15.5908C241.687 15.5908 241.465 15.6641 241.293 15.8105C241.124 15.9538 241.005 16.1426 240.937 16.377L240.941 20H239.755V16.5234C239.739 15.9017 239.421 15.5908 238.803 15.5908C238.327 15.5908 237.991 15.7845 237.792 16.1719V20H236.605V14.7168H237.724ZM245.087 17.3096C245.087 16.792 245.189 16.3265 245.395 15.9131C245.6 15.4964 245.888 15.1774 246.259 14.9561C246.63 14.7314 247.056 14.6191 247.538 14.6191C248.251 14.6191 248.829 14.8486 249.271 15.3076C249.717 15.7666 249.958 16.3753 249.994 17.1338L249.999 17.4121C249.999 17.9329 249.898 18.3984 249.696 18.8086C249.498 19.2188 249.211 19.5361 248.837 19.7607C248.466 19.9854 248.036 20.0977 247.548 20.0977C246.802 20.0977 246.205 19.8503 245.756 19.3555C245.31 18.8574 245.087 18.195 245.087 17.3682V17.3096ZM246.273 17.4121C246.273 17.9557 246.386 18.3822 246.61 18.6914C246.835 18.9974 247.147 19.1504 247.548 19.1504C247.948 19.1504 248.259 18.9941 248.48 18.6816C248.705 18.3691 248.817 17.9118 248.817 17.3096C248.817 16.7757 248.702 16.3525 248.471 16.04C248.243 15.7275 247.932 15.5713 247.538 15.5713C247.151 15.5713 246.843 15.7259 246.615 16.0352C246.387 16.3411 246.273 16.8001 246.273 17.4121ZM252.104 14.7168L252.138 15.3271C252.528 14.8551 253.041 14.6191 253.676 14.6191C254.776 14.6191 255.336 15.249 255.355 16.5088V20H254.169V16.5771C254.169 16.2419 254.096 15.9945 253.949 15.835C253.806 15.6722 253.57 15.5908 253.241 15.5908C252.763 15.5908 252.406 15.8073 252.172 16.2402V20H250.985V14.7168H252.104ZM258.896 20.0977C258.144 20.0977 257.533 19.8617 257.064 19.3896C256.599 18.9144 256.366 18.2829 256.366 17.4951V17.3486C256.366 16.8213 256.467 16.3509 256.669 15.9375C256.874 15.5208 257.16 15.1969 257.528 14.9658C257.896 14.7347 258.306 14.6191 258.759 14.6191C259.478 14.6191 260.033 14.8486 260.424 15.3076C260.818 15.7666 261.015 16.416 261.015 17.2559V17.7344H257.562C257.598 18.1706 257.743 18.5156 257.997 18.7695C258.254 19.0234 258.576 19.1504 258.964 19.1504C259.507 19.1504 259.95 18.9307 260.292 18.4912L260.932 19.1016C260.72 19.4173 260.437 19.6631 260.082 19.8389C259.73 20.0114 259.335 20.0977 258.896 20.0977ZM258.754 15.5713C258.428 15.5713 258.165 15.6852 257.963 15.9131C257.764 16.141 257.637 16.4583 257.582 16.8652H259.843V16.7773C259.817 16.3802 259.711 16.0807 259.525 15.8789C259.34 15.6738 259.083 15.5713 258.754 15.5713ZM263.72 18.3008L264.794 14.7168H266.059L263.959 20.8008C263.637 21.6895 263.09 22.1338 262.318 22.1338C262.146 22.1338 261.955 22.1045 261.747 22.0459V21.1279L261.972 21.1426C262.271 21.1426 262.496 21.0872 262.646 20.9766C262.799 20.8691 262.919 20.6868 263.007 20.4297L263.178 19.9756L261.322 14.7168H262.602L263.72 18.3008Z" fill="white"/>
<path d="M280.867 140V131.469H283.791C284.756 131.469 285.49 131.662 285.994 132.049C286.498 132.436 286.75 133.012 286.75 133.777C286.75 134.168 286.645 134.52 286.434 134.832C286.223 135.145 285.914 135.387 285.508 135.559C285.969 135.684 286.324 135.92 286.574 136.268C286.828 136.611 286.955 137.025 286.955 137.51C286.955 138.311 286.697 138.926 286.182 139.355C285.67 139.785 284.936 140 283.979 140H280.867ZM282.35 136.15V138.816H283.996C284.461 138.816 284.824 138.701 285.086 138.471C285.348 138.24 285.479 137.92 285.479 137.51C285.479 136.623 285.025 136.17 284.119 136.15H282.35ZM282.35 135.061H283.803C284.264 135.061 284.623 134.957 284.881 134.75C285.143 134.539 285.273 134.242 285.273 133.859C285.273 133.438 285.152 133.133 284.91 132.945C284.672 132.758 284.299 132.664 283.791 132.664H282.35V135.061ZM289.814 140H288.391V133.66H289.814V140ZM288.303 132.014C288.303 131.795 288.371 131.613 288.508 131.469C288.648 131.324 288.848 131.252 289.105 131.252C289.363 131.252 289.562 131.324 289.703 131.469C289.844 131.613 289.914 131.795 289.914 132.014C289.914 132.229 289.844 132.408 289.703 132.553C289.562 132.693 289.363 132.764 289.105 132.764C288.848 132.764 288.648 132.693 288.508 132.553C288.371 132.408 288.303 132.229 288.303 132.014ZM293.154 132.119V133.66H294.273V134.715H293.154V138.254C293.154 138.496 293.201 138.672 293.295 138.781C293.393 138.887 293.564 138.939 293.811 138.939C293.975 138.939 294.141 138.92 294.309 138.881V139.982C293.984 140.072 293.672 140.117 293.371 140.117C292.277 140.117 291.73 139.514 291.73 138.307V134.715H290.688V133.66H291.73V132.119H293.154ZM297.971 138.98C298.326 138.98 298.621 138.877 298.855 138.67C299.09 138.463 299.215 138.207 299.23 137.902H300.572C300.557 138.297 300.434 138.666 300.203 139.01C299.973 139.35 299.66 139.619 299.266 139.818C298.871 140.018 298.445 140.117 297.988 140.117C297.102 140.117 296.398 139.83 295.879 139.256C295.359 138.682 295.1 137.889 295.1 136.877V136.73C295.1 135.766 295.357 134.994 295.873 134.416C296.389 133.834 297.092 133.543 297.982 133.543C298.736 133.543 299.35 133.764 299.822 134.205C300.299 134.643 300.549 135.219 300.572 135.934H299.23C299.215 135.57 299.09 135.271 298.855 135.037C298.625 134.803 298.33 134.686 297.971 134.686C297.51 134.686 297.154 134.854 296.904 135.189C296.654 135.521 296.527 136.027 296.523 136.707V136.936C296.523 137.623 296.646 138.137 296.893 138.477C297.143 138.812 297.502 138.98 297.971 138.98ZM301.381 136.771C301.381 136.15 301.504 135.592 301.75 135.096C301.996 134.596 302.342 134.213 302.787 133.947C303.232 133.678 303.744 133.543 304.322 133.543C305.178 133.543 305.871 133.818 306.402 134.369C306.938 134.92 307.227 135.65 307.27 136.561L307.275 136.895C307.275 137.52 307.154 138.078 306.912 138.57C306.674 139.062 306.33 139.443 305.881 139.713C305.436 139.982 304.92 140.117 304.334 140.117C303.439 140.117 302.723 139.82 302.184 139.227C301.648 138.629 301.381 137.834 301.381 136.842V136.771ZM302.805 136.895C302.805 137.547 302.939 138.059 303.209 138.43C303.479 138.797 303.854 138.98 304.334 138.98C304.814 138.98 305.188 138.793 305.453 138.418C305.723 138.043 305.857 137.494 305.857 136.771C305.857 136.131 305.719 135.623 305.441 135.248C305.168 134.873 304.795 134.686 304.322 134.686C303.857 134.686 303.488 134.871 303.215 135.242C302.941 135.609 302.805 136.16 302.805 136.895ZM309.994 140H308.57V133.66H309.994V140ZM308.482 132.014C308.482 131.795 308.551 131.613 308.688 131.469C308.828 131.324 309.027 131.252 309.285 131.252C309.543 131.252 309.742 131.324 309.883 131.469C310.023 131.613 310.094 131.795 310.094 132.014C310.094 132.229 310.023 132.408 309.883 132.553C309.742 132.693 309.543 132.764 309.285 132.764C309.027 132.764 308.828 132.693 308.688 132.553C308.551 132.408 308.482 132.229 308.482 132.014ZM312.871 133.66L312.912 134.393C313.381 133.826 313.996 133.543 314.758 133.543C316.078 133.543 316.75 134.299 316.773 135.811V140H315.35V135.893C315.35 135.49 315.262 135.193 315.086 135.002C314.914 134.807 314.631 134.709 314.236 134.709C313.662 134.709 313.234 134.969 312.953 135.488V140H311.529V133.66H312.871Z" fill="white"/>
<rect x="20" y="43" width="2" height="16" transform="rotate(-180 20 43)" fill="#363E48"/>
<g filter="url(#filter0_d)">
<circle cx="19" cy="43" r="2" fill="#363E48"/>
</g>
<rect x="60" y="43" width="2" height="16" transform="rotate(-180 60 43)" fill="#363E48"/>
<g filter="url(#filter1_d)">
<circle cx="59" cy="43" r="2" fill="#363E48"/>
</g>
<rect x="104" y="43" width="2" height="16" transform="rotate(-180 104 43)" fill="#363E48"/>
<g filter="url(#filter2_d)">
<circle cx="103" cy="43" r="2" fill="#363E48"/>
</g>
<rect x="155" y="43" width="2" height="16" transform="rotate(-180 155 43)" fill="#363E48"/>
<g filter="url(#filter3_d)">
<circle cx="154" cy="43" r="2" fill="#363E48"/>
</g>
<rect x="204" y="43" width="2" height="16" transform="rotate(-180 204 43)" fill="#363E48"/>
<g filter="url(#filter4_d)">
<circle cx="203" cy="43" r="2" fill="#363E48"/>
</g>
<rect x="250" y="43" width="2" height="16" transform="rotate(-180 250 43)" fill="#363E48"/>
<g filter="url(#filter5_d)">
<circle cx="249" cy="43" r="2" fill="#363E48"/>
</g>
<rect x="298" y="111" width="2" height="16" fill="#363E48"/>
<g filter="url(#filter6_d)">
<circle cx="299" cy="111" r="2" transform="rotate(-180 299 111)" fill="#363E48"/>
</g>
<circle cx="210.5" cy="83.5" r="1.5" fill="#877CFF"/>
<circle cx="212.5" cy="83.5" r="1.5" fill="#4E43C1"/>
<defs>
<filter id="filter0_d" x="13" y="41" width="12" height="12" filterUnits="userSpaceOnUse" color-interpolation-filters="sRGB">
<feFlood flood-opacity="0" result="BackgroundImageFix"/>
<feColorMatrix in="SourceAlpha" type="matrix" values="0 0 0 0 0 0 0 0 0 0 0 0 0 0 0 0 0 0 127 0"/>
<feOffset dy="4"/>
<feGaussianBlur stdDeviation="2"/>
<feColorMatrix type="matrix" values="0 0 0 0 0 0 0 0 0 0 0 0 0 0 0 0 0 0 0.25 0"/>
<feBlend mode="normal" in2="BackgroundImageFix" result="effect1_dropShadow"/>
<feBlend mode="normal" in="SourceGraphic" in2="effect1_dropShadow" result="shape"/>
</filter>
<filter id="filter1_d" x="53" y="41" width="12" height="12" filterUnits="userSpaceOnUse" color-interpolation-filters="sRGB">
<feFlood flood-opacity="0" result="BackgroundImageFix"/>
<feColorMatrix in="SourceAlpha" type="matrix" values="0 0 0 0 0 0 0 0 0 0 0 0 0 0 0 0 0 0 127 0"/>
<feOffset dy="4"/>
<feGaussianBlur stdDeviation="2"/>
<feColorMatrix type="matrix" values="0 0 0 0 0 0 0 0 0 0 0 0 0 0 0 0 0 0 0.25 0"/>
<feBlend mode="normal" in2="BackgroundImageFix" result="effect1_dropShadow"/>
<feBlend mode="normal" in="SourceGraphic" in2="effect1_dropShadow" result="shape"/>
</filter>
<filter id="filter2_d" x="97" y="41" width="12" height="12" filterUnits="userSpaceOnUse" color-interpolation-filters="sRGB">
<feFlood flood-opacity="0" result="BackgroundImageFix"/>
<feColorMatrix in="SourceAlpha" type="matrix" values="0 0 0 0 0 0 0 0 0 0 0 0 0 0 0 0 0 0 127 0"/>
<feOffset dy="4"/>
<feGaussianBlur stdDeviation="2"/>
<feColorMatrix type="matrix" values="0 0 0 0 0 0 0 0 0 0 0 0 0 0 0 0 0 0 0.25 0"/>
<feBlend mode="normal" in2="BackgroundImageFix" result="effect1_dropShadow"/>
<feBlend mode="normal" in="SourceGraphic" in2="effect1_dropShadow" result="shape"/>
</filter>
<filter id="filter3_d" x="148" y="41" width="12" height="12" filterUnits="userSpaceOnUse" color-interpolation-filters="sRGB">
<feFlood flood-opacity="0" result="BackgroundImageFix"/>
<feColorMatrix in="SourceAlpha" type="matrix" values="0 0 0 0 0 0 0 0 0 0 0 0 0 0 0 0 0 0 127 0"/>
<feOffset dy="4"/>
<feGaussianBlur stdDeviation="2"/>
<feColorMatrix type="matrix" values="0 0 0 0 0 0 0 0 0 0 0 0 0 0 0 0 0 0 0.25 0"/>
<feBlend mode="normal" in2="BackgroundImageFix" result="effect1_dropShadow"/>
<feBlend mode="normal" in="SourceGraphic" in2="effect1_dropShadow" result="shape"/>
</filter>
<filter id="filter4_d" x="197" y="41" width="12" height="12" filterUnits="userSpaceOnUse" color-interpolation-filters="sRGB">
<feFlood flood-opacity="0" result="BackgroundImageFix"/>
<feColorMatrix in="SourceAlpha" type="matrix" values="0 0 0 0 0 0 0 0 0 0 0 0 0 0 0 0 0 0 127 0"/>
<feOffset dy="4"/>
<feGaussianBlur stdDeviation="2"/>
<feColorMatrix type="matrix" values="0 0 0 0 0 0 0 0 0 0 0 0 0 0 0 0 0 0 0.25 0"/>
<feBlend mode="normal" in2="BackgroundImageFix" result="effect1_dropShadow"/>
<feBlend mode="normal" in="SourceGraphic" in2="effect1_dropShadow" result="shape"/>
</filter>
<filter id="filter5_d" x="243" y="41" width="12" height="12" filterUnits="userSpaceOnUse" color-interpolation-filters="sRGB">
<feFlood flood-opacity="0" result="BackgroundImageFix"/>
<feColorMatrix in="SourceAlpha" type="matrix" values="0 0 0 0 0 0 0 0 0 0 0 0 0 0 0 0 0 0 127 0"/>
<feOffset dy="4"/>
<feGaussianBlur stdDeviation="2"/>
<feColorMatrix type="matrix" values="0 0 0 0 0 0 0 0 0 0 0 0 0 0 0 0 0 0 0.25 0"/>
<feBlend mode="normal" in2="BackgroundImageFix" result="effect1_dropShadow"/>
<feBlend mode="normal" in="SourceGraphic" in2="effect1_dropShadow" result="shape"/>
</filter>
<filter id="filter6_d" x="293" y="109" width="12" height="12" filterUnits="userSpaceOnUse" color-interpolation-filters="sRGB">
<feFlood flood-opacity="0" result="BackgroundImageFix"/>
<feColorMatrix in="SourceAlpha" type="matrix" values="0 0 0 0 0 0 0 0 0 0 0 0 0 0 0 0 0 0 127 0"/>
<feOffset dy="4"/>
<feGaussianBlur stdDeviation="2"/>
<feColorMatrix type="matrix" values="0 0 0 0 0 0 0 0 0 0 0 0 0 0 0 0 0 0 0.25 0"/>
<feBlend mode="normal" in2="BackgroundImageFix" result="effect1_dropShadow"/>
<feBlend mode="normal" in="SourceGraphic" in2="effect1_dropShadow" result="shape"/>
</filter>
</defs>
</svg>
