<svg width="26" height="26" viewBox="0 0 26 26" fill="none" xmlns="http://www.w3.org/2000/svg">
<path fill-rule="evenodd" clip-rule="evenodd" d="M12.5538 4.33301C14.2385 4.33301 15.4512 5.16324 16.3612 6.43688C16.7898 6.15166 17.3047 5.98635 17.8581 5.98635C19.36 5.98635 20.5775 7.20389 20.5775 8.7058C20.5775 8.92888 20.5507 9.14568 20.5 9.35314L20.5775 9.3508C21.7232 9.3508 22.652 10.2796 22.652 11.4253C22.652 12.571 21.7232 13.4997 20.5775 13.4997L15.3762 13.5001C14.5722 14.0482 13.6004 14.3686 12.5538 14.3686C11.507 14.3686 10.535 14.048 9.73078 13.4997L6.71945 13.4997C5.21754 13.4997 4 12.2822 4 10.7803C4 9.27835 5.21754 8.06081 6.71945 8.06081C7.05104 8.06081 7.36877 8.12016 7.66259 8.22881C8.17059 5.99849 10.1677 4.33301 12.5538 4.33301Z" fill="#77B1F4"/>
<path d="M17.6704 11.6753H8.32812V14.3247H17.6704V11.6753Z" fill="#877CFF"/>
<path d="M17.6704 11.6753H8.32812V13.5H17.6704V11.6753Z" fill="#4E43C1"/>
<path fill-rule="evenodd" clip-rule="evenodd" d="M6.56836 20.8168V18.3398L11.699 18.339L11.6993 13.8652H14.2993L14.299 18.339L19.4301 18.3398V20.8168H6.56836Z" fill="#877CFF"/>
<path d="M14.5 9C14.5 9.82843 13.8284 10.5 13 10.5C12.1716 10.5 11.5 9.82843 11.5 9C11.5 8.17157 12.1716 7.5 13 7.5C13.8284 7.5 14.5 8.17157 14.5 9Z" fill="white"/>
</svg>
