<svg width="24" height="24" viewBox="0 0 24 24" fill="none" xmlns="http://www.w3.org/2000/svg">
<path fill-rule="evenodd" clip-rule="evenodd" d="M17.1179 14.5387H8.48143L6.74982 6.5166H18.4814L17.1179 14.5387Z" fill="#77B1F4"/>
<path d="M2.98535 6.51904H6.85833L9.12824 15.9629L16.4364 15.9635V18.3635H7.23589L4.96664 8.91885L2.98535 8.91904V6.51904Z" fill="#77B1F4"/>
<path d="M21.0145 4.01465V10.8418H10.0996V4.01465H21.0145Z" fill="#877CFF"/>
<path d="M8.86672 19.9854C9.79036 19.9854 10.5391 19.2366 10.5391 18.313C10.5391 17.3894 9.79036 16.6406 8.86672 16.6406C7.94309 16.6406 7.19434 17.3894 7.19434 18.313C7.19434 19.2366 7.94309 19.9854 8.86672 19.9854Z" fill="#877CFF"/>
<path d="M14.7642 19.9854C15.6878 19.9854 16.4366 19.2366 16.4366 18.313C16.4366 17.3894 15.6878 16.6406 14.7642 16.6406C13.8406 16.6406 13.0918 17.3894 13.0918 18.313C13.0918 19.2366 13.8406 19.9854 14.7642 19.9854Z" fill="#877CFF"/>
<path fill-rule="evenodd" clip-rule="evenodd" d="M18.4824 6.51643L17.7468 10.8409L10.1003 10.8417L10.0996 6.51611L18.4824 6.51643Z" fill="#4E43C1"/>
<path d="M8.86694 16.6406C9.79058 16.6406 10.5393 17.3894 10.5393 18.313C10.5393 18.3303 10.5391 18.3474 10.5385 18.3646L7.23601 18.3639L7.19775 18.2087C7.25161 17.3336 7.97834 16.6406 8.86694 16.6406Z" fill="#4E43C1"/>
<path d="M14.7639 16.6406C15.6875 16.6406 16.4363 17.3894 16.4363 18.313C16.4363 18.3303 16.436 18.3474 16.4355 18.3646L13.133 18.3639L13.0947 18.2087C13.1486 17.3336 13.8753 16.6406 14.7639 16.6406Z" fill="#4E43C1"/>
</svg>
