<svg width="24" height="24" viewBox="0 0 24 24" fill="none" xmlns="http://www.w3.org/2000/svg">
<path fill-rule="evenodd" clip-rule="evenodd" d="M12.3297 7.66162L20.6797 13.0841L15.2572 21.4341L13.0129 19.9765C12.9757 20.0956 12.9227 20.2119 12.8535 20.3227L12.3259 21.1671C11.8888 21.8665 10.9675 22.0792 10.268 21.6422C9.56855 21.2051 9.35584 20.2837 9.79292 19.5843L10.3205 18.7399C10.3994 18.6137 10.494 18.5034 10.6003 18.4098L6.90723 16.0116L12.3297 7.66162Z" fill="#877CFF"/>
<path fill-rule="evenodd" clip-rule="evenodd" d="M8.76383 1.18701L11.4149 2.90909C11.0086 3.60358 11.2261 4.49976 11.913 4.92896C12.5833 5.34782 13.4574 5.16992 13.9138 4.53875L13.9169 4.53321L17.1138 6.60953L14.2836 10.9676C14.2971 10.9758 14.3107 10.9843 14.3241 10.993L15.1591 11.5353C15.8508 11.9845 16.0474 12.9094 15.5982 13.6011C15.149 14.2929 14.2241 14.4895 13.5323 14.0403L12.6973 13.498L12.6581 13.4702L11.6913 14.9595L7.06971 11.9582L7.26424 11.6476C7.68311 10.9773 7.50521 10.1031 6.87403 9.64679L6.78914 9.58968C6.11882 9.17082 5.24472 9.34872 4.78836 9.9799L4.73125 10.0648L4.56471 10.331L3.34131 9.53696L8.76383 1.18701Z" fill="#77B1F4"/>
<path fill-rule="evenodd" clip-rule="evenodd" d="M12.3289 7.66162L15.2134 9.53482L14.2835 10.9675C14.2971 10.9757 14.3106 10.9842 14.324 10.9929L15.159 11.5352C15.8507 11.9844 16.0473 12.9093 15.5981 13.601C15.1489 14.2928 14.224 14.4894 13.5323 14.0401L12.6973 13.4979L12.658 13.4701L11.6912 14.9594L8.80664 13.0856L12.3289 7.66162Z" fill="#4E43C1"/>
</svg>
