<svg width="164" height="80" viewBox="0 0 164 80" fill="none" xmlns="http://www.w3.org/2000/svg">
<rect width="164" height="80" fill="white"/>
<path fill-rule="evenodd" clip-rule="evenodd" d="M62.6516 35.55C62.5655 35.7108 62.5217 37.9133 62.5217 42.0803C62.5217 47.632 62.5444 48.3907 62.7154 48.5618C62.8839 48.7301 63.4382 48.7553 66.9385 48.7536C69.1548 48.7525 71.0394 48.7064 71.1267 48.6509C71.243 48.5772 71.276 48.2226 71.25 47.3273L71.2145 46.1045L68.3491 46.0715L65.4836 46.0383L65.4515 40.7078L65.4193 35.3772L64.1004 35.3423C62.8952 35.3104 62.7702 35.3283 62.6516 35.55ZM83.6924 35.3939C83.6451 35.4412 83.6064 38.4333 83.6064 42.0429C83.6064 47.9137 83.627 48.6137 83.8014 48.6807C83.9087 48.7218 84.459 48.7555 85.0243 48.7555C85.5897 48.7555 86.14 48.7218 86.2473 48.6807C86.4164 48.6158 86.4423 48.2672 86.4423 46.0543C86.4423 44.2343 86.4847 43.4604 86.5903 43.3549C86.6966 43.2486 87.5137 43.2069 89.4879 43.2069H92.2375V45.8332C92.2375 47.7115 92.2797 48.5017 92.3855 48.6075C92.4791 48.7011 92.9434 48.7548 93.6493 48.7536C94.263 48.7525 94.835 48.7074 94.9204 48.6532C95.0426 48.5756 95.0689 47.1552 95.0437 41.966L95.0118 35.3772H93.6555H92.2992L92.2656 37.7723C92.2444 39.2846 92.182 40.2276 92.0963 40.3308C91.9911 40.4576 91.343 40.4943 89.204 40.4943H86.4474L86.414 37.9358L86.3807 35.3772L85.0796 35.3425C84.3641 35.3233 83.7399 35.3465 83.6924 35.3939ZM75.5169 38.8109C75.1705 38.8992 74.6434 39.0974 74.3455 39.2514C74.0476 39.4054 73.6236 39.6676 73.4031 39.8341C73.1827 40.0007 73.0024 40.249 73.0024 40.386C73.0024 40.523 73.2659 40.9356 73.5881 41.3029C73.9478 41.7131 74.2744 41.9714 74.4345 41.9723C74.5779 41.9731 74.838 41.8617 75.0122 41.7247C75.1864 41.5876 75.5617 41.3934 75.8459 41.2931C76.1301 41.1928 76.6599 41.1108 77.0233 41.1108C77.5722 41.1108 77.7466 41.1681 78.0538 41.4499C78.3046 41.6798 78.4485 41.9534 78.5009 42.2998L78.5782 42.8106L76.6227 42.8591C74.917 42.9014 74.5882 42.9433 74.0505 43.1872C73.7114 43.3409 73.2744 43.6164 73.0793 43.7993C72.8843 43.9821 72.6219 44.3536 72.4964 44.6249C72.3552 44.9299 72.2674 45.4005 72.2665 45.8579C72.2654 46.3811 72.351 46.7825 72.5588 47.2287C72.7204 47.5756 73.0427 48.0046 73.275 48.1818C73.5074 48.3591 73.9365 48.5884 74.2285 48.6914C74.538 48.8006 75.1813 48.8788 75.7703 48.8788C76.3841 48.8788 77.0141 48.7993 77.3752 48.6762C77.7048 48.564 78.1769 48.2665 78.4347 48.0087L78.8997 47.5437L79.051 47.9088C79.1342 48.1096 79.3748 48.3656 79.5856 48.4776C79.8517 48.6189 80.2897 48.6831 81.017 48.6876L82.0651 48.6938L82.1006 47.6231L82.1361 46.5523L81.7307 46.5134L81.3253 46.4744L81.2613 43.8851C81.2051 41.6098 81.1663 41.2284 80.9417 40.7409C80.8011 40.4357 80.536 40.0085 80.3527 39.7916C80.1693 39.5747 79.7109 39.2462 79.3338 39.0617C78.7506 38.7764 78.4618 38.7208 77.3975 38.6885C76.647 38.6657 75.8947 38.7148 75.5169 38.8109ZM100.067 38.8203C99.7281 38.9054 99.2565 39.0605 99.0191 39.1651C98.7818 39.2696 98.3517 39.5286 98.0635 39.7405C97.7309 39.9852 97.5395 40.2221 97.5395 40.3892C97.5395 40.5341 97.7935 40.9499 98.1038 41.3132C98.4143 41.6766 98.7713 41.9739 98.8972 41.9739C99.0231 41.9739 99.4036 41.8013 99.7429 41.5904C100.209 41.3007 100.55 41.1923 101.138 41.1472C101.566 41.1142 102.066 41.1457 102.249 41.2168C102.432 41.2881 102.664 41.4737 102.764 41.6293C102.865 41.7849 102.984 42.1153 103.029 42.3635L103.111 42.8149L101.158 42.8582C99.4381 42.8964 99.1302 42.9354 98.5876 43.1841C98.2485 43.3396 97.8115 43.6164 97.6164 43.7993C97.4214 43.9821 97.159 44.3536 97.0335 44.6249C96.9024 44.908 96.804 45.4009 96.8024 45.7819C96.8009 46.147 96.8679 46.6742 96.9513 46.9533C97.0378 47.2427 97.3209 47.6791 97.6098 47.9685C97.93 48.289 98.3556 48.5554 98.7656 48.6915C99.255 48.8541 99.6917 48.8947 100.542 48.8569C101.493 48.8146 101.771 48.7516 102.315 48.4544C102.67 48.2606 103.052 47.963 103.163 47.7931L103.366 47.4841L103.526 47.8653C103.614 48.0749 103.868 48.3405 104.09 48.4555C104.313 48.5705 104.839 48.6922 105.261 48.7262C105.682 48.7599 106.17 48.7516 106.345 48.7075C106.656 48.6294 106.664 48.6031 106.664 47.5896V46.5517L106.263 46.513L105.862 46.4744L105.788 43.9467C105.729 41.9586 105.666 41.2892 105.491 40.8108C105.364 40.4642 105.044 39.9775 104.745 39.6789C104.353 39.287 104.013 39.091 103.395 38.9C102.842 38.7292 102.257 38.6482 101.626 38.6552C101.108 38.661 100.406 38.7352 100.067 38.8203ZM121.024 38.8947C120.594 39.031 120.054 39.3243 119.744 39.5898C119.449 39.8424 119.105 40.2739 118.98 40.549C118.845 40.8464 118.752 41.338 118.75 41.7621C118.749 42.1542 118.823 42.6535 118.915 42.8718C119.007 43.09 119.243 43.4293 119.439 43.626C119.635 43.8226 120.073 44.1112 120.412 44.2673C120.751 44.4235 121.645 44.6957 122.399 44.8721C123.241 45.069 123.872 45.2873 124.033 45.4377C124.178 45.5723 124.296 45.753 124.296 45.8392C124.296 45.9252 124.225 46.0927 124.138 46.2112C124.052 46.3297 123.74 46.4807 123.447 46.5467C123.099 46.6248 122.684 46.6245 122.259 46.5459C121.899 46.4795 121.403 46.3406 121.156 46.2373C120.908 46.134 120.548 45.9371 120.355 45.7996C120.162 45.6621 119.898 45.5496 119.769 45.5496C119.626 45.5496 119.333 45.8249 119.018 46.2538C118.733 46.641 118.501 47.0515 118.501 47.1658C118.501 47.2801 118.703 47.5513 118.951 47.7685C119.198 47.9856 119.656 48.2738 119.968 48.4088C120.28 48.5437 120.896 48.7315 121.337 48.826C121.778 48.9205 122.46 48.9988 122.854 49C123.247 49.0011 123.952 48.9152 124.419 48.8089C124.912 48.6966 125.472 48.4677 125.756 48.2624C126.024 48.0682 126.392 47.714 126.574 47.4753C126.789 47.1936 126.951 46.7687 127.035 46.2647C127.131 45.6921 127.126 45.3484 127.019 44.9569C126.938 44.665 126.68 44.2138 126.446 43.9545C126.212 43.6952 125.752 43.3675 125.424 43.2264C125.096 43.0852 124.224 42.8271 123.486 42.6528C122.748 42.4784 122.015 42.251 121.856 42.1471C121.65 42.0119 121.579 41.8646 121.607 41.627C121.637 41.3631 121.745 41.2627 122.138 41.1328C122.452 41.0291 122.866 40.9988 123.279 41.0494C123.635 41.0929 124.246 41.2903 124.635 41.4881C125.025 41.6857 125.439 41.8481 125.556 41.849C125.673 41.8498 125.981 41.5593 126.242 41.2033C126.503 40.8473 126.759 40.4842 126.812 40.3964C126.864 40.3078 126.827 40.1146 126.727 39.9621C126.628 39.8109 126.272 39.5377 125.936 39.355C125.6 39.1722 124.999 38.9377 124.6 38.8338C124.201 38.7298 123.4 38.6478 122.821 38.6516C122.143 38.6561 121.504 38.7425 121.024 38.8947ZM108.028 39.0674C107.911 39.2081 107.887 40.1066 107.926 42.863C107.971 45.9609 108.01 46.5602 108.202 47.0777C108.325 47.4095 108.637 47.8928 108.896 48.1517C109.22 48.4754 109.588 48.6867 110.073 48.8279C110.561 48.9697 111.012 49.0116 111.527 48.9631C111.938 48.9245 112.483 48.8053 112.739 48.6982C112.995 48.591 113.425 48.3038 113.695 48.0602L114.185 47.6171V48.0479C114.185 48.2849 114.263 48.5432 114.358 48.6218C114.469 48.7143 114.939 48.7524 115.683 48.7295L116.836 48.6938V43.8234V38.953H115.542H114.247L114.185 42.0576C114.128 44.9478 114.106 45.1857 113.869 45.5024C113.73 45.6896 113.472 45.9493 113.298 46.0796C113.123 46.2099 112.734 46.3445 112.432 46.3784C112.063 46.42 111.757 46.3748 111.497 46.2403C111.284 46.1303 111.039 45.916 110.952 45.7642C110.84 45.5673 110.777 44.5497 110.733 42.2205L110.671 38.953L109.426 38.9181C108.44 38.8904 108.149 38.9216 108.028 39.0674ZM78.4966 45.1489C78.4517 45.4033 78.3172 45.7466 78.1978 45.9119C78.0785 46.0773 77.8277 46.3269 77.6404 46.4668C77.3734 46.666 77.1161 46.721 76.4492 46.721C75.7465 46.721 75.553 46.6755 75.3367 46.4592C75.1762 46.2987 75.0702 46.0287 75.0627 45.7611C75.0559 45.5212 75.1286 45.2304 75.2243 45.1151C75.32 44.9998 75.5111 44.8598 75.6491 44.8039C75.787 44.7479 76.5027 44.6986 77.2392 44.6943L78.5785 44.6865L78.4966 45.1489ZM103.024 45.0873C102.978 45.3077 102.849 45.6487 102.737 45.845C102.625 46.0414 102.377 46.3188 102.185 46.4615C101.91 46.6666 101.659 46.721 100.986 46.721C100.3 46.721 100.088 46.6734 99.8886 46.474C99.7528 46.3382 99.606 46.049 99.5625 45.8316C99.496 45.4992 99.5433 45.3765 99.8583 45.0614C100.233 44.6867 100.234 44.6865 101.67 44.6865H103.108L103.024 45.0873Z" fill="#012D26"/>
<path d="M46.4924 34.9785C46.4924 32.2786 46.5319 31.2565 46.6404 31.148C46.7218 31.0666 46.8646 31 46.9576 31C47.0507 31 48.6071 31.6117 50.4163 32.3593C52.2254 33.1067 53.775 33.8109 53.8597 33.9241C53.9788 34.083 54.0138 35.7454 54.0138 41.2489C54.0138 47.5564 53.9918 48.39 53.8201 48.5618C53.6533 48.7286 53.1511 48.7555 50.2074 48.7555C47.7125 48.7555 46.7484 48.7155 46.6404 48.6075C46.5357 48.5028 46.4924 47.7782 46.4924 46.1333C46.4924 44.7657 46.4398 43.709 46.3648 43.5687C46.2612 43.3752 46.1029 43.3302 45.5264 43.3302C45.1354 43.3302 44.7489 43.3968 44.6676 43.4782C44.5625 43.5832 44.5196 44.3276 44.5196 46.0428C44.5196 47.7581 44.4767 48.5025 44.3716 48.6075C44.2635 48.7157 43.2849 48.7555 40.7385 48.7555C37.4191 48.7555 37.2474 48.7441 37.1258 48.517C37.0428 48.3619 36.9988 46.1955 37 42.3211C37.0011 39.0445 37.0477 36.2915 37.1036 36.2033C37.1596 36.1151 38.6708 35.4334 40.4617 34.6885C42.6534 33.7769 43.8391 33.3454 44.088 33.3691L44.4579 33.4044L44.4912 36.1074C44.5127 37.8478 44.573 38.8686 44.6604 38.9742C44.7451 39.0762 45.0682 39.1379 45.5167 39.1379C46.1028 39.1379 46.261 39.0934 46.3648 38.8995C46.4446 38.7503 46.4924 37.2811 46.4924 34.9785Z" fill="#3ECFAF"/>
</svg>
