<svg width="137" height="33" viewBox="0 0 137 33" fill="none" xmlns="http://www.w3.org/2000/svg">
<path fill-rule="evenodd" clip-rule="evenodd" d="M1.73763 0.200632C1.51471 0.308789 1.30625 0.425698 1.27441 0.460584C1.24256 0.495353 1.11575 0.579826 0.992649 0.648314C0.869546 0.716802 0.713207 0.874314 0.645228 0.99834C0.57725 1.12237 0.492942 1.25012 0.457737 1.28221C-0.00618513 1.70551 0.000531683 1.48114 0.000531683 16.4345C0.000531683 32.0742 -0.0433591 31.0586 0.666421 31.8499C0.809674 32.0097 0.926986 32.1804 0.926986 32.2291C0.926986 32.2779 1.00516 32.3178 1.1007 32.3178C1.19624 32.3178 1.27441 32.3579 1.27441 32.4071C1.27441 32.8619 30.2297 33.2506 30.5064 32.7995C30.5406 32.7437 30.7262 32.6662 30.9187 32.6275C31.3731 32.5359 32.2955 31.6065 32.3864 31.1488C32.4248 30.9548 32.5017 30.7679 32.5572 30.7334C33.0049 30.4546 32.619 1.28221 32.1676 1.28221C32.1189 1.28221 32.079 1.20345 32.079 1.1072C32.079 1.01094 32.0394 0.932185 31.991 0.932185C31.9426 0.932185 31.7732 0.813993 31.6146 0.669666C30.829 -0.0455529 31.8401 -0.00144975 16.2964 0.00146713C3.26605 0.0039173 2.11076 0.0196684 1.73763 0.200632ZM30.4412 1.816C31.0607 2.18469 31.0368 1.597 31.0368 16.4207C31.0368 31.5858 31.0781 30.7092 30.3457 31.0907C29.8851 31.3307 2.79287 31.3621 2.2905 31.1232C1.58037 30.7855 1.62183 31.7022 1.62183 16.3535V2.35025L1.97816 1.99125L2.3345 1.63224H16.2335C28.6729 1.63224 30.1648 1.65149 30.4412 1.816ZM18.1684 3.96656C17.5192 4.34867 17.7374 5.39431 18.4963 5.53782C19.5201 5.73127 20.2136 4.80323 19.5674 4.10447C19.3137 3.83016 18.5312 3.75292 18.1684 3.96656ZM123.027 4.50734C122.619 4.59753 121.963 5.32395 121.878 5.78132C121.786 6.27427 121.891 7.03955 122.058 7.09555C122.123 7.11748 122.177 7.20919 122.177 7.29926C122.177 7.59632 123.052 8.04937 123.626 8.04937C124.202 8.04937 125.072 7.59294 125.072 7.29098C125.072 7.24968 125.15 7.1372 125.246 7.04095C126.236 6.04326 124.589 4.16269 123.027 4.50734ZM47.906 4.86029C47.8635 4.90299 47.8287 10.3634 47.8287 16.9945V29.0509H48.9289H50.0291V16.9167V4.78246H49.0061C48.4434 4.78246 47.9484 4.81747 47.906 4.86029ZM100.83 4.86029C100.787 4.90299 100.752 10.3634 100.752 16.9945V29.0509H101.853H102.953V27.5187V25.9864L103.792 26.8607C104.765 27.8736 106.11 28.7993 106.63 28.8136C106.709 28.8158 106.774 28.8597 106.774 28.9112C106.774 29.2237 111.321 29.5892 111.677 29.3052C111.751 29.2463 112.014 29.1613 112.261 29.1165C112.507 29.0717 112.794 28.9879 112.897 28.9304C113.001 28.8728 113.32 28.7179 113.607 28.5862C114.546 28.1545 115.316 27.5801 116.261 26.6057C117.133 25.7057 117.56 25.0111 118.233 23.3922C118.861 21.8837 118.836 18.9458 118.18 17.0917C117.986 16.5429 117.271 15.1666 117.18 15.1666C117.126 15.1666 117.081 15.0976 117.081 15.0134C117.081 14.7485 114.924 12.5997 114.658 12.5997C114.6 12.5997 114.535 12.5603 114.514 12.5122C114.456 12.3809 113.051 11.7099 112.391 11.4981C111.22 11.1224 108.208 11.0744 107.581 11.4216C107.484 11.4757 107.225 11.5594 107.007 11.6077C106.135 11.8007 104.637 12.7693 103.635 13.789L102.953 14.4825V9.70324C102.953 5.45288 102.933 4.91629 102.77 4.85329C102.521 4.75726 100.926 4.76298 100.83 4.86029ZM91.3721 8.34106V11.5496H89.9369C88.308 11.5496 88.3611 11.5161 88.3611 12.5414C88.3611 13.5665 88.3081 13.5331 89.9361 13.5331H91.3705L91.4002 21.2628L91.43 28.9926L92.5591 29.0259L93.6882 29.0593V21.2962V13.5331H95.4253H97.1624V12.5414V11.5496H95.4253H93.6882V8.34106V5.13249H92.5302H91.3721V8.34106ZM131.298 8.31189L131.268 11.4913L129.791 11.524L128.314 11.5566V12.5449V13.5331H129.82H131.325V21.292V29.0509H132.426H133.526V21.292V13.5331H135.263H137V12.5445V11.5558L135.292 11.5236L133.584 11.4913L133.553 8.31189L133.522 5.13249H132.426H131.329L131.298 8.31189ZM15.7232 7.3457C14.908 7.99173 15.4408 9.3328 16.5126 9.3328C17.5572 9.3328 18.0786 8.2644 17.4191 7.47498C17.0453 7.02741 16.2056 6.96336 15.7232 7.3457ZM13.6777 10.9195C13.0889 11.1688 12.8633 11.5215 12.8589 12.1995C12.8491 13.7244 14.5991 14.1078 15.1752 12.7068C15.5918 11.6932 14.6119 10.5237 13.6777 10.9195ZM61.5518 11.2506C60.536 11.3947 60.081 11.5181 59.334 11.8529C59.1333 11.9427 58.9118 12.0163 58.8419 12.0163C58.7718 12.0163 58.7146 12.0628 58.7146 12.1193C58.7146 12.1761 58.6233 12.2556 58.5119 12.2962C57.9654 12.4953 55.826 14.332 55.8209 14.6063C55.8201 14.6512 55.6992 14.8185 55.5521 14.9784C52.4643 18.3353 54.0768 26.0616 58.3188 28.2342C58.632 28.3946 58.9057 28.5652 58.9269 28.6134C58.9482 28.6614 59.0185 28.7009 59.0831 28.7009C59.1478 28.7009 59.365 28.7743 59.5656 28.8641C61.1832 29.5875 64.32 29.5861 65.97 28.8612C66.1707 28.773 66.4183 28.7009 66.5201 28.7009C66.622 28.7009 66.7052 28.6544 66.7052 28.5978C66.7052 28.5411 66.7965 28.4639 66.9079 28.4262C67.366 28.2712 68.3382 27.5133 69.1057 26.7131L69.6583 26.1367L69.7162 27.5647L69.7741 28.9926L70.8454 29.0262L71.9166 29.0596V20.3003V11.5409L70.8454 11.5744L69.7741 11.608L69.7415 13.1225L69.7089 14.6371L68.9308 13.8132C67.815 12.6316 66.5979 11.8119 65.6582 11.6091C65.438 11.5615 65.2056 11.4831 65.1419 11.4347C65.0384 11.3561 64.6699 11.3054 63.0573 11.148C62.8026 11.1232 62.1251 11.1693 61.5518 11.2506ZM79.8493 11.2096C76.1243 11.7479 74.676 16.2851 77.3487 19.0436C77.7049 19.4112 78.0572 19.7132 78.1316 19.7144C78.2058 19.7158 78.284 19.7583 78.3053 19.8089C78.3519 19.9205 79.306 20.5083 80.023 20.8674C80.6308 21.1719 80.7684 21.2541 81.6962 21.8681C83.2593 22.9025 83.7839 24.2034 83.1605 25.4995C82.9114 26.0176 82.149 26.8341 81.9145 26.8341C81.8296 26.8341 81.7601 26.8802 81.7601 26.9365C81.7601 27.2067 80.2841 27.4216 79.5744 27.2548C78.7889 27.0702 77.9385 26.7186 77.9385 26.5783C77.9385 26.5264 77.8734 26.4817 77.7938 26.4788C77.7142 26.4759 77.4184 26.2447 77.1368 25.9651C76.5351 25.368 76.5361 25.3678 75.825 26.2477C75.2042 27.016 75.8734 28.4675 76.8484 28.4675C76.9279 28.4675 77.0101 28.5068 77.0314 28.555C77.0871 28.6814 77.7856 28.9992 78.4814 29.2148C79.1421 29.4195 81.5821 29.4799 81.696 29.2944C81.732 29.2358 81.9695 29.1524 82.2239 29.1091C82.4784 29.0658 82.6866 28.9882 82.6866 28.9367C82.6866 28.885 82.8039 28.8128 82.9472 28.7759C83.2521 28.6976 84.109 27.9092 84.6141 27.2424C85.255 26.3963 85.7305 24.5147 85.4836 23.8013C85.4102 23.5892 85.3501 23.3106 85.3501 23.1821C85.3501 22.1707 83.252 19.9489 81.7721 19.3933C81.6699 19.355 81.2598 19.1234 80.8605 18.8786C80.4614 18.6338 80.1073 18.4335 80.0739 18.4335C79.5862 18.4335 78.119 16.7413 77.9856 16.0248C77.8496 15.294 78.4078 13.8831 78.8329 13.8831C78.9143 13.8831 78.9808 13.8408 78.9808 13.7889C78.9808 13.1895 81.9194 13.1653 82.455 13.7605C82.5271 13.8407 82.9231 14.0928 83.1351 14.1936C83.2227 14.2351 83.4459 14.4185 83.6313 14.6011C83.8167 14.7837 83.9938 14.9332 84.0249 14.9332C84.1579 14.9332 85.3501 13.6403 85.3501 13.496C85.3501 13.1677 83.5609 11.8456 82.7957 11.6087C82.6402 11.5605 82.4608 11.4816 82.3971 11.4334C82.3334 11.3851 82.0207 11.3108 81.7022 11.2682C81.3838 11.2256 80.9929 11.1724 80.8337 11.15C80.6744 11.1276 80.2315 11.1544 79.8493 11.2096ZM122.524 20.2958V29.0509H123.625H124.726L124.696 20.3294L124.667 11.608L123.595 11.5744L122.524 11.5409V20.2958ZM111.638 13.4715C112.555 13.7962 113.442 14.3169 114.069 14.899C114.228 15.0461 114.397 15.1666 114.445 15.1666C114.494 15.1666 114.533 15.2215 114.533 15.2888C114.533 15.356 114.659 15.5282 114.813 15.6716C116.706 17.4395 116.954 21.9394 115.286 24.2491C115.037 24.5944 113.539 26.1051 113.375 26.1767C113.28 26.2185 113.027 26.3592 112.814 26.4893C111.552 27.2584 108.03 27.5619 107.426 26.9537C107.361 26.8879 107.19 26.8341 107.048 26.8341C106.905 26.8341 106.758 26.7846 106.721 26.7243C106.684 26.6638 106.425 26.4997 106.147 26.3595C105.627 26.0977 104.227 24.8403 104.227 24.6349C104.227 24.5716 104.18 24.5025 104.123 24.4811C103.492 24.2435 102.628 21.2745 102.755 19.7752C102.87 18.4185 103.476 16.45 103.779 16.45C103.834 16.45 103.879 16.3731 103.879 16.2789C103.879 16.1849 104.036 15.9469 104.227 15.7499C104.418 15.553 104.574 15.3412 104.574 15.2793C104.574 15.2172 104.614 15.1666 104.662 15.1666C104.71 15.1666 104.88 15.0485 105.038 14.904C105.646 14.351 107.113 13.5331 107.498 13.5331C107.584 13.5331 107.704 13.4843 107.765 13.4247C108.053 13.1403 110.797 13.1734 111.638 13.4715ZM64.6403 13.4874C65.2895 13.6535 66.4414 14.1368 66.7632 14.3781C67.3798 14.8404 67.9534 15.3667 68.2316 15.725C68.4165 15.9633 68.6309 16.2372 68.7078 16.3334C69.8459 17.7586 70.2393 21.4902 69.4184 23.0755C69.3282 23.2497 69.2542 23.4308 69.2537 23.4779C69.2503 23.8785 67.3714 26.134 67.041 26.134C66.9928 26.134 66.8837 26.1997 66.7986 26.2799C66.7135 26.3601 66.4361 26.5234 66.1824 26.6428C65.9285 26.7622 65.639 26.9012 65.5391 26.9516C64.3891 27.531 61.2407 27.5233 60.6312 26.9394C60.5707 26.8814 60.4542 26.8341 60.3723 26.8341C59.8992 26.8341 57.8302 25.1118 57.3587 24.3256C56.9176 23.5899 56.5253 22.693 56.4539 22.2574C56.409 21.9831 56.3226 21.6966 56.2619 21.6208C55.9573 21.2401 56.2855 18.5403 56.7625 17.5038C56.8944 17.217 57.0477 16.8625 57.1029 16.7162C57.1581 16.5698 57.2568 16.45 57.322 16.45C57.3873 16.45 57.4407 16.3712 57.4407 16.275C57.4407 16.1787 57.4797 16.0996 57.5276 16.0991C57.5754 16.0987 57.7415 15.9105 57.8968 15.6807C58.4782 14.8206 60.4994 13.5365 61.2798 13.5314C61.4294 13.5303 61.63 13.4786 61.7256 13.4164C62.0012 13.237 63.8364 13.2817 64.6403 13.4874ZM10.481 14.8012C9.73062 15.2705 9.52726 15.7409 9.59235 16.8583C9.67654 18.3059 11.886 18.7724 12.8192 17.5396C13.1811 17.0617 13.4325 16.08 12.9791 15.3583C12.7559 15.0031 12.5512 14.8239 12.1679 14.6576C11.5607 14.3941 11.1572 14.3785 10.481 14.8012ZM20.2667 14.8815C19.6467 15.3203 19.4298 15.799 19.4943 16.5873C19.673 18.7738 22.6602 18.8893 23.0798 16.7261C23.3757 15.2005 21.528 13.989 20.2667 14.8815ZM16.0175 15.1622C15.4127 15.4207 15.1371 16.3879 15.468 17.0906C16.0648 18.3576 17.719 17.8253 17.719 16.3664C17.719 15.4762 16.8019 14.8271 16.0175 15.1622ZM17.0604 20.0377C16.3569 20.6643 16.3544 21.6397 17.0549 22.2336C17.5302 22.6364 18.0702 22.6119 18.5114 22.1674C19.6898 20.9802 18.2972 18.9363 17.0604 20.0377ZM13.7236 22.6049C13.2574 22.7087 12.8551 23.2272 12.8551 23.7244C12.8551 25.0433 14.9183 25.265 15.2383 23.9804C15.436 23.1867 14.5845 22.4135 13.7236 22.6049ZM10.7127 25.8786C10.0608 26.0061 9.71394 26.9237 10.1628 27.3329C10.8975 28.0028 11.9225 27.6648 11.9269 26.7511C11.9297 26.1619 11.3593 25.7521 10.7127 25.8786Z" fill="black"/>
</svg>
