<?xml version="1.0" encoding="UTF-8"?>
<svg width="1920px" height="1920px" viewBox="0 0 1920 1920" version="1.1" xmlns="http://www.w3.org/2000/svg" xmlns:xlink="http://www.w3.org/1999/xlink">
    <!-- Generator: Sketch 51.3 (57544) - http://www.bohemiancoding.com/sketch -->
    <title>Logomark</title>
    <desc>Created with Sketch.</desc>
    <defs></defs>
    <g id="Opencart" stroke="none" stroke-width="1" fill="none" fill-rule="evenodd">
        <g id="Symbol" transform="translate(260.000000, 160.000000)">
            <polygon id="Fill-18" fill="#655AE6" points="1398.30651 1199.74413 1398.28709 399.917275 699.140634 0.000641282527 699.160052 799.827495"></polygon>
            <polygon id="Fill-20" fill="#5A50CE" points="1398.27803 399.919198 699.13157 0.00256513011 699.150992 799.81018"></polygon>
            <polygon id="Fill-22" fill="#655AE6" points="1398.2968 1199.7313 699.150345 799.814669 1398.27738 399.917275"></polygon>
            <polygon id="Fill-24" fill="#4896F0" points="1398.2968 1199.74413 699.150345 799.827495 0.0168299012 1199.71206 699.169763 1599.63511"></polygon>
            <polygon id="Fill-27" fill="#4896F0" points="699.167822 1599.61908 699.1484 799.811463 1398.29486 1199.73451"></polygon>
            <polygon id="Fill-29" fill="#4086D7" points="0.0194191167 1199.70052 699.14646 799.815952 699.165877 1599.61715"></polygon>
            <polygon id="Fill-31" fill="#F5D980" points="699.129629 0.000641282527 0.00258921556 399.88521 0.0220083323 1199.71206 699.149047 799.827495"></polygon>
            <polygon id="Fill-33" fill="#F2D268" points="0.000647303891 399.888417 0.0200664206 1199.70244 699.147107 799.811463"></polygon>
            <polygon id="Fill-35" fill="#FADA70" points="699.129629 0.000641282527 0.00258921556 399.88521 699.149047 799.814669"></polygon>
        </g>
    </g>
</svg>