<svg width="26" height="26" viewBox="0 0 26 26" fill="none" xmlns="http://www.w3.org/2000/svg">
<path fill-rule="evenodd" clip-rule="evenodd" d="M13.7819 21.4804L13.7101 21.5138C11.4578 22.5641 8.78969 22.101 7.02308 20.3531L4.7284 18.0827C4.34188 17.7003 4.23799 17.1159 4.46901 16.6237C4.65031 16.2374 5.11044 16.0712 5.49674 16.2525C5.53398 16.27 5.56976 16.2904 5.60374 16.3136L8.36422 18.1958L4.319 9.52025C4.14169 9.13998 4.30621 8.68797 4.68648 8.51065C5.06674 8.33333 5.51875 8.49785 5.69607 8.87811L8.05172 13.9298L8.29115 13.8182L5.62536 8.10139C5.40221 7.62285 5.60925 7.05402 6.08779 6.83087C6.56633 6.60773 7.13516 6.81477 7.35831 7.29331L10.0241 13.0101L10.2222 12.9177L7.95532 8.05634C7.72898 7.57095 7.93898 6.99398 8.42437 6.76764C8.90976 6.5413 9.48673 6.7513 9.71307 7.23669L11.98 12.0981L12.1921 11.9992L10.6711 8.73745C10.4787 8.3249 10.6572 7.83451 11.0698 7.64213C11.4823 7.44976 11.9727 7.62824 12.1651 8.04079C12.1651 8.04079 12.1651 8.0408 12.1651 8.0408L15.8203 15.8799C16.8039 17.9893 15.8913 20.4967 13.7819 21.4804Z" fill="#877CFF"/>
<path fill-rule="evenodd" clip-rule="evenodd" d="M14.1035 18.084L14.18 18.1045C16.5805 18.7477 19.1276 17.8283 20.5639 15.8002L22.4294 13.1659C22.7437 12.7221 22.7445 12.1286 22.4316 11.684C22.1859 11.335 21.7039 11.2513 21.355 11.4969C21.3213 11.5206 21.2897 11.5469 21.2602 11.5756L18.8685 13.9086L21.3458 4.66241C21.4544 4.25713 21.2138 3.84055 20.8086 3.73196C20.4033 3.62337 19.9867 3.86387 19.8781 4.26915L18.4355 9.65318L18.1803 9.58481L19.8129 3.49195C19.9495 2.98193 19.6469 2.4577 19.1369 2.32104C18.6268 2.18438 18.1026 2.48705 17.9659 2.99707L16.3334 9.08992L16.1222 9.03334L17.5105 3.85218C17.6491 3.33486 17.3421 2.80312 16.8248 2.66451C16.3075 2.52589 15.7757 2.83289 15.6371 3.35021L14.2488 8.53137L14.0228 8.4708L14.9542 4.99453C15.072 4.55484 14.8111 4.1029 14.3714 3.98508C13.9317 3.86727 13.4798 4.1282 13.362 4.56788C13.362 4.56788 13.362 4.56789 13.362 4.56789L11.1235 12.9226C10.5212 15.1708 11.8553 17.4816 14.1035 18.084Z" fill="#77B1F4"/>
<path fill-rule="evenodd" clip-rule="evenodd" d="M12.3331 8.39355L15.8202 15.8703C16.1843 16.6512 16.2886 17.4866 16.1685 18.2791C15.5115 18.3305 14.84 18.2718 14.1796 18.0949L14.1031 18.0744C11.855 17.472 10.5208 15.1612 11.1231 12.913L11.5756 11.2215L11.9798 12.0885L12.1919 11.9896L11.6701 10.8696L12.3331 8.39355Z" fill="#4E43C1"/>
</svg>
