<svg width="40" height="40" viewBox="0 0 40 40" fill="none" xmlns="http://www.w3.org/2000/svg">
<path fill-rule="evenodd" clip-rule="evenodd" d="M7.73881 17.168C9.16396 17.168 10.3193 18.3233 10.3193 19.7484C10.3193 20.6619 9.84469 21.4644 9.12865 21.923C9.87765 22.1128 10.4937 22.4938 11.1442 23.1194C11.8146 23.7642 12.4455 24.9698 13.0367 26.7364H2.71484C3.05193 25.2525 3.5478 24.1674 4.20246 23.4813C4.86466 22.7872 5.58851 22.2509 6.43638 21.9751C5.6721 21.5292 5.15833 20.6988 5.15833 19.7484C5.15833 18.3233 6.31365 17.168 7.73881 17.168Z" fill="#877CFF"/>
<path fill-rule="evenodd" clip-rule="evenodd" d="M32.209 17.1992C33.6342 17.1992 34.7895 18.3545 34.7895 19.7797C34.7895 20.6931 34.3149 21.4957 33.5989 21.9543C34.3479 22.1441 34.9639 22.5251 35.6144 23.1506C36.2848 23.7954 36.9157 25.0011 37.507 26.7676H27.1851C27.5221 25.2837 28.018 24.1987 28.6727 23.5125C29.3349 22.8185 30.0587 22.2821 30.9066 22.0064C30.1423 21.5605 29.6285 20.7301 29.6285 19.7797C29.6285 18.3545 30.7839 17.1992 32.209 17.1992Z" fill="#877CFF"/>
<path fill-rule="evenodd" clip-rule="evenodd" d="M20.037 27.2695C21.4621 27.2695 22.6174 28.4248 22.6174 29.85C22.6174 30.6883 22.2177 31.4332 21.5985 31.9045C22.2751 32.1057 22.8482 32.4753 23.4508 33.0549C24.1213 33.6997 24.7521 34.9053 25.3434 36.6719H15.0215C15.3586 35.1879 15.8544 34.1029 16.5091 33.4168C17.1256 32.7706 17.7955 32.2611 18.5692 31.9714C17.897 31.5072 17.4565 30.73 17.4565 29.85C17.4565 28.4248 18.6118 27.2695 20.037 27.2695Z" fill="#877CFF"/>
<path fill-rule="evenodd" clip-rule="evenodd" d="M20.4406 3.24805C23.1818 3.24805 25.4041 5.47029 25.4041 8.21156C25.4041 10.9528 23.1818 13.1751 20.4406 13.1751C17.6993 13.1751 15.4771 10.9528 15.4771 8.21156C15.4771 5.47029 17.6993 3.24805 20.4406 3.24805ZM20.9809 5.39642H19.7371V5.93497H18.6951V10.6326H19.7371V11.1336H20.981V10.6326H20.9917C21.2038 10.6326 21.3535 10.6063 21.5548 10.5536C21.7562 10.5011 21.9354 10.4198 22.0922 10.3105C22.2495 10.2006 22.3745 10.0591 22.4676 9.88596C22.5603 9.7125 22.6069 9.50762 22.6069 9.27079C22.6069 8.97698 22.5349 8.72561 22.3911 8.51728C22.2473 8.30913 22.0867 8.16313 21.7946 8.07988C22.0069 7.97899 22.1674 7.8496 22.2758 7.69164C22.3842 7.53375 22.4385 7.33636 22.4385 7.09945C22.4385 6.88028 22.402 6.69588 22.329 6.54687C22.2558 6.39777 22.1532 6.27819 22.0203 6.18823C21.8877 6.09836 21.7283 6.03362 21.5423 5.99411C21.3722 5.95795 21.1845 5.93919 20.9809 5.93609V5.39642ZM20.815 8.6793C20.9135 8.6793 21.0085 8.68791 21.0999 8.704C21.1917 8.72027 21.2725 8.74937 21.3428 8.79112C21.413 8.83296 21.4693 8.89107 21.5113 8.96553C21.5535 9.03957 21.5749 9.13504 21.5749 9.25125C21.575 9.46079 21.5114 9.61152 21.3849 9.70432C21.2585 9.79755 21.0964 9.84387 20.8995 9.84387H19.7371V8.6793H20.815ZM20.7128 6.73763C20.8057 6.73763 20.8955 6.74538 20.9815 6.76079C21.068 6.7762 21.1443 6.80349 21.2109 6.84292C21.2772 6.88243 21.3299 6.93735 21.37 7.00743C21.4098 7.07759 21.4297 7.16755 21.4297 7.27722C21.4297 7.47453 21.37 7.61709 21.2505 7.70472C21.1311 7.79261 20.9784 7.83643 20.7927 7.83643H19.7371V6.73763H20.7128Z" fill="#877CFF"/>
<path d="M15.7094 32.2696C13.2734 31.4305 11.3123 29.7338 10.2869 27.5921C10.2856 27.5895 10.2284 27.5923 10.1901 27.5921C10.1617 27.592 10.1086 27.592 10.031 27.5921H9.6188C8.68736 27.5921 7.90057 27.5921 7.25842 27.5921C6.83691 27.5921 6.47708 27.5921 6.26756 27.5921C6.21359 27.5921 6.15045 27.5921 6.07812 27.5921C6.08578 27.616 6.10184 27.664 6.1263 27.7361C7.32782 31.2797 10.2777 34.1415 14.076 35.5153C14.0917 35.521 14.1163 35.4561 14.1531 35.3864C14.1952 35.3066 14.2407 35.2243 14.2738 35.1679C14.2959 35.1304 14.7074 34.3028 15.5082 32.6851L15.6572 32.3908C15.7033 32.3139 15.7207 32.2735 15.7094 32.2696Z" fill="#77B1F4"/>
<path d="M25.0006 32.2696C27.4365 31.4305 29.3976 29.7338 30.4231 27.5921C30.4244 27.5895 30.4815 27.5923 30.5199 27.5921C30.5483 27.592 30.6013 27.592 30.679 27.5921H31.0912C32.0226 27.5921 32.8094 27.5921 33.4515 27.5921C33.8731 27.5921 34.2329 27.5921 34.4424 27.5921C34.4964 27.5921 34.5595 27.5921 34.6318 27.5921C34.6242 27.616 34.6081 27.664 34.5837 27.7361C33.3821 31.2797 30.4323 34.1415 26.6339 35.5153C26.6183 35.521 26.5936 35.4561 26.5568 35.3864C26.5147 35.3066 26.4693 35.2243 26.4361 35.1679C26.4141 35.1304 26.0026 34.3028 25.2018 32.6851L25.0527 32.3908C25.0066 32.3139 24.9892 32.2735 25.0006 32.2696Z" fill="#77B1F4"/>
<path d="M13.0414 8.10956C13.0567 8.10281 13.0858 8.16578 13.1273 8.23273C13.1749 8.30942 13.226 8.38837 13.263 8.44225C13.2876 8.47817 13.7558 9.27507 14.6675 10.833L14.8368 11.1161C14.8881 11.1896 14.9083 11.2287 14.8972 11.2334C13.3771 11.8789 12.0762 12.8623 11.108 14.0667L11.6328 14.4778L6.92985 16.097L7.36319 11.142L8.13045 11.7402C9.42406 10.2206 11.1017 8.9685 13.0414 8.10956Z" fill="#77B1F4"/>
<path d="M27.6481 8.02435C29.8135 9.02875 31.6383 10.525 32.9522 12.3311L32.7244 12.0285L33.4757 11.5964L33.2152 16.5634L28.7834 14.3055L29.4181 13.9387C28.477 12.7517 27.2155 11.7733 25.7381 11.1153C25.7271 11.1105 25.748 11.0717 25.8006 10.9991L25.9747 10.719C26.9135 9.17722 27.3955 8.38861 27.4208 8.35313C27.4587 8.2999 27.5112 8.22185 27.5601 8.14601C27.6028 8.0798 27.633 8.01734 27.6481 8.02435Z" fill="#77B1F4"/>
</svg>
