<svg width="26" height="26" viewBox="0 0 26 26" fill="none" xmlns="http://www.w3.org/2000/svg">
<path d="M9.01282 4C11.7813 4 14.0256 6.24432 14.0256 9.01282C14.0256 10.2955 13.5439 11.4657 12.7514 12.3523C13.6492 11.4982 14.8644 10.9744 16.202 10.9744C18.9705 10.9744 21.2148 13.2187 21.2148 15.9872C21.2148 18.7557 18.9705 21 16.202 21C13.4335 21 11.1892 18.7557 11.1892 15.9872C11.1892 14.7045 11.6709 13.5343 12.4634 12.6478C11.5646 13.5022 10.3499 14.0256 9.01282 14.0256C6.24432 14.0256 4 11.7813 4 9.01282C4 6.24432 6.24432 4 9.01282 4ZM16.202 13.1429C14.6311 13.1429 13.3577 14.4163 13.3577 15.9872C13.3577 17.558 14.6311 18.8314 16.202 18.8314C17.7728 18.8314 19.0462 17.558 19.0462 15.9872C19.0462 14.4163 17.7728 13.1429 16.202 13.1429ZM9.01282 6.16855C7.44198 6.16855 6.16855 7.44198 6.16855 9.01282C6.16855 10.5837 7.44198 11.8571 9.01282 11.8571C10.5837 11.8571 11.8571 10.5837 11.8571 9.01282C11.8571 7.44198 10.5837 6.16855 9.01282 6.16855Z" fill="#77B1F4"/>
<path d="M18.2881 4.57621L20.5312 6.81934L6.92686 20.4237L4.68373 18.1806L18.2881 4.57621Z" fill="#877CFF"/>
<path d="M14.0236 9.01242C14.0236 10.2951 13.5419 11.4653 12.7494 12.3519C13.6472 11.4978 14.8624 10.974 16.2 10.974L16.3714 10.977L11.19 16.1583C11.1881 16.1013 11.1872 16.0442 11.1872 15.9868C11.1872 14.7041 11.6689 13.5339 12.4614 12.6474C11.5626 13.5018 10.3479 14.0252 9.01082 14.0252L8.84082 14.0213L14.0208 8.84277C14.0227 8.89909 14.0236 8.95565 14.0236 9.01242Z" fill="#4E43C1"/>
</svg>
