<svg width="30" height="30" viewBox="0 0 30 30" fill="none" xmlns="http://www.w3.org/2000/svg">
<g clip-path="url(#clip0_228_1101)">
<path d="M23.25 20.6833C23.25 22.4433 21.6786 23.1278 20.8929 23.25H9.10714C8.32143 23.25 6.75 22.7367 6.75 20.6833C6.75 19.5833 12.25 11.625 12.25 11.625V5.625L11.625 5.25H18L17.3571 5.625V11.625C17.3571 11.625 23.25 19.5833 23.25 20.6833Z" fill="#77B1F4" stroke="#77B1F4"/>
<path d="M15.75 7.75C15.4739 7.75 15.25 7.97386 15.25 8.25C15.25 8.52614 15.4739 8.75 15.75 8.75V7.75ZM15.75 8.75H17.25V7.75H15.75V8.75Z" fill="#4E43C1"/>
<path d="M15.75 10C15.4739 10 15.25 10.2239 15.25 10.5C15.25 10.7761 15.4739 11 15.75 11V10ZM15.75 11H17.25V10H15.75V11Z" fill="#4E43C1"/>
<path d="M18.7651 23.3409C18.7651 23.3409 18.4017 24.6973 17.5867 24.4789C16.7717 24.2606 17.1351 22.9042 17.1351 22.9042L19.4975 14.0875L20.9513 8.6619L20.7705 8.25L22.9438 8.83234L22.5813 9.09865L21.1275 14.5243L18.7651 23.3409Z" fill="#867CFF" stroke="#867CFF"/>
<path fill-rule="evenodd" clip-rule="evenodd" d="M17.0728 23.25C17.0966 23.0482 17.1352 22.9042 17.1352 22.9042L19.3999 14.4521C19.807 15.0268 20.2395 15.6449 20.662 16.2619L18.7895 23.25H17.0728Z" fill="#4E43C1"/>
<path d="M17.0728 23.25L16.5762 23.1914L16.5102 23.75H17.0728V23.25ZM17.1352 22.9042L16.6522 22.7748L16.6522 22.7748L17.1352 22.9042ZM19.3999 14.4521L19.8079 14.1631L19.1925 13.2943L18.917 14.3227L19.3999 14.4521ZM20.662 16.2619L21.145 16.3914L21.2045 16.1692L21.0745 15.9794L20.662 16.2619ZM18.7895 23.25V23.75H19.1732L19.2725 23.3794L18.7895 23.25ZM17.5693 23.3087C17.5792 23.2248 17.5922 23.1527 17.6026 23.1024C17.6078 23.0774 17.6121 23.0583 17.615 23.0463C17.6165 23.0403 17.6175 23.0362 17.6181 23.034C17.6183 23.0329 17.6185 23.0323 17.6185 23.0322C17.6185 23.0322 17.6185 23.0323 17.6184 23.0325C17.6184 23.0326 17.6184 23.0328 17.6183 23.0329C17.6183 23.033 17.6183 23.0331 17.6182 23.0332C17.6182 23.0333 17.6182 23.0333 17.6182 23.0334C17.6182 23.0334 17.6182 23.0335 17.6182 23.0335C17.6182 23.0335 17.6182 23.0336 17.1352 22.9042C16.6522 22.7748 16.6522 22.7748 16.6522 22.7749C16.6522 22.7749 16.6522 22.7749 16.6522 22.775C16.6522 22.775 16.6521 22.7751 16.6521 22.7752C16.6521 22.7753 16.652 22.7754 16.652 22.7756C16.6519 22.7759 16.6518 22.7763 16.6517 22.7767C16.6515 22.7775 16.6513 22.7784 16.651 22.7794C16.6504 22.7816 16.6497 22.7843 16.6489 22.7875C16.6473 22.794 16.6451 22.8027 16.6425 22.8133C16.6374 22.8347 16.6307 22.8642 16.6232 22.9004C16.6083 22.9726 16.5901 23.0735 16.5762 23.1914L17.5693 23.3087ZM17.6181 23.0336L19.8829 14.5816L18.917 14.3227L16.6522 22.7748L17.6181 23.0336ZM18.9919 14.7412C19.3978 15.3142 19.8288 15.9301 20.2494 16.5444L21.0745 15.9794C20.6502 15.3597 20.2161 14.7394 19.8079 14.1631L18.9919 14.7412ZM20.179 16.1325L18.3066 23.1206L19.2725 23.3794L21.145 16.3914L20.179 16.1325ZM18.7895 22.75H17.0728V23.75H18.7895V22.75Z" fill="#4E43C1"/>
</g>
<defs>
<clipPath id="clip0_228_1101">
<rect width="30" height="30" fill="white"/>
</clipPath>
</defs>
</svg>
