<svg width="26" height="26" viewBox="0 0 26 26" fill="none" xmlns="http://www.w3.org/2000/svg">
<path d="M16.3917 9.82959V18.6904H3.86426V9.82959H16.3917Z" fill="#77B1F4"/>
<path d="M9.97177 3.54785C12.4297 3.54785 14.4338 5.49056 14.5325 7.92425L14.5363 8.1124V9.82989L11.9363 9.83012V8.1124C11.9363 7.02741 11.0568 6.14785 9.97177 6.14785C8.93199 6.14785 8.08088 6.95564 8.01176 7.97789L8.00723 8.1124V9.82961L5.40723 9.83012V8.1124C5.40723 5.59147 7.45084 3.54785 9.97177 3.54785Z" fill="#77B1F4"/>
<path d="M17.0621 11.0163L16.3915 10.5791L15.721 11.0163C14.7721 11.6351 13.8247 12.0301 12.9262 12.2477C12.6385 12.3174 12.3969 12.3606 12.2106 12.3852L12.014 12.4063C11.9578 12.4107 11.9109 12.4127 11.874 12.4127H10.6465V13.6402C10.6465 16.7969 11.458 19.0993 12.8902 20.6252C13.8875 21.6878 15.0177 22.2245 16.0409 22.4081L16.2705 22.4411L16.385 22.4524L16.4995 22.4423C16.7381 22.4212 17.0852 22.3512 17.5062 22.2025C18.1781 21.9652 18.8449 21.5883 19.4628 21.0427C21.1527 19.5505 22.1366 17.1178 22.1366 13.6402V12.4127H20.9091C20.8722 12.4127 20.8253 12.4107 20.7691 12.4063L20.5725 12.3852C20.3862 12.3606 20.1446 12.3174 19.8569 12.2477C18.9584 12.0301 18.011 11.6351 17.0621 11.0163Z" fill="#877CFF"/>
<path d="M16.3919 10.5791V18.6904L11.6029 18.6911C11.3227 18.0841 11.1007 17.4094 10.9413 16.6649C10.624 15.5 10.624 13.5289 10.624 12.4117C10.624 12.4117 11.4727 12.4117 11.8689 12.4117C11.9113 12.4127 11.9581 12.4107 12.0144 12.4063L12.211 12.3852C12.3973 12.3606 12.6389 12.3174 12.9266 12.2477C13.8251 12.0301 14.7725 11.6351 15.7214 11.0163L16.3919 10.5791Z" fill="#4E43C1"/>
</svg>
