<svg width="163" height="80" viewBox="0 0 163 80" fill="none" xmlns="http://www.w3.org/2000/svg">
<path d="M0 0H163V80H0V0Z" fill="white"/>
<g clip-path="url(#clip0)">
<path d="M56.0065 32.735C55.9894 32.6108 55.8809 32.5419 55.7909 32.5344C55.7016 32.5269 53.951 32.5003 53.951 32.5003C53.951 32.5003 52.4869 31.0786 52.3423 30.934C52.1977 30.7893 51.9152 30.833 51.8054 30.8657C51.8041 30.8664 51.5305 30.951 51.07 31.0936C50.9929 30.8439 50.8796 30.5369 50.718 30.2285C50.1968 29.2339 49.4334 28.7079 48.511 28.7065C48.5096 28.7065 48.5089 28.7065 48.5076 28.7065C48.4434 28.7065 48.38 28.7127 48.3159 28.7181C48.2886 28.6854 48.2613 28.6533 48.2327 28.6219C47.8308 28.1921 47.3158 27.9827 46.6984 28.0011C45.5072 28.0352 44.3209 28.8955 43.3589 30.4237C42.6822 31.4988 42.1671 32.8496 42.0211 33.8955C40.6533 34.3191 39.6968 34.6152 39.6756 34.622C38.9852 34.8389 38.9634 34.8601 38.8734 35.5109C38.8065 36.0028 37 49.9718 37 49.9718L52.139 52.5902L58.7005 50.959C58.7005 50.959 56.0235 32.8592 56.0065 32.735ZM50.312 31.3283C49.9634 31.4361 49.567 31.5589 49.1373 31.6919C49.1284 31.0888 49.0568 30.2497 48.7757 29.5245C49.6796 29.6957 50.1244 30.7184 50.312 31.3283ZM48.3452 31.9375C47.5518 32.1831 46.6861 32.4512 45.8176 32.72C46.0618 31.7847 46.5251 30.8535 47.0941 30.2429C47.3055 30.0157 47.6016 29.7626 47.9523 29.618C48.2818 30.3056 48.3534 31.2792 48.3452 31.9375ZM46.7222 28.7938C47.0019 28.7877 47.2373 28.8491 47.4386 28.9815C47.1166 29.1486 46.8055 29.3887 46.5135 29.7019C45.7569 30.5137 45.177 31.7738 44.9457 32.9895C44.2246 33.2125 43.5192 33.4316 42.8698 33.6321C43.2798 31.7185 44.8836 28.8471 46.7222 28.7938Z" fill="#95BF47"/>
<path d="M55.7915 32.535C55.7022 32.5275 53.9516 32.5009 53.9516 32.5009C53.9516 32.5009 52.4876 31.0792 52.343 30.9345C52.2891 30.8806 52.2161 30.8527 52.1396 30.8411L52.1403 52.5894L58.7012 50.9589C58.7012 50.9589 56.0242 32.8598 56.0071 32.7356C55.9901 32.6114 55.8809 32.5425 55.7915 32.535Z" fill="#5E8E3E"/>
<path d="M48.5028 35.9086L47.7407 38.7596C47.7407 38.7596 46.8907 38.3728 45.8831 38.4362C44.4054 38.5297 44.3897 39.4616 44.4047 39.6956C44.4852 40.9707 47.8396 41.249 48.028 44.2357C48.176 46.5853 46.7815 48.1926 44.7724 48.3195C42.3608 48.4716 41.0332 47.0492 41.0332 47.0492L41.5442 44.8757C41.5442 44.8757 42.8806 45.884 43.9503 45.8164C44.6489 45.7721 44.8986 45.2038 44.8734 44.802C44.7683 43.1387 42.0367 43.237 41.8641 40.504C41.7188 38.2043 43.2293 35.8739 46.5619 35.6637C47.8458 35.5812 48.5028 35.9086 48.5028 35.9086Z" fill="white"/>
<path d="M67.3411 41.8785C66.5867 41.4691 66.1989 41.124 66.1989 40.6496C66.1989 40.0461 66.7375 39.6583 67.5786 39.6583C68.5577 39.6583 69.4319 40.0677 69.4319 40.0677L70.1214 37.9552C70.1214 37.9552 69.4874 37.4592 67.6212 37.4592C65.0242 37.4592 63.2244 38.9465 63.2244 41.0373C63.2244 42.2228 64.0648 43.1282 65.186 43.7744C66.0913 44.2914 66.4148 44.6581 66.4148 45.1967C66.4148 45.757 65.9621 46.2097 65.1217 46.2097C63.8692 46.2097 62.6864 45.5628 62.6864 45.5628L61.9536 47.6753C61.9536 47.6753 63.0464 48.4081 64.8848 48.4081C67.5576 48.4081 69.476 47.0934 69.476 44.7224C69.4753 43.4516 68.5056 42.5463 67.3411 41.8785Z" fill="black"/>
<path d="M77.9888 37.4383C76.6739 37.4383 75.6394 38.0635 74.8423 39.0115L74.7989 38.9899L75.9411 33.0198H72.9666L70.0786 48.2147H73.0532L74.0445 43.0207C74.4322 41.0591 75.4451 39.8526 76.3938 39.8526C77.0616 39.8526 77.3208 40.3053 77.3208 40.9522C77.3208 41.3615 77.2775 41.8575 77.1916 42.2669L76.071 48.2153H79.0457L80.2093 42.0727C80.3388 41.4258 80.4253 40.6504 80.4253 40.1327C80.424 38.4513 79.5404 37.4383 77.9888 37.4383Z" fill="black"/>
<path d="M87.1486 37.4382C83.5703 37.4382 81.2002 40.6713 81.2002 44.2704C81.2002 46.5764 82.6223 48.4298 85.2953 48.4298C88.8084 48.4298 91.1793 45.2834 91.1793 41.5976C91.1793 39.4641 89.9289 37.4382 87.1486 37.4382ZM85.683 46.1461C84.6699 46.1461 84.2387 45.284 84.2387 44.2061C84.2387 42.5036 85.1227 39.7233 86.7391 39.7233C87.7953 39.7233 88.1395 40.6286 88.1395 41.5124C88.1395 43.3441 87.2568 46.1461 85.683 46.1461Z" fill="black"/>
<path d="M98.7875 37.4382C96.7797 37.4382 95.6404 39.2057 95.6404 39.2057H95.5978L95.7703 37.6108H93.1408C93.0117 38.6887 92.774 40.3262 92.5375 41.555L90.4683 52.4389H93.4428L94.2613 48.042H94.3265C94.3265 48.042 94.9367 48.4298 96.0724 48.4298C99.5637 48.4298 101.848 44.8523 101.848 41.2309C101.848 39.2273 100.964 37.4382 98.7875 37.4382ZM95.9424 46.1887C95.1703 46.1887 94.7133 45.7577 94.7133 45.7577L95.2092 42.9773C95.5543 41.124 96.524 39.8952 97.5588 39.8952C98.4642 39.8952 98.7441 40.7356 98.7441 41.5334C98.7441 43.4516 97.6019 46.1887 95.9424 46.1887Z" fill="black"/>
<path d="M106.094 33.1707C105.146 33.1707 104.392 33.9251 104.392 34.8948C104.392 35.7785 104.952 36.382 105.792 36.382H105.835C106.763 36.382 107.56 35.7568 107.581 34.6579C107.581 33.7959 106.999 33.1707 106.094 33.1707Z" fill="black"/>
<path d="M101.935 48.2149H104.908L106.935 37.676H103.939L101.935 48.2149Z" fill="black"/>
<path d="M114.501 37.6542H112.431L112.539 37.1583C112.711 36.1453 113.315 35.2399 114.306 35.2399C114.835 35.2399 115.254 35.3908 115.254 35.3908L115.836 33.0632C115.836 33.0632 115.319 32.8047 114.219 32.8047C113.163 32.8047 112.108 33.1064 111.31 33.796C110.297 34.658 109.823 35.9078 109.586 37.1583L109.5 37.6542H108.12L107.689 39.896H109.069L107.496 48.2154H110.47L112.044 39.896H114.091L114.501 37.6542Z" fill="black"/>
<path d="M121.656 37.676C121.656 37.676 119.796 42.3604 118.961 44.9175H118.918C118.861 44.094 118.185 37.676 118.185 37.676H115.06L116.85 47.3528C116.893 47.568 116.871 47.6979 116.785 47.8487C116.439 48.5166 115.858 49.1635 115.168 49.6378C114.608 50.0472 113.983 50.3057 113.487 50.4782L114.306 53.0001C114.91 52.8709 116.159 52.3749 117.216 51.3836C118.574 50.1121 119.823 48.1505 121.116 45.4778L124.759 37.6753H121.656V37.676Z" fill="black"/>
</g>
<defs>
<clipPath id="clip0">
<rect width="88.1147" height="25" fill="white" transform="translate(37 28)"/>
</clipPath>
</defs>
</svg>
