<svg width="120" height="36" viewBox="0 0 120 36" fill="none" xmlns="http://www.w3.org/2000/svg">
<g clip-path="url(#clip0)">
<path d="M25.8851 7.22064C25.8619 7.04943 25.7142 6.95444 25.5916 6.9441C25.4699 6.93376 23.0859 6.89709 23.0859 6.89709C23.0859 6.89709 21.092 4.9369 20.895 4.7375C20.6981 4.53809 20.3135 4.59829 20.1639 4.64344C20.162 4.64438 19.7895 4.76101 19.1624 4.95759C19.0574 4.61334 18.9031 4.19007 18.6829 3.76493C17.9731 2.39356 16.9335 1.66837 15.6773 1.66649C15.6755 1.66649 15.6745 1.66649 15.6727 1.66649C15.5854 1.66649 15.499 1.67496 15.4117 1.68248C15.3745 1.63733 15.3373 1.59312 15.2983 1.54985C14.751 0.957287 14.0496 0.668527 13.2088 0.693923C11.5866 0.740952 9.97097 1.92703 8.66096 4.03394C7.7393 5.5163 7.03783 7.37868 6.83902 8.82058C4.97621 9.40467 3.67363 9.81287 3.64483 9.8223C2.7046 10.1214 2.67487 10.1505 2.55223 11.0479C2.46118 11.726 0.000976562 30.9855 0.000976562 30.9855L20.6182 34.5954L29.5541 32.3465C29.5541 32.3465 25.9084 7.39185 25.8851 7.22064ZM18.1301 5.28115C17.6554 5.42977 17.1155 5.59907 16.5302 5.78249C16.5182 4.95101 16.4206 3.79409 16.0378 2.79425C17.2689 3.03034 17.8746 4.44027 18.1301 5.28115ZM15.4516 6.1211C14.3711 6.45969 13.192 6.82934 12.0093 7.19996C12.3419 5.91041 12.9728 4.62651 13.7477 3.78468C14.0357 3.47147 14.4389 3.12251 14.9164 2.92311C15.3652 3.87122 15.4627 5.21343 15.4516 6.1211ZM13.2413 1.78688C13.6222 1.77842 13.9427 1.86307 14.2168 2.04554C13.7783 2.27599 13.3546 2.60707 12.957 3.0388C11.9266 4.1581 11.1369 5.89536 10.822 7.57148C9.83992 7.87904 8.87925 8.181 7.99476 8.45754C8.55318 5.81917 10.7374 1.86025 13.2413 1.78688Z" fill="#95BF47"/>
<path d="M25.5925 6.94484C25.4708 6.9345 23.0868 6.89783 23.0868 6.89783C23.0868 6.89783 21.093 4.93764 20.896 4.73823C20.8226 4.66393 20.7232 4.62536 20.6191 4.60938L20.6201 34.5943L29.5551 32.3463C29.5551 32.3463 25.9094 7.39259 25.8861 7.22138C25.8629 7.05017 25.7142 6.95518 25.5925 6.94484Z" fill="#5E8E3E"/>
<path d="M15.6666 11.5963L14.6289 15.527C14.6289 15.527 13.4712 14.9937 12.099 15.0811C10.0866 15.21 10.0652 16.4948 10.0857 16.8175C10.1953 18.5754 14.7636 18.9592 15.02 23.0771C15.2216 26.3164 13.3226 28.5325 10.5864 28.7074C7.30213 28.9171 5.49414 26.956 5.49414 26.956L6.19003 23.9593C6.19003 23.9593 8.01007 25.3495 9.46687 25.2564C10.4183 25.1953 10.7583 24.4118 10.7239 23.8577C10.5809 21.5646 6.86081 21.7 6.62577 17.932C6.42786 14.7614 8.48488 11.5483 13.0234 11.2586C14.7719 11.1448 15.6666 11.5963 15.6666 11.5963Z" fill="white"/>
<path d="M41.3214 19.8273C40.2939 19.2628 39.7659 18.7871 39.7659 18.1331C39.7659 17.3009 40.4994 16.7663 41.6448 16.7663C42.9782 16.7663 44.1688 17.3308 44.1688 17.3308L45.1078 14.4182C45.1078 14.4182 44.2444 13.7344 41.7029 13.7344C38.1661 13.7344 35.7149 15.7849 35.7149 18.6676C35.7149 20.3021 36.8595 21.5503 38.3864 22.4412C39.6194 23.154 40.0598 23.6597 40.0598 24.4022C40.0598 25.1747 39.4434 25.7988 38.2988 25.7988C36.5931 25.7988 34.9823 24.907 34.9823 24.907L33.9844 27.8195C33.9844 27.8195 35.4726 28.8299 37.9763 28.8299C41.6163 28.8299 44.2288 27.0172 44.2288 23.7483C44.2278 21.9963 42.9073 20.748 41.3214 19.8273Z" fill="black"/>
<path d="M55.8223 13.7047C54.0317 13.7047 52.6228 14.5668 51.5372 15.8738L51.4782 15.8439L53.0337 7.61279H48.9828L45.0498 28.5623H49.1007L50.4508 21.4013C50.9788 18.6968 52.3583 17.0334 53.6502 17.0334C54.5597 17.0334 54.9127 17.6575 54.9127 18.5493C54.9127 19.1138 54.8537 19.7976 54.7367 20.362L53.2106 28.5633H57.2618L58.8463 20.0943C59.0227 19.2024 59.1405 18.1333 59.1405 17.4196C59.1388 15.1013 57.9355 13.7047 55.8223 13.7047Z" fill="black"/>
<path d="M68.2971 13.7046C63.424 13.7046 60.1963 18.1621 60.1963 23.1243C60.1963 26.3036 62.133 28.8589 65.7732 28.8589C70.5576 28.8589 73.7864 24.5208 73.7864 19.4392C73.7864 16.4977 72.0836 13.7046 68.2971 13.7046ZM66.3012 25.7103C64.9215 25.7103 64.3343 24.5217 64.3343 23.0356C64.3343 20.6884 65.5382 16.8551 67.7396 16.8551C69.1779 16.8551 69.6467 18.1033 69.6467 19.3217C69.6467 21.8471 68.4445 25.7103 66.3012 25.7103Z" fill="black"/>
<path d="M84.1471 13.7046C81.4127 13.7046 79.8611 16.1414 79.8611 16.1414H79.8031L80.038 13.9425H76.457C76.2812 15.4286 75.9575 17.6863 75.6354 19.3805L72.8174 34.3864H76.8684L77.983 28.3243H78.0717C78.0717 28.3243 78.9028 28.8589 80.4494 28.8589C85.2042 28.8589 88.3152 23.9266 88.3152 18.9336C88.3152 16.1713 87.1113 13.7046 84.1471 13.7046ZM80.2725 25.769C79.2209 25.769 78.5986 25.1748 78.5986 25.1748L79.2739 21.3415C79.7439 18.7862 81.0645 17.092 82.4738 17.092C83.7067 17.092 84.0879 18.2507 84.0879 19.3506C84.0879 21.9954 82.5324 25.769 80.2725 25.769Z" fill="black"/>
<path d="M94.0978 7.82129C92.8068 7.82129 91.7793 8.86149 91.7793 10.1983C91.7793 11.4168 92.5423 12.2489 93.687 12.2489H93.7456C95.0081 12.2489 96.0937 11.3869 96.1233 9.87186C96.1233 8.68327 95.3308 7.82129 94.0978 7.82129Z" fill="black"/>
<path d="M88.4336 28.5634H92.4835L95.2435 14.0332H91.1629L88.4336 28.5634Z" fill="black"/>
<path d="M105.546 14.0031H102.728L102.874 13.3193C103.109 11.9227 103.931 10.6744 105.281 10.6744C106.002 10.6744 106.572 10.8825 106.572 10.8825L107.365 7.67327C107.365 7.67327 106.66 7.31689 105.163 7.31689C103.724 7.31689 102.287 7.73294 101.2 8.68358C99.8207 9.87217 99.175 11.5952 98.8524 13.3193L98.7357 14.0031H96.8565L96.2693 17.0939H98.1486L96.0059 28.564H100.057L102.2 17.0939H104.988L105.546 14.0031Z" fill="black"/>
<path d="M115.29 14.0332C115.29 14.0332 112.758 20.4917 111.621 24.0172H111.562C111.485 22.8819 110.564 14.0332 110.564 14.0332H106.308L108.745 27.3748C108.804 27.6715 108.775 27.8506 108.657 28.0586C108.186 28.9794 107.394 29.8713 106.455 30.5253C105.692 31.0896 104.841 31.446 104.166 31.6839L105.281 35.1609C106.103 34.9827 107.805 34.2989 109.243 32.9321C111.093 31.1792 112.795 28.4747 114.556 24.7897L119.517 14.0322H115.29V14.0332Z" fill="black"/>
</g>
<defs>
<clipPath id="clip0">
<rect width="120" height="34.4681" fill="white" transform="translate(0.000976562 0.692383)"/>
</clipPath>
</defs>
</svg>
