<svg width="163" height="80" viewBox="0 0 163 80" fill="none" xmlns="http://www.w3.org/2000/svg">
<rect width="163" height="80" fill="white"/>
<path d="M91.0897 33.9028L86.3819 46.7533H88.9466L89.9479 43.9971H95.1475L96.1488 46.7533H98.7661L94.0408 33.9028H91.0897ZM92.5301 36.8201L94.3218 41.7599H90.7559L92.5301 36.8201Z" fill="#635BFE"/>
<path d="M103.3 42.0284H105.882C108.78 42.0284 110.59 40.6144 110.59 37.9656C110.59 35.2988 108.78 33.9028 105.882 33.9028H100.717V46.7533H103.3V42.0284ZM103.3 39.7911V36.14H105.741C107.252 36.14 108.025 36.8022 108.025 37.9656C108.025 39.111 107.252 39.7911 105.741 39.7911H103.3Z" fill="#635BFE"/>
<path d="M115.031 42.0284H117.614C120.512 42.0284 122.321 40.6144 122.321 37.9656C122.321 35.2988 120.512 33.9028 117.614 33.9028H112.449V46.7533H115.031V42.0284ZM115.031 39.7911V36.14H117.473C118.984 36.14 119.757 36.8022 119.757 37.9656C119.757 39.111 118.984 39.7911 117.473 39.7911H115.031Z" fill="#635BFE"/>
<path d="M123.302 44.4088C124.321 45.9659 126.533 46.9503 128.659 46.9503C131.347 46.9503 133.595 45.3932 133.595 42.798C133.595 39.9881 131.136 39.4691 129.133 39.0216C127.482 38.6458 126.569 38.4489 126.569 37.4467C126.569 36.516 127.412 35.9075 128.641 35.9075C130.047 35.9075 131.031 36.6234 131.768 37.6793L133.472 35.979C132.594 34.6904 130.89 33.7061 128.712 33.7061C126.095 33.7061 124.021 35.2453 124.021 37.6972C124.021 40.2387 126.059 40.8472 127.939 41.2946C129.836 41.7242 131.031 41.8852 131.031 43.0665C131.031 44.1582 130.064 44.7488 128.747 44.7488C127.359 44.7488 126.007 43.9972 125.076 42.6548L123.302 44.4088Z" fill="#635BFE"/>
<path d="M56.3038 31.9813L52.6589 32.7744V29.7784L56.3038 29V31.9813Z" fill="#635BFE"/>
<path fill-rule="evenodd" clip-rule="evenodd" d="M63.8817 33.6406C62.4586 33.6406 61.5437 34.3162 61.0354 34.7862L60.8467 33.8756H57.652V50.9999L61.2823 50.2215L61.2968 46.0653C61.8197 46.4471 62.5893 46.9905 63.8672 46.9905C66.4665 46.9905 68.8335 44.8757 68.8335 40.2201C68.819 35.9611 66.4229 33.6406 63.8817 33.6406ZM63.0104 43.7596C62.1536 43.7596 61.6454 43.4511 61.2968 43.0693L61.2823 37.6206C61.6599 37.1947 62.1827 36.901 63.0104 36.901C64.3318 36.901 65.2467 38.399 65.2467 40.3229C65.2467 42.2909 64.3464 43.7596 63.0104 43.7596Z" fill="#635BFE"/>
<path fill-rule="evenodd" clip-rule="evenodd" d="M80.2769 40.367C80.2769 36.6073 78.4763 33.6406 75.0347 33.6406C71.5785 33.6406 69.4874 36.6073 69.4874 40.3376C69.4874 44.7582 71.9562 46.9905 75.4993 46.9905C77.2274 46.9905 78.5343 46.594 79.5218 46.036V43.0986C78.5343 43.598 77.4016 43.9064 75.964 43.9064C74.5555 43.9064 73.3066 43.4071 73.1469 41.6741H80.2479C80.2479 41.5935 80.253 41.4112 80.259 41.2007L80.2591 41.1976V41.1971V41.1968V41.1964C80.2673 40.9088 80.2769 40.5698 80.2769 40.367ZM73.1033 38.9718C73.1033 37.3122 74.1053 36.622 75.0201 36.622C75.9059 36.622 76.8498 37.3122 76.8498 38.9718H73.1033Z" fill="#635BFE"/>
<path d="M56.3038 33.8906H52.6589V46.7412H56.3038V33.8906Z" fill="#635BFE"/>
<path d="M48.5187 33.8906L48.751 34.9774C49.6078 33.3912 51.3068 33.7143 51.7715 33.8906V37.2684C51.3213 37.1069 49.8692 36.9013 49.0124 38.0321V46.7412H45.382V33.8906H48.5187Z" fill="#635BFE"/>
<path d="M41.4903 30.7034L37.9471 31.4671L37.9326 43.2308C37.9326 45.4044 39.5445 47.0052 41.6937 47.0052C42.8844 47.0052 43.7557 46.7849 44.2349 46.5206V43.5393C43.7702 43.7302 41.4758 44.4058 41.4758 42.2322V37.0185H44.2349V33.8903H41.4758L41.4903 30.7034Z" fill="#635BFE"/>
<path d="M32.9082 36.8276C32.1386 36.8276 31.6739 37.0479 31.6739 37.6206C31.6739 38.246 32.4737 38.5211 33.4658 38.8624C35.0833 39.4187 37.2121 40.151 37.2211 42.8637C37.2211 45.4926 35.1445 47.0052 32.1241 47.0052C30.8752 47.0052 29.5102 46.7556 28.1597 46.1681V42.6728C29.3795 43.3483 30.9188 43.8477 32.1241 43.8477C32.9373 43.8477 33.5181 43.6273 33.5181 42.9518C33.5181 42.2591 32.6512 41.9425 31.6046 41.5602C30.0107 40.9781 28 40.2437 28 37.7969C28 35.1974 29.9604 33.6406 32.9082 33.6406C34.1135 33.6406 35.3043 33.8315 36.5095 34.3162V37.7675C35.4059 37.1654 34.0119 36.8276 32.9082 36.8276Z" fill="#635BFE"/>
</svg>
