<svg width="144" height="25" viewBox="0 0 144 25" fill="none" xmlns="http://www.w3.org/2000/svg">
<path fill-rule="evenodd" clip-rule="evenodd" d="M54.6735 0.762235L53.3415 1.51914L53.3182 12.7902L53.2949 24.0613H54.719H56.1432V23.3249V22.5885L56.7267 23.047C57.0476 23.2993 57.6781 23.6822 58.1275 23.898L58.9449 24.2904L60.3085 24.3239C61.9583 24.3644 62.5434 24.2648 63.5803 23.7672C64.5864 23.2844 65.7532 22.1526 66.272 21.1564C67.0621 19.6393 67.4417 17.8305 67.4417 15.5823C67.4417 12.8261 66.9205 10.8726 65.7459 9.22663C64.4817 7.45497 62.3613 6.49258 60.0466 6.63983C58.6509 6.72856 57.5946 7.15772 56.6241 8.03028L56.1432 8.46256V4.22866C56.1432 1.89998 56.1122 -0.00293531 56.0743 4.12702e-06C56.0365 0.00294357 55.406 0.345937 54.6735 0.762235ZM88.2015 0.762145L86.8695 1.51905L86.8452 4.2451L86.8208 6.97107L85.4214 6.99642L84.0219 7.02177L83.9963 8.2365L83.9707 9.45122L85.3742 9.47657L86.7777 9.50192L86.8236 15.6564C86.8661 21.3542 86.8821 21.8444 87.0395 22.2636C87.3962 23.2139 88.0542 23.9203 88.8411 24.1979C89.3741 24.386 91.5205 24.3855 92.3196 24.1971C93.0044 24.0356 93.8048 23.7069 93.8048 23.5869C93.8048 23.5211 93.4254 22.3769 93.118 21.5158C93.0887 21.4332 92.9432 21.451 92.5545 21.5847C91.3935 21.9842 90.3216 21.7482 89.925 21.0059L89.7171 20.6167L89.6908 15.0363L89.6645 9.456H91.7832H93.902L93.8763 8.23888L93.8507 7.02177L91.7609 6.99706L89.6712 6.97235V3.48351C89.6712 1.5647 89.6401 -0.00293531 89.6023 4.12702e-06C89.5644 0.00294357 88.934 0.345939 88.2015 0.762145ZM130.807 0.81781C130.116 1.20554 129.485 1.57683 129.406 1.64297C129.275 1.75127 129.263 2.85521 129.284 12.8893L129.308 24.0154L130.709 24.0408L132.109 24.0661V20.1974V16.3288L133.235 15.1701C133.853 14.5328 134.409 13.9578 134.468 13.8923C134.528 13.8269 134.61 13.774 134.652 13.7749C134.693 13.7757 135.571 15.4188 136.601 17.4262C137.632 19.4336 138.818 21.7373 139.237 22.5457L139.998 24.0154L141.53 24.0407C142.964 24.0643 143.058 24.0555 143.001 23.9029C142.967 23.8132 141.923 21.7764 140.68 19.3766C139.436 16.9768 138.03 14.2602 137.554 13.3398C136.941 12.1516 136.713 11.6251 136.769 11.5244C136.813 11.4464 137.427 10.7941 138.133 10.0748C138.839 9.3556 139.806 8.36399 140.281 7.87145L141.145 6.97584H139.442H137.738L136.47 8.33074C135.153 9.73708 134.028 10.9267 132.868 12.1374C132.494 12.5273 132.173 12.7948 132.15 12.7345C132.128 12.6743 132.099 9.80983 132.086 6.36894L132.063 0.112895L130.807 0.81781ZM25.2367 6.71056C22.7906 7.06697 21.1478 8.46908 20.8535 10.4516C20.6779 11.6346 21.0024 12.8967 21.7125 13.7934C22.3581 14.6085 23.9233 15.557 25.9221 16.3443C28.4529 17.3412 29.1856 17.793 29.6854 18.6645C30.0022 19.217 30.0605 19.9495 29.8313 20.4982C29.4704 21.3619 28.3811 21.8568 26.8407 21.8568C25.4135 21.8568 24.3691 21.4389 23.1507 20.3803C22.8642 20.1314 22.6066 19.9277 22.5783 19.9277C22.55 19.9277 22.088 20.3045 21.5515 20.765L20.5762 21.6023L21.0216 22.0593C21.9461 23.0078 23.517 23.9078 24.7589 24.2007C25.5108 24.378 28.0433 24.3806 28.8721 24.2049C29.5311 24.0653 30.5902 23.5805 31.121 23.1756C32.329 22.2542 32.9566 20.5974 32.7315 18.9242C32.4282 16.671 31.1785 15.5066 27.5143 14.0631C24.3186 12.8042 23.5277 12.1608 23.6472 10.9173C23.7373 9.98069 24.5039 9.36854 25.821 9.18171C27.1555 8.99248 28.5097 9.36258 29.6662 10.2327L30.3279 10.7304L31.2412 9.97839C31.7435 9.56476 32.1576 9.18345 32.1614 9.131C32.1718 8.98963 31.373 8.24118 30.7549 7.81322C29.3805 6.86158 27.1962 6.42507 25.2367 6.71056ZM74.4235 6.70973C73.0466 6.9211 71.8558 7.51652 71.0606 8.39091C70.3197 9.20578 70.1551 9.6996 70.1551 11.1094C70.1551 12.0862 70.186 12.3346 70.3618 12.7732C70.6454 13.4805 71.1173 14.0563 71.8882 14.6363C72.8007 15.3228 73.5308 15.6795 76.4356 16.8587C78.3611 17.6403 79.2426 18.5347 79.2344 19.6981C79.2281 20.596 78.7553 21.234 77.8273 21.5971C77.041 21.9048 75.4103 21.9438 74.6066 21.6742C73.8168 21.4094 73.1706 21.0329 72.4498 20.4176C72.0684 20.092 71.816 19.9376 71.7396 19.9832C71.6745 20.0223 71.217 20.4054 70.7229 20.8348L69.8247 21.6154L70.2636 22.0658C71.1992 23.0257 72.5772 23.8083 73.9553 24.1621C74.8078 24.381 77.1652 24.4047 78.1128 24.2039C79.5088 23.9079 80.9129 22.9364 81.4787 21.875C82.4348 20.0812 82.1297 17.6194 80.7917 16.3312C79.9386 15.51 78.8497 14.8995 76.724 14.0507C74.2007 13.0433 73.3667 12.5345 73.0326 11.7992C72.4633 10.5462 73.364 9.40143 75.0914 9.18254C76.5877 8.99285 78.192 9.50762 79.3058 10.535L79.5501 10.7602L80.5292 9.94734L81.5083 9.13449L80.8179 8.47955C80.0103 7.71346 78.7949 7.05723 77.7745 6.83649C76.9513 6.65847 75.1913 6.59188 74.4235 6.70973ZM102.531 6.67226C101.732 6.75787 100.623 7.00579 99.888 7.26345C99.0241 7.56612 97.7673 8.21381 97.6992 8.39146C97.6638 8.48341 98.3501 10.6316 98.4456 10.7283C98.4631 10.746 98.6145 10.6576 98.782 10.5316C99.2432 10.1851 100.281 9.69152 101.153 9.40419C101.858 9.17206 102.064 9.14634 103.266 9.14074C104.466 9.13514 104.657 9.15681 105.192 9.35964C105.978 9.65808 106.568 10.2307 106.852 10.9716C107.026 11.4256 107.07 11.7537 107.104 12.8318C107.126 13.5516 107.117 14.1407 107.084 14.1407C107.05 14.1407 106.892 14.0731 106.733 13.9905C106.222 13.7264 104.951 13.3324 104.239 13.2176C103.353 13.0747 101.3 13.1514 100.556 13.355C98.8856 13.8124 97.5583 14.8178 96.9259 16.1046C96.4869 16.998 96.3762 17.5363 96.3783 18.7691C96.3804 19.9529 96.561 20.81 96.9859 21.6525C97.5747 22.82 98.8937 23.834 100.3 24.2003C101.009 24.3849 103.396 24.3853 104.093 24.201C104.781 24.0189 105.846 23.4672 106.52 22.943L107.078 22.5086L107.105 23.285L107.131 24.0613H108.464H109.796L109.766 17.5165C109.733 10.275 109.756 10.5737 109.118 9.27733C108.582 8.18891 107.475 7.29349 106.211 6.92551C105.302 6.66105 103.679 6.54935 102.531 6.67226ZM118.731 6.73748C117.273 7.01672 116.351 7.48639 115.383 8.44455C114.637 9.18217 114.15 9.93081 113.741 10.969C113.198 12.3434 113.007 13.5268 113.005 15.5186C113.002 18.796 113.7 20.8923 115.348 22.5562C116.04 23.255 116.305 23.4543 116.955 23.7626C117.383 23.9658 117.953 24.1781 118.22 24.2344C118.931 24.384 121.288 24.3623 121.977 24.1999C123.596 23.8183 125.052 22.6674 125.754 21.2138C125.962 20.7843 126.144 20.3548 126.158 20.2592C126.18 20.1119 125.987 20.019 124.888 19.6502L123.591 19.2148L123.387 19.7088C122.814 21.0911 121.461 21.8546 119.788 21.7399C118.014 21.6184 116.723 20.3948 116.179 18.3202C115.798 16.8659 115.799 14.1595 116.181 12.7169C116.592 11.1641 117.484 9.97343 118.561 9.53986C119.032 9.35036 119.265 9.31821 120.168 9.31821C121.136 9.31821 121.267 9.33943 121.742 9.57266C122.326 9.85907 122.904 10.436 123.204 11.0314C123.315 11.2512 123.415 11.4418 123.426 11.455C123.443 11.4753 125.369 10.8078 125.893 10.5999C126.112 10.513 126.046 10.2467 125.609 9.45866C124.909 8.19746 123.624 7.21614 122.189 6.84715C121.368 6.63615 119.56 6.57884 118.731 6.73748ZM35.659 12.202C35.659 17.5906 35.7139 18.7487 36.0339 20.1115C36.4397 21.8395 37.4046 23.1312 38.7897 23.8011C39.76 24.2703 40.3371 24.3624 42.0625 24.3238L43.5269 24.291L44.3006 23.9074C44.7995 23.66 45.2606 23.3419 45.5986 23.0118C45.8869 22.7301 46.1452 22.4998 46.1727 22.4998C46.2001 22.4998 46.2226 22.8511 46.2226 23.2805V24.0613H47.6464H49.0702V15.5186V6.97584H47.6502H46.2302L46.2023 12.8318C46.1748 18.5965 46.1712 18.697 45.971 19.2886C45.5795 20.4459 44.8815 21.1987 43.8822 21.5412C43.1991 21.7755 41.716 21.8222 41.0566 21.6303C39.7036 21.2365 38.87 20.1839 38.6016 18.5303C38.5455 18.1842 38.5077 15.7535 38.5073 12.4643L38.5066 6.97584H37.0828H35.659V12.202ZM60.9718 9.27999C62.2119 9.50642 63.191 10.2429 63.7654 11.3813C64.6736 13.1808 64.8496 16.2647 64.1745 18.5499C63.7684 19.9246 62.8173 21.0911 61.7727 21.4959C60.9799 21.8032 59.6936 21.8452 58.8424 21.5917C58.1112 21.374 57.2682 20.8589 56.7769 20.3299C56.0962 19.5967 56.1432 19.9582 56.1432 15.4592V11.3991L56.3958 11.0969C57.6404 9.60839 59.2564 8.96667 60.9718 9.27999ZM105.037 15.792C105.429 15.8962 106.06 16.1345 106.437 16.3213L107.124 16.6612V18.1825V19.7039L106.596 20.2206C105.907 20.8942 105.033 21.4469 104.295 21.6748C102.03 22.3744 99.8809 21.6117 99.2299 19.8771C98.9309 19.0804 98.983 18.0681 99.3621 17.3098C99.7906 16.4529 100.75 15.8424 102.033 15.6095C102.716 15.4857 104.229 15.5777 105.037 15.792Z" fill="#57585C"/>
<rect y="7.07324" width="15.4321" height="2.11272" fill="#FF6719"/>
<rect y="11.0229" width="15.4321" height="2.11272" fill="#FF6719"/>
<path d="M0 14.7896H15.4321V24.5724L7.71603 20.301L0 24.5724V14.7896Z" fill="#FF6719"/>
</svg>
