<svg width="164" height="80" viewBox="0 0 164 80" fill="none" xmlns="http://www.w3.org/2000/svg">
<rect width="164" height="80" fill="white"/>
<path fill-rule="evenodd" clip-rule="evenodd" d="M70.0981 31.5451L69.1456 32.0864L69.1289 40.1466L69.1122 48.2068H70.1307H71.1491V47.6802V47.1535L71.5664 47.4815C71.7959 47.6618 72.2467 47.9357 72.5682 48.09L73.1527 48.3706L74.1278 48.3945C75.3077 48.4235 75.726 48.3523 76.4675 47.9965C77.187 47.6512 78.0215 46.8418 78.3925 46.1294C78.9575 45.0445 79.2289 43.751 79.2289 42.1433C79.2289 40.1722 78.8562 38.7753 78.0162 37.5982C77.1121 36.3312 75.5958 35.643 73.9405 35.7483C72.9425 35.8117 72.187 36.1186 71.493 36.7426L71.1491 37.0518V34.024C71.1491 32.3587 71.1269 30.9979 71.0999 31C71.0728 31.0021 70.622 31.2474 70.0981 31.5451ZM94.0747 31.545L93.1222 32.0863L93.1048 34.0358L93.0874 35.9852L92.0866 36.0033L91.0858 36.0214L91.0675 36.8901L91.0492 37.7588L92.0529 37.7769L93.0565 37.795L93.0894 42.1962C93.1198 46.2709 93.1312 46.6215 93.2437 46.9212C93.4989 47.6007 93.9694 48.106 94.5321 48.3045C94.9133 48.4389 96.4482 48.4386 97.0197 48.3039C97.5094 48.1884 98.0818 47.9533 98.0818 47.8675C98.0818 47.8205 97.8105 47.0023 97.5907 46.3864C97.5696 46.3274 97.4656 46.3401 97.1877 46.4357C96.3574 46.7214 95.5909 46.5526 95.3072 46.0218L95.1586 45.7434L95.1397 41.7528L95.1209 37.7622H96.6361H98.1513L98.1329 36.8918L98.1146 36.0214L96.6202 36.0038L95.1257 35.9861V33.4911C95.1257 32.119 95.1035 30.9979 95.0765 31C95.0494 31.0021 94.5986 31.2474 94.0747 31.545ZM124.543 31.5848C124.049 31.8621 123.598 32.1276 123.541 32.1749C123.447 32.2524 123.439 33.0418 123.454 40.2174L123.471 48.1739L124.472 48.1921L125.474 48.2102V45.4436V42.6771L126.279 41.8485C126.721 41.3927 127.118 40.9816 127.161 40.9347C127.204 40.8879 127.263 40.8501 127.292 40.8507C127.322 40.8513 127.949 42.0264 128.686 43.4619C129.424 44.8974 130.272 46.5449 130.571 47.1229L131.116 48.1739L132.211 48.192C133.237 48.2089 133.304 48.2027 133.263 48.0935C133.239 48.0294 132.492 46.5728 131.603 44.8566C130.714 43.1405 129.708 41.1978 129.368 40.5396C128.929 39.6898 128.766 39.3134 128.807 39.2414C128.838 39.1855 129.277 38.7191 129.782 38.2047C130.287 37.6904 130.978 36.9813 131.318 36.6291L131.936 35.9886H130.718H129.499L128.592 36.9575C127.651 37.9632 126.846 38.8139 126.017 39.6797C125.75 39.9586 125.52 40.1499 125.503 40.1067C125.487 40.0637 125.467 38.0152 125.458 35.5546L125.441 31.0807L124.543 31.5848ZM49.0472 35.7989C47.2979 36.0537 46.1231 37.0564 45.9127 38.4742C45.7871 39.3201 46.0192 40.2227 46.527 40.864C46.9887 41.4468 48.1079 42.1251 49.5373 42.6882C51.3471 43.4011 51.8712 43.7242 52.2286 44.3474C52.4551 44.7425 52.4968 45.2663 52.3329 45.6587C52.0748 46.2764 51.2958 46.6303 50.1942 46.6303C49.1736 46.6303 48.4268 46.3314 47.5554 45.5744C47.3505 45.3964 47.1664 45.2508 47.1461 45.2508C47.1259 45.2508 46.7955 45.5202 46.4118 45.8495L45.7144 46.4483L46.0329 46.7751C46.694 47.4534 47.8174 48.097 48.7055 48.3064C49.2432 48.4332 51.0542 48.4351 51.647 48.3095C52.1182 48.2096 52.8756 47.8629 53.2552 47.5734C54.119 46.9145 54.5679 45.7297 54.4069 44.5331C54.19 42.9218 53.2963 42.0892 50.676 41.0568C48.3907 40.1566 47.8251 39.6965 47.9105 38.8072C47.9749 38.1374 48.5232 37.6997 49.465 37.566C50.4194 37.4307 51.3878 37.6954 52.2148 38.3176L52.6881 38.6736L53.3411 38.1358C53.7003 37.84 53.9965 37.5673 53.9992 37.5298C54.0066 37.4287 53.4354 36.8935 52.9934 36.5874C52.0105 35.9069 50.4485 35.5947 49.0472 35.7989ZM84.2218 35.7983C83.2371 35.9494 82.3856 36.3752 81.8169 37.0005C81.287 37.5833 81.1694 37.9364 81.1694 38.9446C81.1694 39.6431 81.1915 39.8208 81.3172 40.1344C81.52 40.6402 81.8574 41.052 82.4087 41.4667C83.0613 41.9576 83.5834 42.2128 85.6607 43.056C87.0377 43.615 87.668 44.2546 87.6622 45.0866C87.6576 45.7287 87.3195 46.1849 86.6559 46.4445C86.0936 46.6646 84.9275 46.6925 84.3527 46.4997C83.7879 46.3103 83.3258 46.0411 82.8104 45.6011C82.5376 45.3682 82.3571 45.2578 82.3025 45.2905C82.2559 45.3184 81.9287 45.5924 81.5754 45.8994L80.9331 46.4577L81.247 46.7798C81.916 47.4662 82.9015 48.0258 83.887 48.2789C84.4966 48.4354 86.1824 48.4523 86.86 48.3087C87.8584 48.0971 88.8625 47.4024 89.2671 46.6433C89.9509 45.3605 89.7326 43.6 88.7758 42.6788C88.1658 42.0915 87.3871 41.6549 85.8669 41.048C84.0625 40.3276 83.466 39.9637 83.2271 39.4379C82.82 38.5418 83.4641 37.7232 84.6994 37.5666C85.7695 37.431 86.9167 37.7991 87.7132 38.5338L87.8879 38.6948L88.5881 38.1136L89.2883 37.5323L88.7945 37.0639C88.217 36.5161 87.3479 36.0468 86.6181 35.8889C86.0295 35.7616 84.7709 35.714 84.2218 35.7983ZM104.322 35.7715C103.751 35.8327 102.958 36.01 102.432 36.1943C101.814 36.4107 100.915 36.8739 100.867 37.0009C100.841 37.0667 101.332 38.6029 101.401 38.6721C101.413 38.6847 101.521 38.6215 101.641 38.5314C101.971 38.2836 102.713 37.9306 103.337 37.7251C103.841 37.5591 103.988 37.5408 104.848 37.5367C105.706 37.5327 105.842 37.5482 106.225 37.6933C106.787 37.9067 107.209 38.3162 107.412 38.8461C107.536 39.1707 107.568 39.4053 107.592 40.1763C107.608 40.6911 107.602 41.1123 107.578 41.1123C107.554 41.1123 107.441 41.064 107.327 41.0049C106.961 40.816 106.052 40.5343 105.543 40.4522C104.91 40.35 103.442 40.4049 102.91 40.5504C101.715 40.8776 100.766 41.5965 100.314 42.5167C99.9998 43.1556 99.9207 43.5406 99.9222 44.4222C99.9236 45.2688 100.053 45.8817 100.357 46.4842C100.778 47.3191 101.721 48.0442 102.727 48.3062C103.233 48.4382 104.941 48.4385 105.439 48.3067C105.931 48.1764 106.692 47.7819 107.174 47.407L107.574 47.0964L107.593 47.6516L107.612 48.2068H108.565H109.517L109.496 43.5264C109.472 38.3479 109.489 38.5615 109.033 37.6344C108.649 36.8561 107.858 36.2157 106.954 35.9526C106.304 35.7635 105.143 35.6836 104.322 35.7715ZM115.907 35.8181C114.864 36.0178 114.205 36.3537 113.513 37.0389C112.98 37.5664 112.631 38.1017 112.338 38.8442C111.951 39.8271 111.814 40.6733 111.813 42.0977C111.81 44.4414 112.309 45.9406 113.487 47.1304C113.982 47.6302 114.172 47.7727 114.637 47.9932C114.943 48.1385 115.35 48.2903 115.542 48.3306C116.05 48.4376 117.736 48.4221 118.229 48.3059C119.386 48.033 120.427 47.21 120.93 46.1704C121.078 45.8633 121.208 45.5562 121.218 45.4878C121.234 45.3825 121.096 45.316 120.31 45.0523L119.383 44.741L119.236 45.0942C118.827 46.0827 117.859 46.6287 116.663 46.5467C115.394 46.4598 114.471 45.5847 114.082 44.1012C113.809 43.0612 113.81 41.1257 114.083 40.0942C114.377 38.9837 115.015 38.1322 115.785 37.8222C116.122 37.6867 116.289 37.6637 116.935 37.6637C117.627 37.6637 117.721 37.6788 118.061 37.8456C118.478 38.0504 118.891 38.463 119.106 38.8888C119.185 39.046 119.256 39.1823 119.265 39.1917C119.277 39.2062 120.654 38.7289 121.029 38.5802C121.185 38.5181 121.138 38.3276 120.825 37.7641C120.325 36.8622 119.406 36.1604 118.38 35.8966C117.793 35.7457 116.5 35.7047 115.907 35.8181ZM56.5004 39.7259C56.5004 43.5794 56.5397 44.4076 56.7686 45.3822C57.0587 46.6179 57.7487 47.5416 58.7392 48.0207C59.4331 48.3562 59.8458 48.4221 61.0797 48.3945L62.1269 48.371L62.6802 48.0967C63.037 47.9198 63.3667 47.6923 63.6085 47.4562C63.8146 47.2548 63.9994 47.0901 64.019 47.0901C64.0386 47.0901 64.0547 47.3413 64.0547 47.6484V48.2068H65.0729H66.0911V42.0977V35.9886H65.0756H64.0601L64.0402 40.1763C64.0205 44.2988 64.018 44.3707 63.8748 44.7937C63.5948 45.6213 63.0956 46.1597 62.381 46.4046C61.8925 46.5721 60.8319 46.6056 60.3604 46.4683C59.3928 46.1867 58.7967 45.434 58.6048 44.2514C58.5646 44.0039 58.5376 42.2657 58.5373 39.9135L58.5368 35.9886H57.5186H56.5004V39.7259ZM74.6022 37.6363C75.489 37.7983 76.1891 38.325 76.6 39.139C77.2494 40.4259 77.3753 42.6312 76.8925 44.2654C76.6021 45.2485 75.9219 46.0827 75.1749 46.3722C74.6079 46.592 73.6881 46.622 73.0794 46.4407C72.5565 46.285 71.9536 45.9167 71.6023 45.5384C71.1155 45.014 71.1491 45.2725 71.1491 42.0553V39.1517L71.3298 38.9357C72.2198 37.8712 73.3755 37.4123 74.6022 37.6363ZM106.114 42.2932C106.395 42.3677 106.846 42.5381 107.116 42.6717L107.607 42.9148V44.0027V45.0907L107.229 45.4602C106.737 45.9419 106.111 46.3371 105.584 46.5001C103.964 47.0004 102.427 46.455 101.961 45.2146C101.748 44.6448 101.785 43.9209 102.056 43.3786C102.362 42.7658 103.048 42.3292 103.966 42.1627C104.454 42.0742 105.537 42.1399 106.114 42.2932Z" fill="#57585C"/>
<rect x="31" y="36.0579" width="11.0358" height="1.51085" fill="#FF6719"/>
<rect x="31" y="38.8826" width="11.0358" height="1.51085" fill="#FF6719"/>
<path d="M31 41.5759H42.0358V48.5718L36.5179 45.5173L31 48.5718V41.5759Z" fill="#FF6719"/>
</svg>
