<svg width="164" height="80" viewBox="0 0 164 80" fill="none" xmlns="http://www.w3.org/2000/svg">
<rect width="164" height="80" fill="white"/>
<path fill-rule="evenodd" clip-rule="evenodd" d="M80.9664 33.1998L80.7532 33.3505V39.5489C80.7532 47.3784 80.5906 46.8309 82.9028 46.785L84.253 46.7583L84.2776 40.3549L84.3023 33.9516L84.0825 33.6213C83.7164 33.0712 81.5602 32.7795 80.9664 33.1998ZM26.067 33.2104C26.0318 33.2459 26.0031 33.9202 26.0031 34.7087C26.0031 36.477 25.8266 36.343 28.1541 36.343H29.9343V41.1C29.9343 46.3321 29.9375 46.3624 30.5178 46.6657C30.8686 46.849 33.4774 46.8696 33.6547 46.6905C33.7412 46.603 33.7697 45.3082 33.7697 41.4586V36.343H35.5732C37.8688 36.343 37.7489 36.417 37.7489 35.0012C37.7489 33.8454 37.6369 33.5387 37.1165 33.2684C36.8671 33.1388 26.1932 33.0828 26.067 33.2104ZM105.663 36.975C100.618 37.9897 100.275 45.3076 105.208 46.6673C107.027 47.1687 109.26 46.7817 110.478 45.754C110.988 45.3241 110.918 45.06 110.07 44.2229C109.254 43.4164 108.963 43.3373 108.163 43.7042C107 44.2372 105.449 43.5906 105.244 42.4877C104.866 40.4495 106.503 39.1385 108.37 39.985C109.043 40.2902 109.128 40.2575 109.805 39.4356C111.187 37.7573 108.806 36.3428 105.663 36.975ZM115.416 36.8951C112.375 37.3025 110.566 39.9085 111.15 43.0392C112.059 47.9143 120.071 48.3783 121.701 43.6502C123.066 39.6912 119.905 36.2934 115.416 36.8951ZM127.903 36.9329C127.403 37.0521 126.872 37.3394 126.495 37.6951C126.32 37.8605 126.168 37.9836 126.158 37.9687C125.6 37.124 125.384 37.0212 124.162 37.0212C122.764 37.0212 122.895 36.555 122.895 41.5473C122.895 46.9031 122.815 46.7088 125.009 46.7094C126.523 46.7099 126.394 46.9695 126.395 43.905C126.396 40.6813 126.522 40.1854 127.408 39.9384C128.523 39.6271 128.638 39.9112 128.696 43.1129C128.759 46.6583 128.789 46.7088 130.822 46.7094C132.372 46.7099 132.243 46.9893 132.244 43.6268C132.244 41.0241 132.256 40.8283 132.435 40.5321C132.845 39.8516 133.765 39.7549 134.2 40.3464C134.389 40.6036 134.403 40.7724 134.449 43.2219C134.511 46.6225 134.565 46.7093 136.588 46.7096C138.142 46.7099 137.996 47.0542 137.996 43.3842C137.996 39.529 137.871 38.8753 136.94 37.854C135.742 36.5415 133.207 36.4613 131.7 37.6884L131.124 38.1572L130.941 37.8778C130.41 37.0698 129.074 36.6542 127.903 36.9329ZM41.7924 37.0816C41.4884 37.176 41.1805 37.3757 40.8963 37.663C40.6581 37.9037 40.4513 38.0866 40.4367 38.0695C40.4221 38.0525 40.3418 37.9027 40.2583 37.7367C40.0158 37.2544 39.6037 37.1181 38.3885 37.1181C36.8749 37.1181 37.0192 36.6148 37.051 41.7859L37.0777 46.1435L37.4359 46.4752L37.7941 46.8067H39.1345C40.8205 46.8067 40.673 47.096 40.6749 43.7854C40.6768 40.7959 40.728 40.5564 41.4419 40.1945C41.8558 39.9846 42.9167 39.9704 43.2623 40.17C43.8323 40.4993 43.9661 40.4062 44.6029 39.2374C45.2695 38.0137 45.2823 37.8595 44.7485 37.4924C43.9732 36.9591 42.7392 36.7877 41.7924 37.0816ZM48.7381 37.0227C43.9409 38.048 43.8414 45.8628 48.6126 46.891C49.8726 47.1625 51.299 46.9111 52.1286 46.2711C52.6548 45.8653 52.6198 45.8678 52.802 46.2238C53.0498 46.7081 53.3703 46.8067 54.6965 46.8067C55.4897 46.8067 55.9187 46.7683 55.9958 46.6905C56.2109 46.4731 56.155 38.2156 55.9357 37.8023C55.4662 36.9179 52.659 36.7673 52.659 37.6265C52.659 38.0759 52.5502 38.0919 52.1163 37.706C51.4086 37.0766 49.907 36.7728 48.7381 37.0227ZM71.8839 37.0316C67.3099 37.6961 66.6101 45.1959 70.9761 46.7601C72.4169 47.2763 74.1834 47.0515 75.2102 46.2209C75.6376 45.8755 75.6358 45.8756 75.7091 46.1706C75.836 46.6817 76.2757 46.8519 77.5672 46.8894C79.1957 46.9368 79.0273 47.4565 79.0273 42.3817C79.0273 36.8949 79.1459 37.1874 76.9416 37.2363L75.7203 37.2635L75.6228 37.7288L75.5252 38.1941L75.2387 37.8893C74.8286 37.453 74.1481 37.133 73.3974 37.0233C72.667 36.9165 72.6762 36.9165 71.8839 37.0316ZM89.3828 37.0186C84.4765 37.9669 84.2247 45.892 89.0686 46.9081C90.3815 47.1835 91.8707 46.8896 92.8031 46.1709L93.1151 45.9304L93.2642 46.2216C93.5098 46.7015 93.8992 46.8423 95.0997 46.8854C96.7457 46.9446 96.5742 47.4674 96.5742 42.3902C96.5742 36.9028 96.6953 37.215 94.5673 37.215C93.2042 37.215 93.1223 37.2504 93.1223 37.8384C93.1223 38.1645 93.0848 38.1554 92.5804 37.7067C91.8892 37.092 90.5238 36.7981 89.3828 37.0186ZM57.0286 37.2703C56.8147 37.4865 56.7101 37.197 58.7121 41.9338C61.0005 47.3488 60.631 46.9045 62.8437 46.9021C64.5187 46.9003 64.3397 47.0284 65.0163 45.3476C66.0369 42.8124 67.3062 39.6936 67.5113 39.2174C67.9051 38.3027 67.7039 37.557 66.9807 37.2517C66.5693 37.078 64.8378 37.0688 64.628 37.2392C64.4955 37.3468 63.5854 39.6217 63.3198 40.5091C62.4852 43.2983 62.6029 43.2329 61.975 41.2553C61.3436 39.2669 60.5462 37.2453 60.3657 37.1753C60.0034 37.0348 57.1822 37.1152 57.0286 37.2703ZM117.566 40.1073C118.353 40.5824 118.692 41.8332 118.295 42.7934C117.55 44.5946 114.996 44.3211 114.6 42.3978C114.21 40.4998 115.968 39.1423 117.566 40.1073ZM51.6315 40.1422C52.3827 40.561 52.7258 41.6379 52.4328 42.6565C51.8691 44.6157 49.213 44.584 48.7225 42.6121C48.2434 40.6863 49.9731 39.2178 51.6315 40.1422ZM92.0835 40.133C93.3612 40.7799 93.3322 43.1898 92.0386 43.8672C90.5798 44.6311 89.1547 43.7139 89.1547 42.0109C89.1547 40.3059 90.5977 39.3808 92.0835 40.133ZM74.6875 40.2387C75.9773 41.1012 75.6876 43.4176 74.2121 44.0403C72.39 44.8094 70.8045 42.4165 71.9905 40.6872C72.5351 39.8931 73.8449 39.6753 74.6875 40.2387ZM98.8872 43.4106C97.5828 43.7432 97.1424 45.369 98.0958 46.3324C99.0388 47.2852 100.89 46.9603 101.278 45.7737C101.761 44.2947 100.461 43.0094 98.8872 43.4106Z" fill="#343557"/>
</svg>
