<svg width="164" height="80" viewBox="0 0 164 80" fill="none" xmlns="http://www.w3.org/2000/svg">
<rect x="-0.00012207" width="164" height="80" fill="white"/>
<path d="M94.7216 33.4726C94.7411 33.7547 94.7411 34.0368 94.7411 34.3215C94.7411 42.9958 88.1375 53 76.0625 53V52.9948C72.4956 53 69.0027 51.9783 65.9999 50.0518C66.5185 50.1142 67.0398 50.1454 67.5624 50.1467C70.5184 50.1493 73.3899 49.1574 75.7155 47.3311C72.9063 47.2778 70.443 45.4462 69.5825 42.7722C70.5665 42.962 71.5804 42.923 72.5463 42.6592C69.4837 42.0404 67.2803 39.3496 67.2803 36.2246C67.2803 36.196 67.2803 36.1687 67.2803 36.1414C68.1928 36.6496 69.2146 36.9317 70.2597 36.9629C67.3752 35.0351 66.486 31.1978 68.2279 28.1976C71.5609 32.2988 76.4785 34.792 81.7575 35.0559C81.2284 32.7759 81.9512 30.3866 83.6567 28.7838C86.3007 26.2984 90.4591 26.4258 92.9446 29.0685C94.4148 28.7786 95.8239 28.2392 97.1134 27.4748C96.6233 28.9944 95.5977 30.2852 94.2276 31.1055C95.5288 30.9521 96.8001 30.6037 97.9974 30.072C97.116 31.3928 96.0059 32.5432 94.7216 33.4726Z" fill="#1D9BF0"/>
</svg>
