<svg width="26" height="26" viewBox="0 0 26 26" fill="none" xmlns="http://www.w3.org/2000/svg">
<path d="M15.2552 13.6529C18.068 13.6529 20.3482 11.3727 20.3482 8.55985C20.3482 5.74703 18.068 3.4668 15.2552 3.4668C12.4423 3.4668 10.1621 5.74703 10.1621 8.55985C10.1621 11.3727 12.4423 13.6529 15.2552 13.6529Z" fill="#77B1F4"/>
<path d="M16.1879 14.9175C15.7604 14.2933 15.2828 13.8554 14.4145 13.6058C15.0458 13.3032 15.5229 12.9152 15.845 12.4414C16.1672 11.9679 16.3286 11.376 16.3286 10.6655C16.3286 10.0082 16.2202 9.45518 16.0033 9.00829C15.7854 8.56114 15.4805 8.20254 15.0855 7.93275C14.6913 7.66322 14.2173 7.46908 13.6645 7.35058C13.1588 7.24215 12.6006 7.18587 11.9955 7.17657V5.55811H8.29772V7.17322H5.2002V21.2613H8.29772V22.7638H11.9957V21.2613H12.0275C12.6582 21.2613 13.103 21.1825 13.7015 21.0245C14.3004 20.8671 14.833 20.6231 15.2993 20.2952C15.7668 19.9658 16.1383 19.5414 16.4151 19.0222C16.6908 18.502 16.8292 17.8875 16.8292 17.1773C16.8294 16.2962 16.6152 15.5423 16.1879 14.9175ZM8.29772 9.58039H11.1985C11.4748 9.58039 11.7417 9.60363 11.9973 9.64984C12.2544 9.69605 12.4814 9.77789 12.6791 9.89613C12.8764 10.0146 13.0331 10.1793 13.1521 10.3895C13.2706 10.5999 13.3297 10.8697 13.3297 11.1986C13.3297 11.7903 13.1521 12.2179 12.7968 12.4807C12.4419 12.7443 11.988 12.8757 11.436 12.8757H8.29772V9.58039ZM13.1965 18.4774C12.8208 18.757 12.3388 18.8959 11.7533 18.8959H8.29772V15.4034H11.5021C11.7951 15.4034 12.0776 15.4292 12.3492 15.4775C12.6221 15.5263 12.8624 15.6136 13.0713 15.7388C13.2801 15.8642 13.4474 16.0385 13.5724 16.2618C13.6979 16.4838 13.7614 16.7702 13.7614 17.1187C13.7616 17.7471 13.5726 18.1991 13.1965 18.4774Z" fill="#877CFF"/>
<path fill-rule="evenodd" clip-rule="evenodd" d="M11.9952 5.55825V7.17671C12.6004 7.18601 13.1585 7.24229 13.6643 7.35072C14.217 7.46922 14.691 7.66336 15.0852 7.93289C15.4802 8.20268 15.7851 8.56128 16.003 9.00843C16.2199 9.45532 16.3283 10.0083 16.3283 10.6656C16.3283 11.3761 16.167 11.9681 15.8448 12.4416C15.5226 12.9153 15.0455 13.3033 14.4143 13.6059L14.4488 13.5894C13.6694 13.4654 12.9489 13.1646 12.3298 12.7294C12.5015 12.668 12.6567 12.5847 12.7966 12.4808C13.1518 12.218 13.3294 11.7905 13.3294 11.1987C13.3294 10.8698 13.2703 10.6 13.1518 10.3896C13.0328 10.1795 12.8761 10.0148 12.6788 9.89627C12.4811 9.77803 12.2541 9.69619 11.997 9.64998C11.7414 9.60377 11.4745 9.58053 11.1982 9.58053L10.2645 9.581C10.1974 9.25107 10.1621 8.90955 10.1621 8.55979C10.1621 7.43699 10.5254 6.39905 11.1409 5.55713L11.9952 5.55825Z" fill="#4E43C1"/>
</svg>
