<svg width="103" height="52" viewBox="0 0 103 52" fill="none" xmlns="http://www.w3.org/2000/svg">
<path fill-rule="evenodd" clip-rule="evenodd" d="M24.7562 3.99237C25.502 2.20779 27.3665 0.929276 29.3109 0.929276C43.9872 0.929276 58.6634 0.929276 73.3662 0.929276C74.6447 0.902641 75.9232 1.38209 76.8555 2.23443C77.9209 3.19331 78.5335 4.63163 78.5069 6.06995C78.5069 11.6901 78.5069 17.3102 78.5069 22.9569C78.4803 25.4873 76.2695 27.778 73.7391 27.8312C68.3854 27.8579 63.0316 27.8312 57.6779 27.8312C58.397 29.6158 59.1162 31.3738 59.8353 33.1584C56.6391 31.4004 53.4961 29.5892 50.2732 27.8579C43.2414 27.8046 36.1829 27.8579 29.1245 27.8312C26.5941 27.7513 24.3833 25.4873 24.3567 22.9569C24.3301 17.4434 24.3567 11.9298 24.3301 6.44285C24.3301 5.61715 24.41 4.7648 24.7562 3.99237Z" fill="#945C87"/>
<path fill-rule="evenodd" clip-rule="evenodd" d="M46.2775 4.39164C47.0766 3.5393 48.6214 3.80566 49.2341 4.79118C49.5537 5.29725 49.5803 5.98978 49.314 6.52249C48.1953 8.75988 47.7158 11.237 47.2897 13.6608C46.7836 16.8305 46.3574 20.0534 46.5172 23.2763C46.5705 24.102 46.171 25.0875 45.292 25.3006C44.4663 25.487 43.6938 24.9277 43.1611 24.3417C40.7639 21.7581 39.4055 18.4286 38.42 15.0992C37.4345 17.0436 36.449 19.0146 35.4901 20.959C34.8242 22.2908 34.105 23.6492 33.0396 24.7146C32.5868 25.1674 31.8144 25.567 31.2284 25.1141C30.3494 24.3417 30.1363 23.1165 29.7634 22.0777C28.3517 17.2034 27.5527 12.1692 26.727 7.16175C26.5405 6.33605 26.8868 5.32389 27.7125 5.00427C28.3784 4.76455 29.2573 4.71127 29.8167 5.21735C30.2162 5.56361 30.3228 6.12296 30.4027 6.62904C30.9887 10.5178 31.6546 14.38 32.6134 18.1889C34.2116 15.1524 35.8097 12.116 37.4078 9.05287C37.6476 8.60007 37.9406 8.14726 38.3667 7.88091C38.9527 7.50801 39.805 7.53465 40.3111 8.06736C40.7107 8.49353 40.8705 9.10615 40.977 9.6655C41.4565 12.1692 42.0957 14.673 43.028 17.0436C43.4275 13.4477 43.9336 9.79867 45.2387 6.41595C45.5317 5.69679 45.7981 4.97763 46.2775 4.39164ZM55.307 6.33605C57.0383 6.12296 58.9028 6.70894 60.0747 8.01409C61.0336 9.10615 61.5663 10.5178 61.7528 11.9295C62.0458 14.3534 61.593 16.9104 60.421 19.0679C59.7551 20.2931 58.9028 21.4917 57.6775 22.2109C55.893 23.3029 53.4958 23.1697 51.7644 22.0244C50.3794 21.0655 49.607 19.4674 49.2873 17.8693C48.6481 14.2202 49.7401 10.1716 52.4836 7.64119C53.2827 6.92203 54.2682 6.46922 55.307 6.33605ZM55.6532 10.065C54.8275 10.3314 54.2948 11.1038 53.842 11.7963C52.7233 13.6076 52.4037 15.9781 53.3093 17.9225C53.549 18.4286 53.9219 18.988 54.5345 19.0945C55.1738 19.201 55.7598 18.8281 56.2126 18.4286C57.2247 17.5496 57.7308 16.2445 57.9972 14.9393C58.2635 13.4744 58.1303 11.8496 57.278 10.5711C56.9317 10.0917 56.2392 9.87858 55.6532 10.065ZM69.1309 6.33605C70.8089 6.12296 72.6467 6.65567 73.8187 7.90754C74.8841 9.05288 75.4435 10.5711 75.6033 12.116C75.843 14.4599 75.4169 16.9104 74.2982 18.988C73.6323 20.2398 72.7533 21.4651 71.4748 22.2109C69.7701 23.2497 67.4794 23.1431 65.7748 22.131C64.6294 21.4384 63.857 20.2665 63.4042 19.0146C62.2056 15.2057 63.2177 10.7309 65.9878 7.85427C66.8935 7.0552 67.9855 6.46922 69.1309 6.33605ZM69.5037 10.065C68.5981 10.3847 68.0654 11.2636 67.586 12.0361C66.5738 13.8206 66.3075 16.1379 67.2397 18.0291C67.4794 18.5618 67.9323 19.0679 68.5449 19.0945C69.2108 19.1211 69.7967 18.695 70.2762 18.2422C71.315 17.23 71.7678 15.7917 71.9276 14.38C72.0874 13.0748 71.8743 11.6632 71.1019 10.5445C70.7823 10.0917 70.0897 9.87858 69.5037 10.065Z" fill="white"/>
<path fill-rule="evenodd" clip-rule="evenodd" d="M6.0881 35.5379C7.55305 35.2183 9.09792 35.2449 10.5629 35.5912C10.5629 36.7898 10.5629 37.9884 10.5629 39.187C9.36427 38.894 8.00586 38.6277 6.86053 39.187C5.47548 39.8795 4.70304 41.451 4.70304 42.9426C4.62314 44.4342 5.12921 46.1123 6.46099 46.9646C7.68623 47.7637 9.25773 47.6039 10.5895 47.231C10.5895 48.4296 10.5895 49.6282 10.5895 50.8268C8.80493 51.3328 6.86053 51.2796 5.12921 50.6403C3.05164 49.8679 1.40023 48.0567 0.760972 45.9258C0.281531 44.301 0.228262 42.5697 0.601161 40.9183C1.21378 38.2814 3.45117 36.1239 6.0881 35.5379ZM16.9021 35.3515C18.7134 35.1384 20.6844 35.4314 22.1494 36.5767C23.561 37.6688 24.2536 39.4534 24.5199 41.158C24.7596 43.0492 24.7064 45.0202 24.1204 46.8314C23.6143 48.3763 22.5755 49.8146 21.0839 50.5338C19.5657 51.2529 17.7811 51.3062 16.1564 50.9333C14.6648 50.587 13.333 49.6015 12.5872 48.2431C11.5484 46.4319 11.3619 44.2744 11.4418 42.2235C11.5218 40.4655 11.9746 38.6277 13.1465 37.2692C14.1054 36.1772 15.4905 35.5113 16.9021 35.3515ZM17.4615 38.7875C16.6891 38.9739 16.2363 39.7464 16.0498 40.4655C15.6769 41.9038 15.7302 43.3954 15.8367 44.8604C15.9433 45.6595 16.0232 46.5118 16.5825 47.1511C17.3283 48.0034 18.8465 47.8968 19.5124 47.0179C19.9652 46.4585 20.0984 45.7394 20.1783 45.0468C20.3381 43.8216 20.3648 42.5697 20.1783 41.3445C20.0452 40.5987 19.8321 39.8263 19.2993 39.2669C18.8199 38.7875 18.1007 38.6277 17.4615 38.7875ZM88.4986 35.5912C90.0435 35.1917 91.6683 35.2449 93.2131 35.5646C93.2398 36.7632 93.2132 37.9618 93.2398 39.187C92.0678 38.894 90.7627 38.6277 89.6173 39.1337C88.2856 39.7464 87.4865 41.158 87.38 42.5697C87.2201 44.1679 87.6463 45.9791 89.058 46.9113C90.2832 47.7637 91.8814 47.6039 93.2398 47.2043C93.2132 48.4029 93.2664 49.6282 93.2131 50.8268C91.322 51.3062 89.2444 51.2529 87.4599 50.4805C85.4888 49.6282 83.944 47.8169 83.3846 45.7394C82.9584 44.1412 82.9052 42.4365 83.3047 40.8118C83.8907 38.308 85.9949 36.2571 88.4986 35.5912ZM26.8905 35.6977C28.5952 35.6977 30.3265 35.6977 32.0312 35.6977C32.6438 38.4678 33.2298 41.2646 33.7625 44.0613C34.2419 41.2379 34.9078 38.4678 35.5737 35.6977C37.3317 35.6977 39.0896 35.6977 40.8476 35.6977C41.5401 40.7319 42.206 45.766 42.8719 50.7735C41.5401 50.7735 40.1817 50.7735 38.8499 50.7735C38.477 47.3375 38.1574 43.8749 37.7578 40.4389C36.9321 43.8749 36.0798 47.3375 35.2541 50.7735C34.3485 50.7735 33.4162 50.7735 32.5106 50.7735C31.6316 47.3375 30.7793 43.8749 29.8737 40.4122C29.5274 43.8482 29.1812 47.3109 28.8349 50.7735C27.5564 50.7735 26.2779 50.7735 24.9727 50.7735C25.612 45.766 26.2512 40.7319 26.8905 35.6977ZM45.3223 35.6977C47.027 35.6977 48.7583 35.6977 50.463 35.6977C51.0756 38.4678 51.6616 41.2646 52.1943 44.0613C52.7004 41.2646 53.3397 38.4678 54.0055 35.6977H59.2528C59.9453 40.7319 60.6112 45.766 61.2771 50.7735C59.9453 50.7735 58.5869 50.7735 57.2551 50.7735C56.8822 47.3375 56.5359 43.8749 56.163 40.4389C55.3373 43.8749 54.5116 47.3375 53.6593 50.7735C52.7537 50.7735 51.8214 50.7735 50.9158 50.7735C50.0368 47.3109 49.1579 43.8749 48.2789 40.4122C47.9326 43.8749 47.5864 47.3109 47.2401 50.7735C45.9616 50.7735 44.6831 50.7735 43.3779 50.7735C44.0438 45.766 44.6831 40.7319 45.3223 35.6977ZM62.449 35.751C65.1925 35.6977 67.9626 35.751 70.7061 35.7244C70.7061 36.7898 70.7061 37.8552 70.7061 38.9473C69.321 38.9739 67.936 38.9473 66.5509 38.9473C66.5509 39.8795 66.5509 40.7851 66.5509 41.7174C67.7495 41.7174 68.9481 41.7174 70.1467 41.7174C70.1467 42.7562 70.1467 43.795 70.1467 44.8338C68.9481 44.8338 67.7495 44.8338 66.5509 44.8338C66.5509 45.7394 66.5509 46.6716 66.5509 47.6039C67.936 47.6039 69.3476 47.6039 70.7327 47.6039C70.7327 48.6693 70.7327 49.7347 70.7327 50.8268C67.9892 50.8268 65.2191 50.8268 62.4757 50.8268C62.449 45.7926 62.5023 40.7851 62.449 35.751ZM71.878 35.6977C73.6094 35.6977 75.314 35.6711 77.0453 35.6977C78.6701 35.751 80.4014 36.1505 81.6 37.2959C82.6921 38.308 83.065 39.9861 82.6388 41.3978C82.2925 42.5431 81.4402 43.4753 80.3748 43.9814C81.4402 46.2454 82.5323 48.5095 83.6243 50.7735C82.186 50.7735 80.7477 50.7735 79.336 50.7735C78.2173 48.4562 77.1252 46.1389 75.9799 43.8482C75.9533 46.1655 75.9799 48.4828 75.9799 50.7735C74.6215 50.7735 73.2631 50.7735 71.9047 50.7735C71.878 45.766 71.878 40.7319 71.878 35.6977ZM75.9533 38.601C75.9533 39.7996 75.9533 40.9982 75.9533 42.1968C76.6991 42.1436 77.4981 42.1169 78.1108 41.6641C78.8299 41.1314 78.75 40.0393 78.2972 39.3468C77.7379 38.6809 76.7523 38.6809 75.9533 38.601ZM94.3851 35.7244C97.1286 35.7244 99.872 35.7244 102.616 35.7244C102.616 36.7898 102.616 37.8819 102.616 38.9473C101.23 38.9473 99.8188 38.9473 98.4337 38.9473C98.4337 39.8795 98.4337 40.7851 98.4337 41.7174C99.6323 41.7174 100.831 41.7174 102.03 41.7174C102.03 42.7562 102.03 43.795 102.03 44.8338H98.4337C98.4337 45.766 98.4337 46.6716 98.4337 47.6039C99.8454 47.6039 101.23 47.6039 102.642 47.6039C102.642 48.6693 102.642 49.7347 102.642 50.8268C99.8987 50.8268 97.1286 50.8268 94.3851 50.8268C94.3585 45.766 94.3851 40.7319 94.3851 35.7244Z" fill="black"/>
</svg>
